<svg width="26" height="25" viewBox="0 0 26 25" fill="none" xmlns="http://www.w3.org/2000/svg">
<path d="M13.3914 8.82349C11.0962 8.82349 9.22305 10.6217 9.22305 12.8252C9.22305 15.0287 11.0962 16.8269 13.3914 16.8269C15.6867 16.8269 17.5598 15.0287 17.5598 12.8252C17.5598 10.6217 15.6867 8.82349 13.3914 8.82349ZM25.8934 12.8252C25.8934 11.1681 25.909 9.52597 25.8121 7.87185C25.7151 5.95055 25.2586 4.2454 23.7951 2.84045C22.3285 1.4325 20.5555 0.997204 18.5542 0.904141C16.828 0.811078 15.1175 0.826088 13.3945 0.826088C11.6684 0.826088 9.95791 0.811078 8.2349 0.904141C6.23359 0.997204 4.45742 1.4355 2.99396 2.84045C1.52737 4.2484 1.07395 5.95055 0.977009 7.87185C0.88007 9.52897 0.895706 11.1711 0.895706 12.8252C0.895706 14.4793 0.88007 16.1244 0.977009 17.7785C1.07395 19.6998 1.5305 21.405 2.99396 22.8099C4.46055 24.2179 6.23359 24.6532 8.2349 24.7462C9.96104 24.8393 11.6715 24.8243 13.3945 24.8243C15.1207 24.8243 16.8312 24.8393 18.5542 24.7462C20.5555 24.6532 22.3317 24.2149 23.7951 22.8099C25.2617 21.402 25.7151 19.6998 25.8121 17.7785C25.9121 16.1244 25.8934 14.4823 25.8934 12.8252ZM13.3914 18.9824C9.84221 18.9824 6.97783 16.2325 6.97783 12.8252C6.97783 9.41789 9.84221 6.66804 13.3914 6.66804C16.9406 6.66804 19.805 9.41789 19.805 12.8252C19.805 16.2325 16.9406 18.9824 13.3914 18.9824ZM20.0677 7.85384C19.239 7.85384 18.5698 7.2114 18.5698 6.41586C18.5698 5.62033 19.239 4.97789 20.0677 4.97789C20.8963 4.97789 21.5655 5.62033 21.5655 6.41586C21.5658 6.60477 21.5272 6.79186 21.452 6.96643C21.3768 7.141 21.2665 7.29962 21.1274 7.43319C20.9882 7.56677 20.823 7.67268 20.6412 7.74486C20.4593 7.81704 20.2644 7.85407 20.0677 7.85384Z" fill="#616161"/>
</svg>
