<svg width="23" height="23" viewBox="0 0 23 23" fill="none" xmlns="http://www.w3.org/2000/svg">
<path fill-rule="evenodd" clip-rule="evenodd" d="M0.894776 2.6632C0.894776 2.17573 1.08842 1.70823 1.43311 1.36354C1.77781 1.01884 2.24531 0.825198 2.73278 0.825198H21.0548C21.2963 0.824803 21.5356 0.872061 21.7589 0.964264C21.9822 1.05647 22.1851 1.19181 22.356 1.36253C22.5269 1.53326 22.6625 1.73602 22.7549 1.95921C22.8474 2.18239 22.8949 2.42162 22.8948 2.6632V20.9852C22.895 21.2268 22.8477 21.4661 22.7553 21.6894C22.663 21.9127 22.5276 22.1156 22.3568 22.2865C22.186 22.4574 21.9832 22.5929 21.7599 22.6854C21.5367 22.7778 21.2974 22.8253 21.0558 22.8252H2.73278C2.49132 22.8252 2.25223 22.7776 2.02917 22.6852C1.80611 22.5928 1.60345 22.4573 1.43276 22.2865C1.26207 22.1157 1.12671 21.913 1.0344 21.6899C0.942089 21.4668 0.894644 21.2276 0.894776 20.9862V2.6632ZM9.60277 9.2132H12.5818V10.7092C13.0118 9.8492 14.1118 9.0752 15.7648 9.0752C18.9338 9.0752 19.6848 10.7882 19.6848 13.9312V19.7532H16.4778V14.6472C16.4778 12.8572 16.0478 11.8472 14.9558 11.8472C13.4408 11.8472 12.8108 12.9362 12.8108 14.6472V19.7532H9.60277V9.2132ZM4.10278 19.6162H7.31077V9.0752H4.10278V19.6152V19.6162ZM7.76978 5.6372C7.77582 5.91187 7.72695 6.18498 7.62601 6.44051C7.52508 6.69604 7.37413 6.92883 7.18201 7.12523C6.98989 7.32163 6.76047 7.47767 6.50723 7.5842C6.25399 7.69074 5.98201 7.74561 5.70728 7.74561C5.43254 7.74561 5.16056 7.69074 4.90732 7.5842C4.65408 7.47767 4.42466 7.32163 4.23254 7.12523C4.04042 6.92883 3.88947 6.69604 3.78854 6.44051C3.6876 6.18498 3.63873 5.91187 3.64478 5.6372C3.65665 5.09805 3.87916 4.58499 4.26466 4.20788C4.65016 3.83078 5.168 3.61962 5.70728 3.61962C6.24655 3.61962 6.76439 3.83078 7.14989 4.20788C7.53539 4.58499 7.7579 5.09805 7.76978 5.6372Z" fill="#616161"/>
</svg>
