<svg width="67" height="54" viewBox="0 0 67 54" fill="none" xmlns="http://www.w3.org/2000/svg">
<path d="M59.71 53.84H64.88C65.1063 53.841 65.3305 53.7973 65.5398 53.7115C65.7492 53.6257 65.9395 53.4995 66.1 53.34C66.4203 53.0147 66.5998 52.5765 66.6 52.12V45H64.88V52.12H58C58.0002 52.5765 58.1797 53.0147 58.5 53.34C58.8217 53.6597 59.2565 53.8394 59.71 53.84V53.84Z" fill="#0080F6"/>
<path d="M6.88 0H1.71C1.25556 0.00264212 0.820639 0.185021 0.500237 0.507298C0.179834 0.829574 -7.68041e-06 1.26555 2.46008e-10 1.72V8.84H1.71V1.72H8.6C8.6 1.26383 8.41878 0.826339 8.09622 0.503777C7.77366 0.181214 7.33617 0 6.88 0V0Z" fill="#0080F6"/>
<path d="M36.2099 8.43018H55.5599C57.0699 8.43018 57.6799 9.24018 57.5599 11.0002C57.5723 11.3982 57.4339 11.7862 57.1725 12.0866C56.9111 12.3869 56.5459 12.5775 56.1499 12.6202C55.817 12.644 55.4829 12.644 55.1499 12.6202C42.6299 12.6202 30.1033 12.6202 17.5699 12.6202C14.1099 12.6202 11.6499 16.3702 12.5699 20.2702C12.7778 21.3989 13.331 22.4353 14.1532 23.236C14.9755 24.0367 16.0261 24.5623 17.1599 24.7402C19.4599 24.9302 21.7799 24.8002 24.0799 24.7402H23.7299C25.5199 24.7402 27.3499 24.7402 29.1499 24.7402C29.4418 24.6941 29.7402 24.7132 30.0238 24.7962C30.3074 24.8792 30.569 25.024 30.7899 25.2202C31.1358 25.7305 31.2883 26.3475 31.2199 26.9602C31.2199 28.2502 30.6599 28.9602 29.5599 28.9602H17.8999C13.4499 28.9602 9.95994 25.7802 8.95994 20.8702C7.71994 14.9502 11.6099 8.62018 16.8699 8.52018C23.3299 8.37018 29.7899 8.52018 36.2499 8.52018L36.2099 8.43018Z" fill="#0080F6"/>
<path d="M54.21 22.6201C53.99 22.6201 53.78 22.6801 53.58 22.6801C41.58 22.6801 29.58 22.6801 17.58 22.6801C14.94 22.6801 13.31 19.7501 14.4 17.0401C14.579 16.4693 14.9149 15.9604 15.3693 15.5714C15.8238 15.1823 16.3784 14.9289 16.97 14.8401C17.3882 14.7919 17.809 14.7685 18.23 14.7701H54.21V22.6201Z" fill="#EFA422"/>
<path d="M41.1399 24.7801C43.6099 24.7801 46.0799 24.7801 48.5599 24.7801C53.3599 24.6901 57.4999 29.1601 57.5599 35.0701C57.5599 40.8201 53.6399 45.4101 48.5599 45.4301C40.8099 45.4301 33.0599 45.4301 25.2999 45.4301H10.6899C9.20992 45.4301 8.62992 44.6601 8.74992 42.9201C8.7278 42.7067 8.74806 42.4909 8.80953 42.2853C8.871 42.0797 8.97247 41.8882 9.10812 41.7219C9.24377 41.5556 9.41093 41.4177 9.60001 41.3161C9.78909 41.2146 9.99636 41.1514 10.2099 41.1301C10.4699 41.1301 10.7299 41.1301 10.9999 41.1301C23.4199 41.1301 35.8399 41.1301 48.2599 41.1301C49.3381 41.1899 50.4076 40.9079 51.3161 40.3243C52.2246 39.7408 52.9259 38.8855 53.3199 37.8801C55.1899 33.8801 52.7099 29.0401 48.7699 28.9801C45.3099 28.9201 41.8399 28.9801 38.3799 28.9801H35.3799C35.1199 28.9801 34.8499 28.9801 34.5899 28.9801C33.4599 28.9101 32.9699 28.2101 33.0099 26.7201C33.0099 25.4301 33.5899 24.7801 34.6899 24.7801H41.1399Z" fill="#DB3127"/>
<path d="M12.02 39.0199V31.1699C12.32 31.1699 12.57 31.1099 12.83 31.1099H48.59C51.05 31.1099 52.59 33.3499 52.05 36.0399C51.9329 36.8103 51.5662 37.521 51.0062 38.0629C50.4462 38.6048 49.7239 38.948 48.95 39.0399C48.74 39.0399 48.53 39.0399 48.32 39.0399H12.02V39.0199Z" fill="#64BC4B"/>
</svg>
