<svg width="477" height="570" viewBox="0 0 477 570" fill="none" xmlns="http://www.w3.org/2000/svg">
<path d="M249.667 430.592V418.038C246.942 418.72 244.169 419.498 241.347 420.082C238.524 420.666 234.778 417.308 233.853 415.216C232.739 411.449 232.086 407.56 231.907 403.635C231.128 391.616 232.831 379.306 231.177 367.482C229.597 359.438 228.444 351.317 227.722 343.152C227.464 340.579 226.959 338.037 226.214 335.561C225.97 334.247 225.824 332.934 225.678 331.62C225.652 330.981 225.57 330.347 225.435 329.722C225.435 329.284 224.851 329.187 224.413 329.041C223.404 328.619 222.32 328.402 221.226 328.402C220.132 328.402 219.049 328.619 218.039 329.041C217.322 329.489 216.653 330.011 216.044 330.598L214 332.252L210.205 335.318L206.263 338.481C205.216 339.158 204.346 340.078 203.728 341.162C203.11 342.246 202.761 343.462 202.711 344.709C201.544 351.513 201.446 358.458 202.419 365.292C202.92 371.882 204.094 378.404 205.923 384.755C209.67 395.752 213.514 406.311 217.212 417.357C218.121 421.393 218.433 425.541 218.136 429.668C217.045 433.086 217.045 436.76 218.136 440.178C218.607 441.148 219.288 442.001 220.13 442.674C220.971 443.347 221.953 443.825 223.002 444.071C229.425 445.579 234.875 440.421 240.373 438.183C246.748 435.556 256.139 435.896 260.81 430.349L249.667 430.592Z" fill="#DB9272"/>
<path d="M222.225 433.025C232.443 434.339 250.495 431.565 249.23 418.135L253.61 417.162L255.848 416.773C256.474 416.648 257.119 416.648 257.746 416.773C258.848 417.075 259.864 417.633 260.71 418.403C261.555 419.173 262.207 420.131 262.612 421.201C263.361 423.309 263.361 425.612 262.612 427.721V428.159C262.11 429.178 261.453 430.114 260.665 430.932C259.984 431.671 259.217 432.325 258.378 432.879C256.631 434.004 254.706 434.827 252.685 435.312C248.553 436.136 244.475 437.208 240.472 438.523C234.973 440.762 229.523 445.92 223.1 444.411C222.051 444.165 221.07 443.688 220.228 443.014C219.386 442.341 218.705 441.488 218.234 440.518C216.882 437.459 216.574 434.039 217.359 430.787C217.359 429.716 218.478 427.137 218.575 425.921C219.451 428.597 218.429 432.587 222.225 433.025Z" fill="#0F1317"/>
<path d="M187.145 207.734L196.779 202.138L176.586 190.508L166.951 196.056L187.145 207.734Z" fill="#56CCF2"/>
<path d="M287.427 452.829V440.275C284.653 440.957 281.88 441.735 279.106 442.27C276.333 442.806 272.537 439.546 271.564 437.697C270.45 433.929 269.797 430.04 269.618 426.116C268.839 414.048 270.542 401.786 268.936 389.962C267.333 381.923 266.18 373.8 265.482 365.632C265.183 363.062 264.662 360.522 263.925 358.042C263.925 356.728 263.535 355.414 263.389 354.1C263.464 353.454 263.464 352.801 263.389 352.154C263.389 351.716 262.805 351.667 262.367 351.473C260.323 350.647 258.038 350.647 255.993 351.473C255.275 351.939 254.607 352.477 253.998 353.078L251.954 354.684L248.159 357.798L244.218 360.961C243.17 361.639 242.3 362.558 241.682 363.642C241.064 364.726 240.715 365.943 240.666 367.19C239.378 373.892 239.132 380.752 239.936 387.529C240.436 394.119 241.61 400.641 243.439 406.993C247.186 417.99 251.03 428.549 254.728 439.594C255.632 443.631 255.96 447.776 255.701 451.905C254.586 455.32 254.586 459.001 255.701 462.415C256.185 463.375 256.871 464.22 257.71 464.891C258.55 465.563 259.524 466.046 260.567 466.308C266.99 467.816 272.44 462.659 277.938 460.372C284.313 457.744 293.704 458.133 298.375 452.538L287.427 452.829Z" fill="#F3A984"/>
<path d="M259.937 455.263C270.155 456.528 288.208 453.754 286.943 440.373C288.402 440.032 289.862 439.643 291.322 439.4L293.56 439.01C294.187 438.886 294.832 438.886 295.458 439.01C296.561 439.312 297.576 439.871 298.422 440.641C299.268 441.41 299.919 442.369 300.324 443.438C301.074 445.547 301.074 447.85 300.324 449.959V450.397C299.822 451.416 299.166 452.352 298.378 453.17C297.721 453.933 296.949 454.59 296.091 455.117C294.343 456.242 292.418 457.064 290.397 457.549C286.272 458.38 282.194 459.436 278.184 460.712C272.686 462.999 267.236 468.157 260.813 466.649C259.77 466.387 258.796 465.904 257.956 465.232C257.116 464.56 256.431 463.716 255.947 462.756C254.618 459.69 254.311 456.278 255.071 453.024C255.071 451.954 256.19 449.326 256.287 448.158C257.163 450.835 256.141 454.825 259.937 455.263Z" fill="#0F1317"/>
<path d="M124.133 260.772L123.841 379.598L115.812 374.975L116.104 256.15L124.133 260.772Z" fill="#BDBDBD"/>
<path d="M132.061 259.41L131.769 378.235L123.789 382.858L124.081 264.032L132.061 259.41Z" fill="#828282"/>
<path d="M309.608 359.258L309.365 478.083L301.385 482.706L301.677 363.881L309.608 359.258Z" fill="#828282"/>
<path d="M301.678 363.881L301.386 482.706L293.357 478.083L293.649 359.258L301.678 363.881Z" fill="#BDBDBD"/>
<path d="M309.613 359.258L301.681 363.881L293.652 359.258L301.632 354.636L309.613 359.258Z" fill="#37404A"/>
<path d="M404.407 304.176L404.115 423.002L396.135 427.624L396.427 308.799L404.407 304.176Z" fill="#828282"/>
<path d="M396.423 308.799L396.131 427.624L388.151 423.002L388.395 304.176L396.423 308.799Z" fill="#BDBDBD"/>
<path d="M404.408 304.176L396.428 308.799L388.399 304.176L396.379 299.554L404.408 304.176Z" fill="#37404A"/>
<path d="M132.057 256.15L124.125 260.773L116.097 256.15L124.077 251.479L132.057 256.15Z" fill="#37404A"/>
<path d="M404.205 304.127L404.157 313.324L301.438 372.98L301.486 363.783L404.205 304.127Z" fill="#828282"/>
<path d="M116.002 256.15V265.346L301.442 372.98L301.49 363.783L116.002 256.15Z" fill="#BDBDBD"/>
<path d="M218.721 196.542L116.002 256.15L301.49 363.784L404.21 304.128L218.721 196.542ZM173.468 250.067C188.066 264.665 207.53 264.665 226.993 264.665C207.53 264.714 188.066 264.714 173.468 250.116V250.067Z" fill="#E0E0E0"/>
<path opacity="0.2" d="M318.765 493.313L185.342 570L0 463.145L133.423 386.458L318.765 493.313Z" fill="#15D9FD"/>
<path opacity="0.3" d="M318.765 470.395L185.342 547.082L0 440.178L133.423 363.54L318.765 470.395Z" fill="#15D9FD"/>
<path opacity="0.4" d="M318.765 447.477L185.342 524.115L0 417.26L133.423 340.573L318.765 447.477Z" fill="#15D9FD"/>
<path opacity="0.5" d="M318.765 424.51L185.342 501.197L0 394.293L133.423 317.655L318.765 424.51Z" fill="#15D9FD"/>
<path d="M328.883 272.353V274.494C328.86 274.988 328.703 275.466 328.429 275.878C328.154 276.289 327.773 276.618 327.326 276.83V274.689C327.773 274.477 328.154 274.148 328.429 273.737C328.703 273.325 328.86 272.847 328.883 272.353Z" fill="#37404A"/>
<path d="M328.883 272.353V274.494C328.86 274.988 328.703 275.466 328.429 275.878C328.154 276.289 327.773 276.618 327.326 276.83V274.689C327.764 274.471 328.135 274.139 328.401 273.728C328.666 273.317 328.816 272.842 328.835 272.353H328.883Z" fill="#37404A"/>
<path d="M327.374 274.689L327.422 276.83L295.891 296.877L295.794 294.736L327.374 274.689Z" fill="#37404A"/>
<path d="M287.869 295.077L287.966 297.218L233.273 268.46L233.176 266.319L287.869 295.077Z" fill="#37404A"/>
<path d="M295.8 294.736V296.877C294.598 297.554 293.253 297.938 291.875 297.997C290.496 298.057 289.124 297.789 287.868 297.218V295.077C289.124 295.648 290.496 295.916 291.875 295.856C293.253 295.797 294.598 295.413 295.8 294.736V294.736Z" fill="#37404A"/>
<path d="M295.795 294.736V296.877C294.907 297.425 293.911 297.774 292.875 297.899V295.758C293.911 295.633 294.907 295.284 295.795 294.736Z" fill="#37404A"/>
<path d="M292.879 295.758V297.899C292.023 298.021 291.155 298.021 290.3 297.899V295.806C291.139 295.928 291.991 295.928 292.83 295.806L292.879 295.758Z" fill="#37404A"/>
<path d="M290.348 295.806V297.947C289.498 297.859 288.673 297.612 287.915 297.217V295.076C288.687 295.478 289.53 295.726 290.397 295.806H290.348Z" fill="#37404A"/>
<path d="M233.169 266.319C232.7 266.149 232.294 265.838 232.007 265.429C231.72 265.019 231.566 264.532 231.566 264.032C231.566 263.533 231.72 263.045 232.007 262.636C232.294 262.227 232.7 261.916 233.169 261.745L264.7 241.698C265.902 241.02 267.247 240.636 268.625 240.577C270.004 240.518 271.376 240.785 272.632 241.357L327.325 270.115C327.794 270.285 328.2 270.596 328.487 271.005C328.774 271.414 328.927 271.902 328.927 272.402C328.927 272.901 328.774 273.389 328.487 273.798C328.2 274.207 327.794 274.518 327.325 274.689L295.745 294.736C294.543 295.413 293.198 295.797 291.82 295.857C290.442 295.916 289.069 295.649 287.813 295.077L233.169 266.319Z" fill="#242A31"/>
<path d="M265.676 243.546C266.568 243.105 267.551 242.875 268.547 242.875C269.543 242.875 270.525 243.105 271.418 243.546L326.159 272.304C326.359 272.4 326.541 272.532 326.694 272.693L326.208 273.082H325.916L294.628 292.984C293.732 293.415 292.751 293.639 291.757 293.639C290.763 293.639 289.782 293.415 288.886 292.984L234.68 264.664L234.193 264.372C233.985 264.29 233.8 264.156 233.658 263.983C233.793 263.822 233.958 263.69 234.145 263.594L265.676 243.546Z" fill="#0F1317"/>
<path d="M265.965 244.714C266.856 244.269 267.839 244.037 268.835 244.037C269.832 244.037 270.815 244.269 271.706 244.714L325.912 273.18L294.625 293.082C293.729 293.513 292.748 293.737 291.754 293.737C290.76 293.737 289.779 293.513 288.883 293.082L234.677 264.665L265.965 244.714Z" fill="#15D9FD"/>
<g style="mix-blend-mode:screen">
<path d="M278.477 287.68L303.195 287.485L309.91 283.203L268.063 282.182L278.477 287.68Z" fill="#242A31"/>
</g>
<g style="mix-blend-mode:screen">
<path d="M318.278 277.9L325.917 273.034L322.998 271.525L241.737 268.362L257.503 276.634L318.278 277.9Z" fill="#242A31"/>
</g>
<path d="M231.521 266.222V264.081C231.594 264.574 231.794 265.04 232.101 265.432C232.408 265.825 232.812 266.13 233.273 266.319V268.46C232.806 268.28 232.397 267.977 232.089 267.583C231.78 267.189 231.584 266.718 231.521 266.222V266.222Z" fill="#37404A"/>
<path d="M243.247 249.921C240.911 247.78 244.414 246.904 239.792 244.228L240.522 243.595C239.451 239.07 228.454 241.99 224.026 243.595L223.394 243.839C217.555 246.223 209.429 247.78 212.932 256.928C213.352 258.263 214.106 259.469 215.122 260.431C215.992 260.933 216.99 261.17 217.993 261.113L218.868 261.599C220.672 262.815 222.558 263.904 224.513 264.859C226.872 266.216 229.663 266.614 232.307 265.971C234.952 265.328 237.248 263.693 238.721 261.404C239.354 260.577 239.305 259.701 238.089 259.361C234.877 258.485 234.829 259.701 232.834 260.237C229.719 261.064 230.206 258.242 230.011 257.95C231.403 256.948 232.981 256.235 234.652 255.85C236.323 255.466 238.054 255.419 239.743 255.711C243.441 256.587 244.22 255.079 243.198 253.424C244.512 253.765 244.463 251.04 243.247 249.921Z" fill="#F8B495"/>
<path d="M217.793 260.967C220.129 260.577 223.973 256.101 225.19 254.008C227.087 250.894 214.193 247.926 214.193 247.926C212.809 248.623 211.307 249.052 209.765 249.191C212.052 252.938 214.631 256.782 217.599 260.967H217.793Z" fill="#F8B495"/>
<path d="M217.599 260.967C214.825 256.782 212.052 252.938 209.765 249.191C201.931 250.359 188.014 249.191 174.098 250.7C182.453 258.4 193.176 263.032 204.51 263.838C209.132 262.621 213.609 261.599 217.599 260.967Z" fill="#F8B495"/>
<path d="M174.101 250.7C170.582 251.046 167.087 251.615 163.64 252.403C150.988 255.468 143.69 261.843 146.171 270.066C146.764 272.06 147.817 273.888 149.245 275.401C150.674 276.913 152.437 278.07 154.395 278.776C158.093 279.506 183.347 269.579 204.513 264.178C193.137 263.279 182.409 258.524 174.101 250.7V250.7Z" fill="#DB9272"/>
<path opacity="0.3" d="M272.924 52.9006L253.217 41.5144C251.211 40.1968 249.541 38.428 248.342 36.3494C247.142 34.2709 246.445 31.9403 246.308 29.5443V4.92278C246.308 0.543467 249.422 -1.25692 253.217 0.932736L272.924 12.319C274.929 13.626 276.599 15.3858 277.799 17.4566C278.999 19.5273 279.696 21.851 279.834 24.2404V48.9106C279.834 53.2899 276.72 54.9443 272.924 52.9006Z" fill="#15D9FD"/>
<g opacity="0.5">
<path opacity="0.5" d="M265.679 37.0384C265.167 35.7157 264.247 34.5907 263.052 33.8269C261.933 33.1457 260.959 33.2917 260.473 33.8269C260.164 34.2675 260.01 34.798 260.035 35.3354C260.091 36.3865 260.393 37.4098 260.917 38.3226C261.441 39.2355 262.172 40.0123 263.052 40.5906C264.755 41.5637 266.069 40.5906 266.069 38.8388C266.032 38.2223 265.9 37.6151 265.679 37.0384Z" fill="#15D9FD"/>
<path opacity="0.5" d="M248.846 11.6381L250.354 14.217C252.393 13.2833 254.644 12.9084 256.875 13.1307C259.107 13.353 261.239 14.1645 263.054 15.4821C268.388 18.8086 272.778 23.4498 275.803 28.9607L277.311 28.0848C273.915 21.9419 269.008 16.7668 263.054 13.0492C261.025 11.5717 258.639 10.662 256.142 10.4139C253.644 10.1659 251.126 10.5885 248.846 11.6381V11.6381Z" fill="#15D9FD"/>
<path opacity="0.5" d="M253.322 19.4238L254.831 22.0027C256.151 21.3975 257.609 21.1552 259.055 21.3006C260.5 21.446 261.88 21.9739 263.054 22.83C266.496 24.9963 269.34 27.9909 271.326 31.5399L272.786 30.6641C270.477 26.4633 267.125 22.9275 263.054 20.397C261.662 19.3903 260.029 18.77 258.319 18.5991C256.61 18.4282 254.886 18.7127 253.322 19.4238V19.4238Z" fill="#15D9FD"/>
<path opacity="0.5" d="M257.847 27.2088L259.306 29.7878C259.912 29.5257 260.575 29.4238 261.231 29.492C261.887 29.5602 262.515 29.7961 263.053 30.177C264.628 31.1376 265.92 32.4973 266.8 34.1184L268.308 33.2912C267.056 31.0256 265.248 29.1165 263.053 27.7441C262.327 27.168 261.45 26.8116 260.528 26.7168C259.606 26.622 258.675 26.7927 257.847 27.2088Z" fill="#15D9FD"/>
</g>
<path opacity="0.3" d="M422.506 213.913L377.594 187.978V136.108L422.506 162.043V213.913Z" fill="#15D9FD"/>
<path opacity="0.2" d="M413.455 186.567L403.188 193.039L386.936 161.021L377.594 174.646V187.978L422.506 213.913V200.97L413.455 186.567Z" fill="#15D9FD"/>
<path opacity="0.5" d="M413.46 171.094C413.345 169.006 412.739 166.974 411.69 165.165C410.642 163.355 409.181 161.819 407.426 160.681C404.117 158.734 401.393 160.291 401.393 164.135C401.515 166.228 402.125 168.264 403.172 170.08C404.22 171.896 405.676 173.443 407.426 174.597C410.735 176.592 413.46 174.938 413.46 171.094Z" fill="#15D9FD"/>
<path style="mix-blend-mode:screen" opacity="0.4" d="M402.948 278.776L365.335 257.074V198.294L402.948 219.996V278.776Z" fill="url(#paint0_linear)"/>
<path opacity="0.5" d="M396.036 226.711L372.242 212.989V205.739L396.036 219.461V226.711Z" fill="#15D9FD"/>
<g style="mix-blend-mode:screen" opacity="0.4">
<g style="mix-blend-mode:screen" opacity="0.5">
<path d="M400.026 237.318L368.203 218.974V214.935L400.026 233.28V237.318Z" fill="#15D9FD"/>
</g>
<g style="mix-blend-mode:screen" opacity="0.5">
<path d="M400.025 244.617L368.202 226.273V222.185L400.025 240.578V244.617Z" fill="#15D9FD"/>
</g>
<g style="mix-blend-mode:screen" opacity="0.5">
<path d="M400.025 251.916L368.202 233.523V229.484L400.025 247.877V251.916Z" fill="#15D9FD"/>
</g>
<g style="mix-blend-mode:screen" opacity="0.5">
<path d="M400.025 259.166L368.202 240.822V236.783L400.025 255.127V259.166Z" fill="#15D9FD"/>
</g>
<g style="mix-blend-mode:screen" opacity="0.5">
<path d="M400.025 266.465L368.202 248.12V244.082L400.025 262.426V266.465Z" fill="#15D9FD"/>
</g>
<g style="mix-blend-mode:screen" opacity="0.5">
<path d="M392.288 269.287L368.202 255.371V251.332L392.288 265.248V269.287Z" fill="#15D9FD"/>
</g>
</g>
<path opacity="0.4" d="M362.505 123.7L309.126 92.8985V43.8015L330.39 56.0636L335.207 65.8441L362.505 81.6096V123.7Z" fill="#15D9FD"/>
<path opacity="0.2" d="M361.249 69.9313L310.498 40.6385V44.5799L330.4 56.0635L335.217 65.8439L361.249 80.9282V69.9313Z" fill="#15D9FD"/>
<path opacity="0.3" d="M230.054 186.616L197.209 167.639V129.685L230.054 148.662V186.616Z" fill="#15D9FD"/>
<path opacity="0.5" d="M220.479 157.712V155.328C220.32 152.774 219.575 150.29 218.301 148.07C217.026 145.851 215.257 143.955 213.131 142.531C208.995 140.146 205.638 142.093 205.638 146.861V149.294C204.762 149.294 204.178 150.17 204.178 151.435V162.481C204.221 163.528 204.519 164.549 205.044 165.456C205.57 166.363 206.308 167.129 207.195 167.687L219.116 174.597C220.77 175.57 222.133 174.597 222.133 172.845V161.556C222.012 160.13 221.431 158.781 220.479 157.712ZM212.936 144.915C214.47 145.907 215.747 147.249 216.661 148.831C217.574 150.413 218.099 152.19 218.192 154.014V155.912L207.681 149.878V147.932C207.876 144.623 210.26 143.261 213.131 144.915H212.936ZM214.445 164.379V167.785L211.477 166.082V162.627C210.806 161.758 210.415 160.706 210.357 159.61C210.357 157.956 211.525 157.274 212.936 158.102C213.686 158.594 214.31 159.256 214.758 160.033C215.206 160.811 215.465 161.682 215.515 162.578C215.638 162.967 215.618 163.388 215.457 163.763C215.296 164.138 215.006 164.443 214.639 164.622L214.445 164.379Z" fill="#15D9FD"/>
<path opacity="0.3" d="M436.077 145.499L388.245 117.861V78.9819L436.077 106.62V145.499Z" fill="#15D9FD"/>
<path opacity="0.2" d="M388.245 78.9819L436.077 106.62L412.185 115.233L388.245 78.9819Z" fill="#15D9FD"/>
<g style="mix-blend-mode:overlay">
<g style="mix-blend-mode:overlay" opacity="0.3">
<path d="M163.984 37.7192L157.707 34.0698V26.8196L163.984 30.469V37.7192Z" fill="#15D9FD"/>
</g>
<g style="mix-blend-mode:overlay" opacity="0.3">
<path d="M380.718 52.9495L374.441 49.3487V42.0985L380.718 45.6993V52.9495Z" fill="#15D9FD"/>
</g>
<g style="mix-blend-mode:overlay" opacity="0.3">
<path d="M476.379 193.331L470.102 189.681V182.431L476.379 186.032V193.331Z" fill="#15D9FD"/>
</g>
<g style="mix-blend-mode:overlay" opacity="0.3">
<path d="M354.003 212.259L347.726 208.659V201.36L354.003 205.009V212.259Z" fill="#15D9FD"/>
</g>
<g style="mix-blend-mode:overlay" opacity="0.3">
<path d="M457.789 304.906L451.512 301.257V294.007L457.789 297.656V304.906Z" fill="#15D9FD"/>
</g>
<g style="mix-blend-mode:overlay" opacity="0.5">
<path d="M323.248 261.113L316.971 257.513V250.262L323.248 253.863V261.113Z" fill="#15D9FD"/>
</g>
<g style="mix-blend-mode:overlay" opacity="0.3">
<path d="M135.957 153.966L129.68 150.316V143.066L135.957 146.715V153.966Z" fill="#15D9FD"/>
</g>
<g style="mix-blend-mode:overlay" opacity="0.3">
<path d="M173.761 96.4016L167.484 92.8008V85.5507L173.761 89.1514V96.4016Z" fill="#15D9FD"/>
</g>
<g style="mix-blend-mode:overlay" opacity="0.3">
<path d="M377.601 371.034L371.324 367.433V360.134L377.601 363.783V371.034Z" fill="#15D9FD"/>
</g>
<g style="mix-blend-mode:overlay" opacity="0.3">
<path d="M292.103 83.994L285.777 80.3933V73.1431L292.103 76.7438V83.994Z" fill="#15D9FD"/>
</g>
</g>
<path d="M322.851 128.906L324.554 127.933L287.622 106.62L285.919 107.594L322.851 128.906Z" fill="#67E89B"/>
<path d="M345.868 191.384L347.571 190.411L347.717 135.767L346.014 136.74L345.868 191.384Z" fill="#27AE60"/>
<path d="M346.012 136.74L347.715 135.767L326.986 123.797L325.283 124.77L346.012 136.74Z" fill="#67E89B"/>
<path d="M325.289 124.77L322.856 128.906L285.923 107.593L285.777 156.739L345.871 191.384L346.017 136.74L325.289 124.77Z" fill="#6FCF97"/>
<path d="M340.227 192.211L344.703 189.584L344.849 144.574L340.324 147.202L340.227 192.211Z" fill="#D4E2FC"/>
<path d="M340.318 147.202L344.843 144.574L287.426 111.438L282.9 114.065L340.318 147.202Z" fill="#ECF5FE"/>
<path d="M282.904 114.065L282.758 159.075L340.224 192.212L340.321 147.202L282.904 114.065Z" fill="#B5B3C4"/>
<path d="M345.871 185.594V187.297H345.92V188.027H347.574V189.098L340.275 193.282V188.952L345.871 185.594Z" fill="#219653"/>
<path d="M340.274 194.596L341.977 193.623L342.123 147.932L340.42 148.905L340.274 194.596Z" fill="#27AE60"/>
<path d="M340.418 148.905L342.121 147.932L282.027 113.287L280.324 114.26L340.418 148.905Z" fill="#67E89B"/>
<path d="M280.325 114.26L280.228 159.951L340.273 194.596L340.419 148.905L280.325 114.26Z" fill="#6FCF97"/>
<path d="M340.275 194.596L347.574 190.411V185.886L340.275 190.265V194.596Z" fill="#27AE60"/>
<path d="M299.157 145.693L298.622 145.255C298.203 144.884 297.885 144.413 297.697 143.885C297.51 143.357 297.46 142.791 297.551 142.238C297.801 141.363 298.231 140.549 298.813 139.848C299.394 139.148 300.115 138.576 300.93 138.168C301.744 137.761 302.634 137.528 303.544 137.483C304.453 137.438 305.362 137.583 306.213 137.908C309.747 139.354 312.902 141.594 315.433 144.455C317.965 147.315 319.804 150.719 320.81 154.403C321.151 155.571 320.81 156.496 319.934 156.447C319.396 156.301 318.907 156.011 318.521 155.608C318.136 155.205 317.867 154.704 317.745 154.16C317.01 151.467 315.667 148.979 313.819 146.887C311.972 144.795 309.669 143.155 307.088 142.092C306.466 141.866 305.805 141.768 305.144 141.806C304.483 141.843 303.836 142.015 303.244 142.311C302.652 142.607 302.127 143.021 301.7 143.527C301.273 144.034 300.954 144.622 300.763 145.255C300.519 145.937 299.838 146.083 299.157 145.693Z" fill="#ECF5FE"/>
<path d="M295.359 140.195L299.641 150.9L303.68 144.866L295.359 140.195Z" fill="#ECF5FE"/>
<path d="M309.711 169.634C304.535 166.286 300.629 161.301 298.617 155.474C298.227 154.257 298.617 153.284 299.346 153.284C299.885 153.39 300.382 153.648 300.779 154.027C301.176 154.407 301.455 154.892 301.585 155.425C302.377 157.978 303.721 160.325 305.52 162.301C307.319 164.276 309.531 165.833 311.998 166.86C312.632 167.093 313.308 167.19 313.982 167.147C314.656 167.104 315.314 166.921 315.914 166.61C316.514 166.299 317.042 165.866 317.465 165.34C317.888 164.813 318.197 164.204 318.372 163.551C318.372 162.724 319.589 162.676 320.464 163.551C320.888 163.93 321.208 164.41 321.395 164.946C321.582 165.482 321.63 166.057 321.535 166.617C321.302 167.511 320.883 168.347 320.305 169.068C319.727 169.789 319.003 170.38 318.181 170.803C317.359 171.226 316.457 171.47 315.534 171.52C314.611 171.57 313.688 171.425 312.825 171.094C311.727 170.748 310.679 170.257 309.711 169.634Z" fill="#ECF5FE"/>
<path d="M323.73 168.855L320.081 158.15L315.458 163.405L323.73 168.855Z" fill="#ECF5FE"/>
<path opacity="0.3" d="M262.907 153.041L214.005 124.77V41.4172L262.907 69.6395V153.041Z" fill="#15D9FD"/>
<path opacity="0.5" d="M244.267 69.5421L223.149 57.3773V53.4359L244.267 65.6493V69.5421Z" fill="#15D9FD"/>
<path opacity="0.5" d="M221.01 52.8519C220.945 51.8729 220.651 50.9227 220.152 50.0777C219.654 49.2327 218.964 48.5163 218.139 47.986C216.582 47.1101 215.316 47.986 215.316 49.6404C215.38 50.6142 215.667 51.5602 216.157 52.4043C216.646 53.2485 217.325 53.9679 218.139 54.5063C219.744 55.3822 221.01 54.6523 221.01 52.8519Z" fill="#15D9FD"/>
<path opacity="0.5" d="M261.639 103.311L223.149 81.0742V77.1328L261.639 99.37V103.311Z" fill="#15D9FD"/>
<path opacity="0.5" d="M221.01 76.5487C220.945 75.5697 220.651 74.6195 220.152 73.7745C219.654 72.9294 218.964 72.213 218.139 71.6828C216.582 70.8069 215.316 71.6828 215.316 73.3372C215.38 74.311 215.667 75.257 216.157 76.1011C216.646 76.9452 217.325 77.6647 218.139 78.2031C219.744 79.2736 221.01 78.3491 221.01 76.5487Z" fill="#15D9FD"/>
<path opacity="0.5" d="M221.01 100.538C220.945 99.5589 220.651 98.6088 220.152 97.7637C219.654 96.9187 218.964 96.2023 218.139 95.672C216.582 94.7962 215.316 95.672 215.316 97.3264C215.372 98.3021 215.657 99.2508 216.147 100.096C216.637 100.941 217.319 101.66 218.139 102.192C219.744 103.068 221.01 102.338 221.01 100.538Z" fill="#15D9FD"/>
<path opacity="0.5" d="M232.689 71.6346L253.856 83.7994V79.9067L232.689 67.6932V71.6346Z" fill="#15D9FD"/>
<path opacity="0.5" d="M215.658 68.0822L253.856 90.1734V86.232L215.658 64.1895V68.0822Z" fill="#15D9FD"/>
<path opacity="0.5" d="M255.945 81.7556C255.945 79.9066 257.259 79.1767 258.816 80.1012C259.63 80.6396 260.308 81.359 260.798 82.2032C261.288 83.0473 261.575 83.9933 261.638 84.9671C261.638 86.8162 260.373 87.546 258.816 86.6215C257.993 86.0884 257.306 85.3713 256.807 84.5269C256.309 83.6824 256.014 82.7337 255.945 81.7556Z" fill="#15D9FD"/>
<path opacity="0.5" d="M232.689 95.1857L253.856 107.399V103.506L232.689 91.293V95.1857Z" fill="#15D9FD"/>
<path opacity="0.5" d="M215.658 91.6821L253.856 113.773V109.832L215.658 87.7894V91.6821Z" fill="#15D9FD"/>
<path opacity="0.5" d="M244.267 117.861L223.149 105.647V101.755L244.267 113.968V117.861Z" fill="#15D9FD"/>
<path opacity="0.5" d="M261.347 134.064L223.149 112.021V108.08L261.347 130.171V134.064Z" fill="#15D9FD"/>
<path opacity="0.5" d="M261.347 140.438L223.149 118.347V114.454L261.347 136.497V140.438Z" fill="#15D9FD"/>
<path opacity="0.5" d="M255.945 105.355C255.945 103.506 257.259 102.776 258.816 103.701C259.63 104.239 260.308 104.959 260.798 105.803C261.288 106.647 261.575 107.593 261.638 108.567C261.638 110.416 260.373 111.146 258.816 110.221C257.993 109.688 257.306 108.971 256.807 108.126C256.309 107.282 256.014 106.333 255.945 105.355V105.355Z" fill="#15D9FD"/>
<path opacity="0.5" d="M232.689 132.069L253.856 144.234V140.341L232.689 128.128V132.069Z" fill="#15D9FD"/>
<path opacity="0.5" d="M255.945 142.19C255.945 140.389 257.21 139.611 258.816 140.535C259.63 141.074 260.308 141.793 260.798 142.637C261.288 143.482 261.575 144.428 261.638 145.401C261.638 147.202 260.373 147.932 258.816 147.007C257.992 146.487 257.302 145.78 256.803 144.943C256.304 144.106 256.01 143.162 255.945 142.19V142.19Z" fill="#15D9FD"/>
<path d="M170.787 196.834L180.519 191.141C180.131 190.856 179.675 190.679 179.196 190.628C178.718 190.576 178.234 190.653 177.794 190.849L168.062 196.591C168.475 196.347 168.946 196.218 169.425 196.218C169.904 196.218 170.375 196.347 170.787 196.591V196.834Z" fill="#7F89A6"/>
<path d="M186.701 207.491L196.433 201.895C197.517 202.609 198.419 203.566 199.069 204.689C199.72 205.812 200.1 207.071 200.18 208.366C200.18 209.583 200.18 210.799 200.18 212.016C200.18 213.232 200.18 213.816 200.18 214.692C200.15 215.213 200.008 215.722 199.765 216.183C199.521 216.645 199.182 217.049 198.769 217.368C197.99 218.001 197.114 218.439 196.336 219.12C196.043 219.403 195.716 219.648 195.362 219.85C195.026 220.03 194.665 220.161 194.292 220.239C193.605 220.408 192.887 220.408 192.2 220.239C191.87 220.169 191.562 220.023 191.3 219.811C191.038 219.6 190.829 219.33 190.691 219.023C190.568 218.363 190.568 217.687 190.691 217.028V213.865C190.573 212.564 190.151 211.309 189.457 210.201C188.764 209.094 187.82 208.165 186.701 207.491V207.491Z" fill="#2F80ED"/>
<g style="mix-blend-mode:multiply" opacity="0.2">
<path d="M134.542 366.362C112.986 378.43 113.23 398.72 135.078 411.761C156.926 424.802 192.106 425.532 213.662 413.513C235.218 401.494 234.975 381.106 213.127 368.114C191.279 355.122 156.098 354.538 134.542 366.362Z" fill="#010958"/>
</g>
<path d="M141.693 375.704C141.693 386.896 148.31 394.779 151.425 403.732C148.886 404.706 146.096 404.809 143.493 404.024V404.024C141.705 394.697 141.1 385.182 141.693 375.704Z" fill="#0F1317"/>
<path d="M222.907 346.607C216.158 339.034 208.837 331.991 201.011 325.537C194.218 327.875 187.587 330.654 181.158 333.858L167.436 340.379C164.568 341.874 161.419 342.753 158.191 342.957C158.191 344.174 158.191 345.39 158.531 346.607C157.308 346.389 156.073 346.243 154.833 346.169C149.984 345.857 145.165 347.138 141.111 349.818C167.852 358.786 196.952 357.644 222.907 346.607V346.607Z" fill="#258E50"/>
<path d="M222.911 346.607C196.956 357.643 167.856 358.786 141.115 349.818C139.892 350.627 138.78 351.592 137.806 352.689C127.588 364.562 116.883 395.752 143.353 404.024C146.671 405.221 149.813 406.858 152.696 408.89C154.339 410.469 156.169 411.842 158.146 412.977C164.62 416.381 172.127 417.265 179.215 415.459C183.062 414.58 186.8 413.274 190.358 411.566C194.915 409.238 199.32 406.621 203.544 403.732C216.531 395.702 230.058 388.581 244.029 382.42C239.624 369.113 232.423 356.902 222.911 346.607V346.607Z" fill="#27AE60"/>
<path d="M244.027 382.371C253.369 378.04 259.792 374.926 262.371 371.034C268.162 362.372 269.038 349.624 257.943 344.952C256.863 344.429 255.822 343.827 254.829 343.152C244.592 344.053 234.45 345.828 224.515 348.456C233.266 358.311 239.906 369.853 244.027 382.371V382.371Z" fill="#F3A984"/>
<path d="M207.871 323.542C205.471 324.088 203.1 324.754 200.767 325.537C209.33 332.475 217.275 340.143 224.512 348.456C234.448 345.828 244.589 344.053 254.827 343.152C247.431 338.286 232.054 326.218 223.296 323.396C218.237 322.034 212.902 322.085 207.871 323.542V323.542Z" fill="#DB9272"/>
<path d="M172.886 259.75C166.658 255.857 160.381 252.062 153.909 248.656C152.839 248.072 148.216 245.396 147.048 244.569C145.096 243.186 142.864 242.248 140.511 241.819C138.157 241.39 135.738 241.482 133.424 242.087C125.444 245.006 126.417 254.933 125.93 261.551C125.264 270.123 125.971 278.747 128.023 287.097C128.023 288.118 128.509 289.14 128.801 290.113C130.407 295.709 132.597 301.11 134.494 306.658C135.954 310.972 137.219 315.351 138.29 319.795C138.29 320.963 138.825 322.131 139.068 323.25C146.555 331.465 156.073 337.562 166.666 340.928C177.258 344.293 188.55 344.809 199.405 342.422C199.405 341.935 199.405 341.4 199.405 340.865C199.746 336.792 200.43 332.755 201.449 328.797C202.009 326.767 202.725 324.782 203.59 322.861C204.369 321.012 205.585 319.601 206.51 317.995C210.338 310.899 211.246 302.589 209.04 294.833C202.763 272.937 184.37 266.952 172.886 259.75Z" fill="#6FCF97"/>
<path d="M199.017 349.769C199.017 347.336 199.017 344.903 199.358 342.422C188.503 344.808 177.211 344.293 166.618 340.927C156.026 337.562 146.507 331.465 139.021 323.25C139.866 326.966 140.161 330.786 139.896 334.588C152.937 356.192 174.98 357.068 199.017 349.769Z" fill="#FFBFA2"/>
<path d="M199.018 349.77C174.98 357.068 152.938 356.193 139.897 334.588C139.751 336.241 139.424 337.872 138.924 339.454C136.978 345.439 132.16 350.84 132.696 357.458C132.939 359.451 133.581 361.374 134.584 363.113C135.588 364.852 136.931 366.371 138.535 367.579C141.768 369.949 145.368 371.774 149.191 372.98C160.479 377.474 172.647 379.322 184.761 378.381C187.331 378.349 189.864 377.758 192.183 376.649C194.502 375.54 196.552 373.939 198.191 371.958C200.431 367.746 200.971 362.835 199.699 358.236C199.258 355.435 199.031 352.605 199.018 349.77V349.77Z" fill="#6FCF97"/>
<path d="M185.148 336.096C184.759 338.675 184.321 340.962 183.883 343.638C189.069 343.762 194.254 343.354 199.357 342.422C199.357 341.935 199.357 341.4 199.357 340.913C199.693 336.824 200.377 332.771 201.4 328.797C201.96 326.766 202.676 324.782 203.541 322.861C204.32 321.012 205.536 319.601 206.461 317.995C210.289 310.899 211.197 302.589 208.991 294.833C207.655 290.176 205.532 285.782 202.714 281.841C194.491 278.533 185.635 275.37 177.655 279.116C172.789 281.549 173.373 288.313 173.956 293.714C176.681 308.458 186.997 320.72 185.148 336.096Z" fill="#27AE60"/>
<path d="M199.356 342.422C194.253 343.354 189.068 343.762 183.883 343.638C183.347 346.947 182.763 350.207 182.131 353.37C187.857 352.639 193.508 351.401 199.016 349.672C199.016 347.337 199.162 344.855 199.356 342.422Z" fill="#F3A984"/>
<path d="M199.017 349.77C193.509 351.498 187.859 352.736 182.132 353.468C180.542 362.017 178.512 370.479 176.05 378.819C178.956 378.941 181.868 378.843 184.76 378.527C187.33 378.495 189.863 377.904 192.182 376.795C194.501 375.686 196.551 374.085 198.19 372.104C200.43 367.892 200.97 362.981 199.698 358.382C199.25 355.533 199.022 352.654 199.017 349.77Z" fill="#27AE60"/>
<path d="M207.677 340.573C215.723 338.385 223.569 335.521 231.131 332.009C230.06 329.43 228.211 327.143 227.043 324.71C221.934 315.27 216.874 305.831 212.202 296.196C203.59 278.338 187.873 269.871 181.45 274.737C170.015 283.593 176.584 293.325 193.663 319.406C197.747 326.834 202.434 333.913 207.677 340.573V340.573Z" fill="#FFBFA2"/>
<path d="M173.468 250.116L174.052 250.651C174.208 249.222 174.535 247.817 175.025 246.466C169.77 246.807 164.564 244.617 159.357 236.296L146.317 232.744C146.317 235.372 146.317 238.048 145.976 240.676C145.988 242.878 145.626 245.066 144.906 247.147C143.932 249.532 142.667 250.7 142.862 253.376C143.177 256.186 144.428 258.808 146.414 260.821C150.084 264.798 154.923 267.508 160.233 268.557C163.894 269.377 167.725 268.913 171.084 267.244C175.658 264.713 174.344 261.259 174.004 256.733C173.858 254.708 173.858 252.676 174.004 250.651L173.468 250.116Z" fill="#FFBFA2"/>
<path d="M175.025 246.467C175.674 244.649 176.703 242.991 178.042 241.601L159.356 236.735C164.563 244.715 169.769 246.807 175.025 246.467Z" fill="#DB9272"/>
<path d="M187.242 195.618C189.034 197.604 190.246 200.045 190.745 202.673C191.572 207.831 189.821 212.94 190.404 218.05C190.185 223.064 189.099 228.003 187.193 232.647C186.99 234.071 186.506 235.44 185.772 236.676C185.037 237.912 184.064 238.99 182.911 239.849C181.403 240.627 179.553 240.627 178.045 241.552C177.216 242.193 176.421 242.875 175.661 243.596C173.179 245.493 168.654 244.52 165.929 244.179C162.931 243.866 159.996 243.111 157.219 241.941C152.415 239.145 148.501 235.045 145.93 230.117C121.357 192.358 170.649 175.959 187.242 195.618Z" fill="#FFBFA2"/>
<path d="M140.97 190.606C141.422 189.509 141.993 188.464 142.673 187.492C145.897 183.38 150.214 180.259 155.13 178.49C161.202 176.387 167.739 176.016 174.01 177.419C175.283 177.644 176.524 178.02 177.708 178.538C179.932 179.68 181.967 181.157 183.742 182.918C186.05 184.603 188.113 186.601 189.873 188.854C191.376 191.231 192.2 193.974 192.257 196.786C192.125 197.987 191.671 199.13 190.943 200.094C190.464 200.863 189.927 201.595 189.337 202.284C187.716 204.886 186.471 207.703 185.639 210.653C185.26 211.874 184.553 212.968 183.596 213.816C181.503 215.227 178.73 213.816 176.248 214.692C174.885 215.216 173.76 216.219 173.085 217.514C172.463 218.837 171.99 220.224 171.674 221.65C171.252 223.721 170.976 225.818 170.847 227.927C170.681 230.207 169.852 232.389 168.463 234.204C165.008 238.048 158.293 237.903 153.865 236.978C152.198 236.678 150.568 236.205 148.999 235.567C141.068 231.869 136.348 220.969 135.423 212.843C135.245 210.983 135.164 209.116 135.18 207.247C135.128 205.268 135.325 203.29 135.764 201.36C136.644 198.53 137.957 195.855 139.657 193.428C140.164 192.521 140.603 191.578 140.97 190.606V190.606Z" fill="#4F4F4F"/>
<path d="M204.661 331.474C200.622 337.507 214.88 346.753 218.967 346.461C223.054 346.169 222.616 346.461 225.39 344.125C238.214 333.978 249.08 321.578 257.456 307.533C260.568 304.278 264.028 301.374 267.772 298.872C263.955 295.863 259.828 293.27 255.461 291.135C249.233 302.23 205.878 329.868 204.661 331.474Z" fill="#FFBFA2"/>
<path d="M291.074 273.229C290.539 272.061 288.398 273.229 288.203 271.38C288.009 269.531 290.344 267.925 287.765 267.876C286.498 268.056 285.266 268.433 284.116 268.995C283.859 269.15 283.564 269.231 283.264 269.231C282.964 269.231 282.67 269.15 282.413 268.995C282.204 268.781 282.009 268.553 281.829 268.314C281.609 268.181 281.356 268.111 281.099 268.111C280.842 268.111 280.589 268.181 280.369 268.314C279.813 268.426 279.294 268.677 278.861 269.044L273.995 273.18C272.681 274.202 270.881 276.44 269.129 276.294C269.129 276.294 268.788 276.294 268.691 276.294C268.663 276.166 268.663 276.033 268.691 275.905V273.423C268.213 273.271 267.705 273.24 267.212 273.334C266.719 273.427 266.258 273.642 265.869 273.959C262.099 276.771 259.24 280.629 257.645 285.053C257.033 286.413 256.623 287.856 256.429 289.335C256.296 290.042 256.032 290.719 255.65 291.33C260.017 293.465 264.144 296.058 267.961 299.067L270.005 297.704C275.844 294.009 281.466 289.98 286.841 285.637C287.237 285.412 287.542 285.055 287.702 284.628C287.862 284.201 287.867 283.731 287.717 283.301C287.717 282.425 287.717 281.16 286.306 281.16C286.014 281.16 285.576 281.16 285.478 281.16C285.43 281.035 285.43 280.896 285.478 280.771C286.354 278.484 288.301 277.413 290.344 275.905C290.685 274.932 291.512 273.91 291.074 273.229Z" fill="#FFBFA2"/>
<path d="M173.953 177.468C173.73 177.22 173.444 177.035 173.126 176.933C169.431 175.832 165.631 175.114 161.789 174.792C157.798 174.345 153.758 174.819 149.979 176.177C146.2 177.535 142.783 179.741 139.989 182.626C134.702 189.381 131.566 197.569 130.988 206.128C130.645 209.036 130.793 211.98 131.425 214.838C131.661 216.339 132.155 217.788 132.885 219.12C133.664 220.288 134.686 221.358 135.464 222.526C136.243 223.694 137.702 226.03 138.773 227.781C139.843 229.533 140.865 231.382 141.79 233.231C142.277 234.744 142.862 236.223 143.542 237.659C143.542 237.659 146.072 241.649 142.86 244.034C143.396 243.644 145.439 244.034 146.169 243.596C147.125 243.325 148.029 242.897 148.845 242.331C149.332 241.893 150.938 239.606 151.084 241.406C151.084 241.99 150.597 242.428 150.159 242.768C152.565 243.152 155.026 242.988 157.36 242.288C159.693 241.589 161.839 240.373 163.638 238.73C163.638 238.73 172.834 233.864 171.764 231.285C172.229 231.846 172.833 232.276 173.516 232.532C174.199 232.788 174.937 232.862 175.657 232.745C174.012 231.499 172.77 229.796 172.087 227.849C171.403 225.902 171.308 223.797 171.812 221.796C173.71 214.935 187.383 214.108 181.982 200.63C180.62 196.494 179.209 192.406 177.798 188.27C177.116 186.178 176.386 184.086 175.705 181.945C175.365 180.368 174.774 178.857 173.953 177.468V177.468Z" fill="#4F4F4F"/>
<path d="M130.942 203.111C132.062 215.908 167.972 225.981 179.601 219.071C183.202 216.93 187.922 218.147 191.961 217.028C193.279 216.735 194.522 216.172 195.61 215.373C196.16 214.989 196.602 214.469 196.892 213.863C197.182 213.258 197.31 212.588 197.265 211.918C197.021 209.923 196.194 209.875 193.859 210.507C188.918 211.271 184.039 212.394 179.261 213.865C154.055 222.623 128.607 203.549 132.597 197.126" fill="#37404A"/>
<path d="M173.474 213.038C168.608 213.038 168.073 218.877 171.576 223.061C172.813 224.263 174.166 225.339 175.615 226.273C184.422 232.647 185.882 224.91 183.109 222.721C176.686 217.612 179.313 212.989 173.474 213.038Z" fill="#FFBFA2"/>
<path d="M175.51 221.65C174.926 221.164 169.477 218.487 172.883 216.103C173.807 215.422 174.975 216.103 175.218 217.271C175.462 218.439 175.218 218.39 175.218 218.925C175.325 219.235 175.472 219.53 175.656 219.801C176.192 220.531 177.846 221.115 177.603 222.234C177.359 223.353 175.851 221.894 175.51 221.65Z" fill="#F3A984"/>
<defs>
<linearGradient id="paint0_linear" x1="384.117" y1="210.994" x2="384.117" y2="279.798" gradientUnits="userSpaceOnUse">
<stop stop-color="#1F0159"/>
<stop offset="0.17" stop-color="#1A2B79"/>
<stop offset="0.58" stop-color="#0F8AC0"/>
<stop offset="0.86" stop-color="#08C5EE"/>
<stop offset="1" stop-color="#05DCFF"/>
</linearGradient>
</defs>
</svg>
