<?xml version="1.0" standalone="no"?>
<!DOCTYPE svg PUBLIC "-//W3C//DTD SVG 20010904//EN"
 "http://www.w3.org/TR/2001/REC-SVG-20010904/DTD/svg10.dtd">
<svg version="1.0" xmlns="http://www.w3.org/2000/svg"
 width="1667.000000pt" height="313.000000pt" viewBox="0 0 1667.000000 313.000000"
 preserveAspectRatio="xMidYMid meet">

<g transform="translate(0.000000,313.000000) scale(0.100000,-0.100000)"
fill="#000000" stroke="none">
<path d="M7586 2874 c-3 -9 -6 -42 -6 -75 0 -46 3 -59 15 -59 12 0 15 14 15
65 l0 65 66 0 c41 0 63 4 59 10 -3 6 -37 10 -75 10 -53 0 -69 -4 -74 -16z"/>
<path d="M7840 2718 c-122 -62 -122 -271 0 -335 39 -21 57 -23 176 -23 l134 0
6 26 c4 14 3 29 -2 34 -5 5 -71 10 -146 12 -133 3 -138 4 -164 29 -48 48 -42
145 12 190 14 11 89 15 403 19 361 5 386 6 389 23 9 46 3 47 -392 47 -366 0
-372 0 -416 -22z"/>
<path d="M8217 2434 c-14 -4 -17 -14 -15 -37 l3 -32 161 -5 c182 -6 194 -10
215 -80 14 -47 -2 -101 -38 -130 -25 -19 -40 -20 -410 -20 l-384 0 3 -37 3
-38 385 0 c435 0 426 -1 478 77 23 36 27 52 27 113 0 61 -4 77 -27 113 -45 67
-71 76 -238 78 -80 2 -153 0 -163 -2z"/>
<path d="M8790 1990 l0 -70 -60 0 c-35 0 -60 -4 -60 -10 0 -7 27 -10 73 -8
l72 3 3 78 c2 64 0 77 -13 77 -12 0 -15 -14 -15 -70z"/>
<path d="M880 1525 c0 -76 3 -95 14 -95 9 0 16 12 18 33 l3 32 20 -32 c10 -18
27 -33 37 -33 23 0 23 5 -3 41 l-20 29 21 28 c20 24 20 27 5 30 -10 2 -28 -8
-41 -25 l-23 -28 -1 58 c0 44 -3 57 -15 57 -12 0 -15 -17 -15 -95z"/>
<path d="M1750 1525 c0 -88 1 -95 20 -95 19 0 20 7 20 95 0 88 -1 95 -20 95
-19 0 -20 -7 -20 -95z"/>
<path d="M2040 1585 c0 -32 -2 -35 -24 -29 -52 13 -89 -72 -48 -109 22 -20 43
-22 60 -5 9 9 12 9 12 0 0 -7 9 -12 20 -12 19 0 20 7 20 95 0 88 -1 95 -20 95
-16 0 -20 -7 -20 -35z m-5 -90 c0 -23 -5 -31 -22 -33 -19 -3 -23 1 -23 26 0
33 8 44 30 40 9 -2 15 -14 15 -33z"/>
<path d="M390 1592 c-32 -26 -22 -63 25 -85 45 -22 41 -42 -9 -41 -42 1 -51
-22 -11 -32 88 -22 124 60 45 101 -43 22 -40 48 5 43 28 -3 35 -1 33 11 -5 24
-60 26 -88 3z"/>
<path d="M1090 1520 c0 -83 1 -90 20 -90 17 0 20 7 20 43 l0 42 28 -42 c19
-30 34 -43 50 -43 23 0 23 0 -8 44 -16 25 -30 48 -30 52 0 4 11 22 25 40 30
39 31 44 6 44 -12 0 -29 -16 -45 -42 l-25 -43 -1 43 c0 35 -3 42 -20 42 -19 0
-20 -7 -20 -90z"/>
<path d="M2495 1585 c-37 -36 -35 -105 2 -135 34 -27 89 -22 116 11 44 54 4
149 -63 149 -19 0 -40 -9 -55 -25z m85 -21 c18 -21 17 -72 -2 -91 -25 -25 -65
-10 -73 27 -13 58 42 104 75 64z"/>
<path d="M3200 1603 c-20 -8 -30 -24 -30 -51 0 -16 10 -27 35 -39 58 -28 51
-62 -11 -50 -19 3 -24 1 -22 -12 4 -20 45 -26 81 -12 21 8 27 17 27 41 0 24
-7 35 -35 51 -46 28 -46 49 1 49 24 0 34 4 32 13 -5 13 -54 20 -78 10z"/>
<path d="M533 1593 c-7 -3 -13 -11 -13 -19 0 -8 -4 -14 -10 -14 -5 0 -10 -7
-10 -15 0 -8 5 -15 10 -15 6 0 10 -17 10 -38 0 -41 14 -62 42 -62 22 0 24 26
3 34 -9 3 -15 18 -15 36 0 20 5 30 15 30 8 0 15 7 15 15 0 8 -6 15 -14 15 -8
0 -16 8 -18 18 -2 11 -9 17 -15 15z"/>
<path d="M622 1544 c-15 -10 -22 -25 -22 -49 0 -63 71 -87 110 -38 49 63 -22
133 -88 87z m63 -49 c0 -25 -4 -30 -25 -30 -16 0 -26 6 -28 18 -6 30 6 49 30
45 18 -2 23 -9 23 -33z"/>
<path d="M771 1541 c-42 -42 -10 -116 46 -109 37 4 41 26 6 30 -24 3 -28 8
-28 33 0 25 4 30 28 33 35 4 31 26 -6 30 -16 2 -34 -5 -46 -17z"/>
<path d="M1250 1495 c0 -51 3 -65 15 -65 11 0 15 11 15 38 0 45 13 67 34 59
11 -5 16 -19 16 -52 0 -38 3 -45 20 -45 16 0 20 7 20 38 0 77 -25 106 -70 82
-13 -7 -20 -7 -20 0 0 5 -7 10 -15 10 -12 0 -15 -14 -15 -65z"/>
<path d="M1410 1540 c-58 -58 20 -142 88 -94 15 10 22 25 22 49 0 58 -69 86
-110 45z m75 -29 c9 -29 -5 -52 -29 -49 -37 5 -34 68 3 68 11 0 22 -8 26 -19z"/>
<path d="M1544 1543 c3 -10 10 -39 17 -65 15 -64 43 -66 60 -5 l12 42 12 -40
c8 -28 17 -40 31 -40 15 0 22 14 36 63 13 50 14 62 3 62 -13 0 -16 -5 -30 -65
-8 -30 -8 -30 -19 15 -17 64 -41 65 -59 3 l-14 -48 -9 45 c-7 31 -15 46 -28
48 -13 3 -17 -1 -12 -15z"/>
<path d="M1842 1543 c-21 -18 -25 -31 -23 -71 1 -28 40 -47 75 -38 36 9 33 24
-6 28 -49 5 -48 28 1 28 33 0 41 4 41 18 0 22 -30 52 -52 52 -9 0 -25 -8 -36
-17z m53 -23 c4 -6 -5 -10 -20 -10 -15 0 -24 4 -20 10 3 6 12 10 20 10 8 0 17
-4 20 -10z"/>
<path d="M2132 1551 c-6 -3 -15 -19 -21 -34 -21 -54 22 -102 69 -77 23 12 25
8 10 -21 -7 -12 -21 -19 -41 -19 -20 0 -29 -4 -27 -12 7 -22 53 -20 81 2 25
20 27 27 27 94 l0 73 -43 0 c-24 1 -49 -2 -55 -6z m63 -40 c9 -29 -5 -52 -29
-49 -37 5 -34 68 3 68 11 0 22 -8 26 -19z"/>
<path d="M2279 1539 c-46 -46 0 -121 64 -105 37 9 34 24 -5 28 -49 5 -48 28 2
28 38 0 41 2 35 23 -15 48 -61 61 -96 26z m61 -19 c0 -5 -9 -10 -20 -10 -11 0
-20 5 -20 10 0 6 9 10 20 10 11 0 20 -4 20 -10z"/>
<path d="M2660 1465 c0 -88 1 -95 20 -95 16 0 20 7 20 36 0 31 3 35 20 29 49
-16 87 52 56 100 -18 27 -45 32 -64 13 -9 -9 -12 -9 -12 0 0 7 -9 12 -20 12
-19 0 -20 -7 -20 -95z m85 30 c0 -23 -4 -30 -20 -30 -21 0 -31 25 -21 51 11
28 41 12 41 -21z"/>
<path d="M2829 1539 c-46 -46 0 -121 64 -105 37 9 34 24 -5 28 -49 5 -48 28 2
28 38 0 41 2 35 23 -15 48 -61 61 -96 26z m61 -19 c0 -5 -9 -10 -20 -10 -11 0
-20 5 -20 10 0 6 9 10 20 10 11 0 20 -4 20 -10z"/>
<path d="M2950 1495 c0 -58 2 -65 19 -65 17 0 20 8 23 47 2 36 7 49 21 51 14
3 17 -4 17 -47 0 -45 3 -51 20 -51 19 0 21 5 18 56 -3 66 -23 88 -58 66 -12
-7 -20 -8 -20 -2 0 5 -9 10 -20 10 -18 0 -20 -7 -20 -65z"/>
<path d="M3330 1542 c-43 -35 -15 -112 40 -112 23 0 57 29 64 56 8 28 -28 74
-59 74 -12 0 -33 -8 -45 -18z m65 -47 c0 -25 -4 -30 -25 -30 -16 0 -26 6 -28
18 -6 30 6 49 30 45 18 -2 23 -9 23 -33z"/>
<path d="M3460 1511 c0 -67 35 -102 68 -69 9 9 12 9 12 0 0 -7 9 -12 20 -12
18 0 20 7 20 65 0 58 -2 65 -20 65 -17 0 -20 -7 -20 -50 0 -43 -3 -50 -20 -50
-17 0 -20 7 -20 50 0 43 -3 50 -20 50 -17 0 -20 -7 -20 -49z"/>
<path d="M3620 1495 c0 -51 3 -65 15 -65 10 0 15 10 15 34 0 47 9 66 31 66 21
0 25 15 9 25 -6 4 -17 1 -25 -5 -11 -9 -15 -9 -15 -1 0 6 -7 11 -15 11 -12 0
-15 -14 -15 -65z"/>
<path d="M3733 1545 c-33 -23 -32 -79 1 -101 28 -17 67 -16 74 4 2 8 -7 12
-26 12 -22 0 -32 6 -37 20 -9 27 11 50 42 50 15 0 23 5 21 13 -7 18 -50 20
-75 2z"/>
<path d="M3852 1544 c-49 -34 -16 -119 44 -112 40 4 42 26 3 30 -50 5 -49 28
0 28 34 0 41 3 41 19 0 24 -26 51 -48 51 -10 0 -28 -7 -40 -16z m58 -24 c0 -5
-12 -10 -26 -10 -14 0 -23 4 -19 10 3 6 15 10 26 10 10 0 19 -4 19 -10z"/>
<path d="M710 1070 c0 -5 5 -10 10 -10 6 0 10 5 10 10 0 6 -4 10 -10 10 -5 0
-10 -4 -10 -10z"/>
<path d="M2753 1005 c0 -44 2 -61 4 -37 2 23 2 59 0 80 -2 20 -4 1 -4 -43z"/>
<path d="M3330 1070 c0 -5 5 -10 10 -10 6 0 10 5 10 10 0 6 -4 10 -10 10 -5 0
-10 -4 -10 -10z"/>
<path d="M3952 1010 l-2 -76 32 1 c39 0 63 36 47 67 -13 24 -37 34 -50 21 -6
-6 -2 -9 13 -9 19 1 24 -5 26 -30 2 -21 -2 -33 -12 -37 -34 -13 -45 3 -49 71
l-3 67 -2 -75z"/>
<path d="M4260 1070 c0 -5 5 -10 10 -10 6 0 10 5 10 10 0 6 -4 10 -10 10 -5 0
-10 -4 -10 -10z"/>
<path d="M6160 1005 c0 -43 4 -75 10 -75 6 0 10 10 10 22 l0 21 25 -23 c14
-13 27 -21 30 -18 3 2 -4 13 -15 23 -25 22 -25 32 -3 59 13 15 10 14 -10 -3
l-27 -24 0 46 c0 26 -4 47 -10 47 -6 0 -10 -32 -10 -75z"/>
<path d="M7093 1005 c0 -44 2 -61 4 -37 2 23 2 59 0 80 -2 20 -4 1 -4 -43z"/>
<path d="M7433 1005 c0 -44 2 -61 4 -37 2 23 2 59 0 80 -2 20 -4 1 -4 -43z"/>
<path d="M7710 1070 c0 -5 5 -10 10 -10 6 0 10 5 10 10 0 6 -4 10 -10 10 -5 0
-10 -4 -10 -10z"/>
<path d="M7963 1005 c0 -44 2 -61 4 -37 2 23 2 59 0 80 -2 20 -4 1 -4 -43z"/>
<path d="M8937 1073 c-4 -3 -7 -15 -7 -25 0 -10 -6 -18 -12 -18 -10 0 -10 -2
-1 -8 6 -4 13 -28 16 -52 l4 -45 1 47 c1 26 7 49 15 51 10 4 10 6 0 6 -19 1
-16 28 5 40 14 9 15 10 1 11 -9 0 -19 -3 -22 -7z"/>
<path d="M9770 1051 c0 -24 -3 -28 -23 -24 -13 3 -29 -2 -36 -11 -29 -35 11
-110 41 -77 8 8 8 11 1 7 -35 -19 -60 37 -28 64 26 21 45 4 45 -40 0 -22 5
-40 10 -40 6 0 10 32 10 75 0 43 -4 75 -10 75 -5 0 -10 -13 -10 -29z"/>
<path d="M10562 1068 c-7 -7 -12 -18 -12 -25 0 -7 -6 -13 -12 -13 -10 0 -10
-2 -1 -8 6 -4 13 -28 16 -52 l4 -45 1 47 c2 35 6 48 20 51 16 4 16 5 0 6 -10
0 -18 8 -18 16 0 7 8 19 18 24 9 6 12 11 7 11 -6 0 -16 -5 -23 -12z"/>
<path d="M10622 1068 c-13 -16 -15 -30 -13 -90 1 -60 21 -64 21 -4 0 26 5 46
13 49 10 4 10 6 0 6 -7 1 -13 10 -13 20 0 11 6 22 13 24 7 4 8 6 1 6 -6 1 -16
-5 -22 -11z"/>
<path d="M11423 1005 c0 -44 2 -63 4 -43 5 44 26 66 47 48 8 -6 17 -28 19 -48
l4 -37 1 41 c2 50 -19 75 -48 56 -17 -10 -19 -8 -23 26 -2 20 -4 1 -4 -43z"/>
<path d="M12590 1070 c0 -5 5 -10 10 -10 6 0 10 5 10 10 0 6 -4 10 -10 10 -5
0 -10 -4 -10 -10z"/>
<path d="M12740 1005 c0 -43 4 -75 10 -75 6 0 10 32 10 75 0 43 -4 75 -10 75
-6 0 -10 -32 -10 -75z"/>
<path d="M13093 1005 c0 -44 2 -61 4 -37 2 23 2 59 0 80 -2 20 -4 1 -4 -43z"/>
<path d="M13143 1005 c0 -44 2 -61 4 -37 2 23 2 59 0 80 -2 20 -4 1 -4 -43z"/>
<path d="M13610 1049 c0 -26 -3 -29 -20 -24 -29 9 -50 -12 -50 -51 0 -24 5
-34 21 -39 12 -4 25 -3 30 2 6 6 1 9 -13 9 -19 -1 -24 5 -26 30 -2 21 2 33 12
37 29 11 45 -4 49 -46 2 -24 4 -9 5 36 1 42 0 77 -3 77 -3 0 -5 -14 -5 -31z"/>
<path d="M13960 1005 c0 -43 4 -75 10 -75 6 0 10 32 10 75 0 43 -4 75 -10 75
-6 0 -10 -32 -10 -75z"/>
<path d="M14597 1073 c-4 -3 -7 -15 -7 -25 0 -10 -6 -18 -12 -18 -10 0 -10 -2
-1 -8 6 -4 13 -28 16 -52 l4 -45 1 47 c1 26 7 49 15 51 10 4 10 6 0 6 -19 1
-16 28 5 40 14 9 15 10 1 11 -9 0 -19 -3 -22 -7z"/>
<path d="M15660 1051 c0 -24 -3 -28 -23 -24 -13 3 -29 -2 -36 -11 -29 -35 11
-110 41 -77 8 8 8 11 1 7 -35 -19 -60 37 -28 64 26 21 45 4 45 -40 0 -22 5
-40 10 -40 6 0 10 32 10 75 0 43 -4 75 -10 75 -5 0 -10 -13 -10 -29z"/>
<path d="M15863 1005 c0 -44 2 -61 4 -37 2 23 2 59 0 80 -2 20 -4 1 -4 -43z"/>
<path d="M383 1000 c0 -41 2 -58 4 -37 4 35 6 37 39 37 32 0 34 -2 34 -35 0
-19 5 -35 10 -35 6 0 10 30 10 70 0 40 -4 70 -10 70 -5 0 -10 -13 -10 -30 0
-28 -3 -30 -34 -30 -32 0 -35 3 -39 33 -2 17 -4 -2 -4 -43z"/>
<path d="M2921 1048 c0 -10 -7 -18 -13 -18 -10 0 -10 -2 -1 -8 6 -4 13 -25 15
-46 2 -24 9 -41 18 -44 12 -4 13 -2 3 9 -20 20 -16 77 5 82 15 4 15 5 0 6 -9
0 -19 9 -21 19 -4 16 -5 16 -6 0z"/>
<path d="M6831 1048 c0 -10 -7 -18 -13 -18 -10 0 -10 -2 -1 -8 6 -4 13 -25 15
-46 2 -24 9 -41 18 -44 12 -4 13 -2 3 9 -20 20 -16 77 5 82 15 4 15 5 0 6 -9
0 -19 9 -21 19 -4 16 -5 16 -6 0z"/>
<path d="M9181 1048 c0 -10 -7 -18 -13 -18 -10 0 -10 -2 -1 -8 6 -4 13 -25 15
-46 2 -24 9 -41 18 -44 12 -4 13 -2 3 9 -20 20 -16 77 5 82 15 4 15 5 0 6 -9
0 -19 9 -21 19 -4 16 -5 16 -6 0z"/>
<path d="M11141 1048 c0 -10 -7 -18 -13 -18 -10 0 -10 -2 -1 -8 6 -4 13 -25
15 -46 2 -24 9 -41 18 -44 12 -4 13 -2 3 9 -20 20 -16 77 5 82 15 4 15 5 0 6
-9 0 -19 9 -21 19 -4 16 -5 16 -6 0z"/>
<path d="M12239 1038 c-5 -61 8 -108 29 -107 11 0 12 3 5 6 -16 6 -17 83 -2
83 6 0 4 7 -5 15 -18 18 -26 19 -27 3z"/>
<path d="M12528 1040 c-2 -7 -1 -33 2 -58 4 -37 9 -47 25 -50 18 -2 18 -2 3 8
-12 7 -18 23 -18 45 0 26 4 35 18 36 13 0 14 2 2 6 -8 3 -18 10 -21 16 -4 5
-8 4 -11 -3z"/>
<path d="M15789 1038 c-5 -61 8 -108 29 -107 11 0 12 3 5 6 -16 6 -17 83 -2
83 6 0 4 7 -5 15 -18 18 -26 19 -27 3z"/>
<path d="M526 1021 c-4 -5 2 -7 13 -4 23 6 39 -16 20 -28 -11 -7 -11 -9 -1 -9
8 0 12 -9 10 -22 -2 -11 3 -23 10 -25 15 -6 17 50 2 78 -11 20 -45 26 -54 10z"/>
<path d="M610 1022 c0 -18 31 -92 39 -92 8 0 43 91 37 97 -2 2 -11 -15 -21
-39 l-17 -43 -14 39 c-15 42 -24 56 -24 38z"/>
<path d="M710 980 c0 -27 5 -50 10 -50 6 0 10 23 10 50 0 28 -4 50 -10 50 -5
0 -10 -22 -10 -50z"/>
<path d="M762 980 c0 -52 1 -53 8 -17 14 74 56 77 63 5 l4 -43 1 47 c2 39 -1
48 -18 53 -12 4 -27 2 -35 -5 -10 -8 -14 -8 -18 2 -3 7 -5 -12 -5 -42z"/>
<path d="M880 1015 c-28 -34 13 -108 42 -76 8 8 8 11 1 7 -35 -19 -60 37 -28
64 28 23 45 4 45 -48 0 -50 -9 -66 -45 -75 -12 -4 -9 -5 10 -4 37 2 55 34 55
98 0 45 0 46 -34 47 -19 1 -39 -5 -46 -13z"/>
<path d="M1074 1019 c-4 -7 0 -9 14 -5 24 8 41 -12 21 -25 -10 -6 -11 -9 -1
-9 17 0 15 -30 -4 -37 -23 -9 -43 15 -24 28 13 9 13 10 0 6 -8 -2 -15 -12 -15
-23 0 -15 8 -19 38 -21 36 -1 37 0 37 36 0 20 -5 42 -12 49 -15 15 -45 16 -54
1z"/>
<path d="M1172 980 c0 -52 1 -53 8 -17 14 74 56 77 63 5 l4 -43 1 47 c2 39 -1
48 -18 53 -12 4 -27 2 -35 -5 -10 -8 -14 -8 -18 2 -3 7 -5 -12 -5 -42z"/>
<path d="M1372 1018 c-7 -7 -12 -24 -12 -38 0 -30 16 -50 41 -50 23 0 49 27
49 50 0 39 -52 64 -78 38z m56 -10 c28 -28 1 -75 -38 -63 -14 4 -20 15 -20 35
0 37 33 53 58 28z"/>
<path d="M1483 955 c0 -44 2 -66 4 -48 4 27 8 31 30 30 50 -4 63 72 17 90 -9
3 -20 1 -25 -4 -6 -6 -2 -9 13 -9 19 1 24 -5 26 -30 2 -21 -2 -33 -12 -37 -29
-11 -45 4 -49 46 -2 23 -4 6 -4 -38z"/>
<path d="M1602 1018 c-7 -7 -12 -24 -12 -38 0 -32 17 -50 45 -49 16 0 15 2 -7
11 -41 14 -36 38 7 38 22 0 35 5 35 13 0 18 -21 37 -40 37 -9 0 -21 -5 -28
-12z m48 -13 c11 -13 8 -15 -19 -15 -31 0 -42 14 -18 23 20 9 24 8 37 -8z"/>
<path d="M1702 980 c1 -39 2 -44 5 -18 8 73 58 73 66 0 l4 -37 1 41 c2 50 -19
75 -48 56 -14 -9 -20 -8 -23 1 -3 7 -5 -13 -5 -43z"/>
<path d="M1889 1014 c-11 -14 -10 -18 6 -30 10 -8 22 -14 27 -14 4 0 8 -7 8
-16 0 -12 -7 -15 -26 -11 -16 3 -22 1 -16 -5 16 -16 47 -4 50 19 2 14 -3 23
-17 28 -28 9 -28 39 -1 32 11 -3 20 -1 20 4 0 15 -37 10 -51 -7z"/>
<path d="M1988 1019 c-22 -13 -24 -62 -2 -79 25 -21 68 -1 72 33 6 48 -29 71
-70 46z m50 -11 c17 -17 15 -43 -4 -59 -31 -26 -70 25 -44 56 15 18 32 19 48
3z"/>
<path d="M2092 994 c-2 -50 19 -75 48 -56 14 9 20 8 23 -1 3 -7 5 13 5 43 -1
39 -2 44 -5 18 -5 -44 -26 -66 -47 -48 -8 6 -17 28 -19 48 l-4 37 -1 -41z"/>
<path d="M2200 979 c0 -27 5 -49 10 -49 6 0 10 18 10 40 0 26 6 42 17 48 13 8
11 10 -10 10 -26 0 -27 -3 -27 -49z"/>
<path d="M2288 1019 c-21 -12 -24 -59 -6 -77 14 -14 44 -16 52 -4 3 5 -4 8
-16 8 -11 -1 -25 7 -32 17 -15 23 4 52 33 51 11 0 21 3 21 8 0 11 -31 10 -52
-3z"/>
<path d="M2375 1014 c-25 -25 -15 -67 18 -78 19 -7 31 -6 38 1 9 9 6 10 -10 6
-21 -5 -51 11 -51 28 0 5 16 9 35 9 36 0 46 15 23 38 -16 16 -34 15 -53 -4z
m53 -11 c2 -9 -7 -13 -28 -13 -28 0 -31 2 -20 15 15 18 41 16 48 -2z"/>
<path d="M2549 1014 c-11 -14 -10 -18 5 -30 10 -7 23 -15 29 -17 19 -6 -5 -29
-26 -23 -14 3 -17 2 -9 -6 13 -13 52 -1 52 17 0 7 -11 20 -25 29 -28 19 -24
41 6 33 11 -3 19 -1 19 4 0 15 -37 10 -51 -7z"/>
<path d="M2642 1018 c-7 -7 -12 -24 -12 -38 0 -30 16 -50 41 -50 23 0 49 27
49 50 0 39 -52 64 -78 38z m56 -10 c28 -28 1 -75 -38 -63 -14 4 -20 15 -20 35
0 37 33 53 58 28z"/>
<path d="M2804 985 c1 -42 4 -50 21 -53 18 -4 19 -3 3 10 -9 7 -19 31 -21 53
-3 32 -4 30 -3 -10z"/>
<path d="M2858 984 c-2 -25 0 -48 4 -50 5 -3 8 18 8 45 0 64 -7 66 -12 5z"/>
<path d="M2983 980 c0 -30 2 -43 4 -27 2 15 2 39 0 55 -2 15 -4 2 -4 -28z"/>
<path d="M3036 1014 c-30 -30 -9 -84 33 -84 25 0 41 20 41 50 0 47 -42 66 -74
34z m48 0 c24 -9 21 -61 -4 -69 -39 -12 -66 35 -38 63 14 14 20 14 42 6z"/>
<path d="M3140 981 c0 -28 5 -51 10 -51 6 0 10 18 10 40 0 22 0 43 1 47 0 4
-4 9 -10 11 -7 2 -11 -15 -11 -47z"/>
<path d="M3192 1018 c9 -7 19 -31 21 -53 3 -32 4 -30 3 10 -1 42 -4 50 -21 53
-18 4 -19 3 -3 -10z"/>
<path d="M3330 980 c0 -27 5 -50 10 -50 6 0 10 23 10 50 0 28 -4 50 -10 50 -5
0 -10 -22 -10 -50z"/>
<path d="M3382 980 c0 -52 1 -53 8 -17 14 74 56 77 63 5 l4 -43 1 47 c2 39 -1
48 -18 53 -12 4 -27 2 -35 -5 -10 -8 -14 -8 -18 2 -3 7 -5 -12 -5 -42z"/>
<path d="M3582 1018 c-7 -7 -12 -24 -12 -38 0 -30 16 -50 41 -50 23 0 49 27
49 50 0 39 -52 64 -78 38z m56 -10 c28 -28 1 -75 -38 -63 -14 4 -20 15 -20 35
0 37 33 53 58 28z"/>
<path d="M3694 985 l1 -50 38 -2 37 -1 0 49 c0 60 -18 65 -22 7 -2 -35 -7 -43
-23 -43 -16 0 -21 9 -26 45 l-7 45 2 -50z"/>
<path d="M3801 980 l1 -55 9 45 c5 28 5 48 -1 54 -7 7 -10 -9 -9 -44z"/>
<path d="M4062 994 c-2 -50 19 -75 48 -56 14 9 20 8 23 -1 3 -7 5 13 5 43 -1
39 -2 44 -5 18 -5 -44 -26 -66 -47 -48 -8 6 -17 28 -19 48 l-4 37 -1 -41z"/>
<path d="M4179 1014 c-11 -14 -10 -18 6 -30 10 -8 22 -14 27 -14 4 0 8 -7 8
-16 0 -12 -7 -15 -26 -11 -16 3 -22 1 -16 -5 16 -16 47 -4 50 19 2 14 -3 23
-17 28 -28 9 -28 39 -1 32 11 -3 20 -1 20 4 0 15 -37 10 -51 -7z"/>
<path d="M4260 980 c0 -27 5 -50 10 -50 6 0 10 23 10 50 0 28 -4 50 -10 50 -5
0 -10 -22 -10 -50z"/>
<path d="M4312 980 c0 -52 1 -53 8 -17 14 74 56 77 63 5 l4 -43 1 47 c2 39 -1
48 -18 53 -12 4 -27 2 -35 -5 -10 -8 -14 -8 -18 2 -3 7 -5 -12 -5 -42z"/>
<path d="M4432 1018 c-7 -7 -12 -24 -12 -38 0 -32 17 -50 45 -49 16 0 15 2 -7
11 -41 14 -36 38 7 38 22 0 35 5 35 13 0 18 -21 37 -40 37 -9 0 -21 -5 -28
-12z m48 -13 c11 -13 8 -15 -19 -15 -31 0 -42 14 -18 23 20 9 24 8 37 -8z"/>
<path d="M4529 1014 c-11 -14 -10 -18 6 -30 10 -8 22 -14 27 -14 4 0 8 -7 8
-16 0 -12 -7 -15 -26 -11 -16 3 -22 1 -16 -5 16 -16 47 -4 50 19 2 14 -3 23
-17 28 -28 9 -28 39 -1 32 11 -3 20 -1 20 4 0 15 -37 10 -51 -7z"/>
<path d="M4623 1023 c-21 -8 -15 -29 12 -47 28 -19 24 -41 -6 -33 -11 3 -19 1
-19 -4 0 -10 21 -12 44 -3 24 9 19 33 -9 46 -31 14 -32 26 -2 38 12 5 15 9 7
9 -8 -1 -21 -3 -27 -6z"/>
<path d="M4770 956 c0 -44 4 -76 10 -76 6 0 10 13 10 29 0 24 3 28 20 24 27
-7 50 14 50 46 0 30 -16 51 -39 51 -11 0 -9 -5 7 -16 25 -18 29 -46 7 -64 -26
-22 -47 -4 -43 37 2 22 -2 38 -10 41 -9 3 -12 -16 -12 -72z"/>
<path d="M4890 979 c0 -27 5 -49 10 -49 6 0 10 18 10 40 0 26 6 42 17 48 13 8
11 10 -10 10 -26 0 -27 -3 -27 -49z"/>
<path d="M4972 1018 c-7 -7 -12 -24 -12 -38 0 -30 16 -50 41 -50 23 0 49 27
49 50 0 39 -52 64 -78 38z m56 -10 c28 -28 1 -75 -38 -63 -14 4 -20 15 -20 35
0 37 33 53 58 28z"/>
<path d="M5085 1010 c-24 -26 -13 -68 21 -76 14 -4 28 -4 31 0 4 3 -3 6 -15 6
-24 0 -45 31 -36 54 3 8 18 19 32 25 23 8 24 10 6 10 -11 1 -29 -8 -39 -19z"/>
<path d="M5182 1018 c-7 -7 -12 -24 -12 -38 0 -14 5 -31 12 -38 15 -15 45 -15
54 0 4 7 3 8 -5 4 -16 -10 -51 3 -51 20 0 9 11 14 35 14 38 0 40 2 25 31 -12
21 -40 25 -58 7z m48 -13 c11 -13 8 -15 -19 -15 -30 0 -39 9 -24 23 11 11 30
8 43 -8z"/>
<path d="M5279 1014 c-11 -14 -10 -18 5 -30 10 -7 23 -15 29 -17 19 -6 -5 -29
-26 -23 -14 3 -17 2 -9 -6 13 -13 52 -1 52 17 0 7 -11 20 -25 29 -28 19 -24
41 6 33 11 -3 19 -1 19 4 0 15 -37 10 -51 -7z"/>
<path d="M5367 1023 c-15 -14 -6 -40 19 -51 28 -13 23 -37 -7 -29 -11 3 -19 1
-19 -4 0 -15 37 -10 51 7 11 14 10 18 -6 30 -10 8 -22 14 -27 14 -17 0 -7 21
15 30 21 8 21 9 1 9 -11 1 -24 -2 -27 -6z"/>
<path d="M5561 1021 c-2 -21 21 -91 30 -91 4 0 10 13 14 30 6 28 25 52 25 31
0 -5 5 -22 11 -38 8 -22 12 -24 19 -13 6 8 9 22 9 30 0 10 -3 8 -8 -5 -7 -17
-10 -14 -21 22 -14 47 -25 48 -35 3 -9 -40 -19 -38 -32 8 -6 20 -11 31 -12 23z"/>
<path d="M5673 1015 c-3 -9 -3 -18 -1 -21 3 -3 8 4 11 16 6 23 -1 27 -10 5z"/>
<path d="M5722 1018 c-7 -7 -12 -24 -12 -38 0 -14 5 -31 12 -38 15 -15 45 -15
54 0 4 7 3 8 -5 4 -16 -10 -51 3 -51 20 0 9 11 14 35 14 38 0 40 2 25 31 -12
21 -40 25 -58 7z m48 -13 c11 -13 8 -15 -19 -15 -30 0 -39 9 -24 23 11 11 30
8 43 -8z"/>
<path d="M5892 980 c0 -52 1 -53 8 -17 13 71 50 76 50 6 0 -21 5 -39 10 -39 6
0 10 18 10 40 0 27 5 43 15 47 22 8 28 -1 36 -50 l6 -42 2 41 c1 50 -20 74
-49 57 -13 -9 -20 -9 -29 0 -9 9 -16 9 -31 0 -14 -10 -20 -10 -23 0 -3 7 -5
-13 -5 -43z"/>
<path d="M6076 1022 c-3 -5 4 -8 16 -8 34 1 32 -22 -2 -29 -25 -5 -31 -11 -28
-28 2 -17 10 -22 36 -22 33 -1 33 -1 30 45 -3 37 -7 46 -25 48 -11 2 -24 -1
-27 -6z m44 -56 c0 -18 -31 -29 -44 -16 -8 8 -7 14 4 20 22 14 40 12 40 -4z"/>
<path d="M6272 1018 c-7 -7 -12 -24 -12 -38 0 -32 17 -50 45 -49 16 0 15 2 -7
11 -41 14 -36 38 7 38 22 0 35 5 35 13 0 18 -21 37 -40 37 -9 0 -21 -5 -28
-12z m48 -13 c11 -13 8 -15 -19 -15 -31 0 -42 14 -18 23 20 9 24 8 37 -8z"/>
<path d="M6456 1014 c-30 -30 -9 -84 33 -84 25 0 41 20 41 50 0 47 -42 66 -74
34z m48 0 c24 -9 21 -61 -4 -69 -39 -12 -66 35 -38 63 14 14 20 14 42 6z"/>
<path d="M6562 994 c-2 -50 19 -75 48 -56 14 9 20 8 23 -1 3 -7 5 13 5 43 -1
39 -2 44 -5 18 -2 -20 -11 -42 -19 -48 -21 -18 -42 4 -47 48 l-4 37 -1 -41z"/>
<path d="M6680 980 c0 -29 2 -51 4 -49 8 8 10 88 3 95 -4 4 -7 -17 -7 -46z"/>
<path d="M6896 1014 c-9 -8 -16 -24 -16 -34 0 -36 58 -68 74 -41 3 4 -5 6 -18
4 -17 -4 -27 1 -35 16 -11 20 -9 21 28 21 34 0 39 3 34 18 -13 34 -42 41 -67
16z m52 -11 c2 -8 -6 -13 -22 -13 -25 0 -33 10 -19 24 10 10 36 3 41 -11z"/>
<path d="M7008 1019 c-21 -12 -24 -59 -6 -77 14 -14 44 -16 52 -4 3 5 -4 8
-16 8 -11 -1 -25 7 -32 17 -15 23 4 52 33 51 11 0 21 3 21 8 0 11 -31 10 -52
-3z"/>
<path d="M7116 1021 c-3 -5 2 -8 12 -7 13 1 18 -8 20 -41 4 -49 22 -59 22 -12
0 52 -35 91 -54 60z"/>
<path d="M7202 980 c1 -39 2 -44 5 -18 8 73 58 73 66 0 l4 -37 1 41 c2 50 -19
75 -48 56 -14 -9 -20 -8 -23 1 -3 7 -5 -13 -5 -43z"/>
<path d="M7322 1018 c-7 -7 -12 -24 -12 -38 0 -30 16 -50 41 -50 23 0 49 27
49 50 0 39 -52 64 -78 38z m56 -10 c28 -28 1 -75 -38 -63 -14 4 -20 15 -20 35
0 37 33 53 58 28z"/>
<path d="M7486 1014 c-31 -30 -9 -84 34 -84 11 0 27 11 36 25 15 23 15 27 0
50 -19 29 -47 32 -70 9z m48 0 c35 -13 14 -74 -24 -74 -18 0 -31 39 -20 60 11
21 19 24 44 14z"/>
<path d="M7605 1014 c-35 -36 -7 -92 40 -80 44 11 25 -30 -21 -44 l-29 -8 27
-1 c42 -1 58 23 58 87 0 56 -1 57 -30 59 -16 1 -36 -5 -45 -13z m53 -6 c17
-17 15 -43 -4 -59 -31 -26 -70 25 -44 56 15 18 32 19 48 3z"/>
<path d="M7710 980 c0 -27 5 -50 10 -50 6 0 10 23 10 50 0 28 -4 50 -10 50 -5
0 -10 -22 -10 -50z"/>
<path d="M7778 1019 c-21 -12 -24 -59 -6 -77 7 -7 21 -12 33 -11 16 0 14 3 -8
11 -23 8 -28 15 -25 36 2 16 13 31 28 39 14 7 18 13 10 13 -8 -1 -23 -5 -32
-11z"/>
<path d="M7866 1022 c-3 -5 4 -8 16 -8 34 1 32 -22 -2 -29 -25 -5 -31 -11 -28
-28 2 -17 10 -22 36 -22 33 -1 33 -1 30 45 -3 37 -7 46 -25 48 -11 2 -24 -1
-27 -6z m44 -56 c0 -18 -31 -29 -44 -16 -8 8 -7 14 4 20 22 14 40 12 40 -4z"/>
<path d="M8082 955 c1 -44 3 -65 5 -47 4 28 7 31 27 26 15 -3 29 1 40 11 30
30 15 85 -23 85 -11 0 -8 -5 7 -16 26 -18 26 -51 0 -68 -14 -8 -22 -7 -35 6
-14 14 -15 22 -5 43 7 15 8 24 3 21 -5 -4 -12 0 -14 6 -3 7 -5 -23 -5 -67z"/>
<path d="M8200 980 c0 -29 2 -51 4 -49 8 8 10 88 3 95 -4 4 -7 -17 -7 -46z"/>
<path d="M8276 1014 c-30 -30 -9 -84 33 -84 25 0 41 20 41 50 0 47 -42 66 -74
34z m48 0 c24 -9 21 -61 -4 -69 -39 -12 -66 35 -38 63 14 14 20 14 42 6z"/>
<path d="M8390 1015 c-28 -34 13 -108 42 -76 8 8 8 11 1 7 -35 -19 -60 37 -28
64 28 23 45 4 45 -48 0 -50 -9 -66 -45 -75 -12 -4 -9 -5 10 -4 37 2 55 34 55
98 0 45 0 46 -34 47 -19 1 -39 -5 -46 -13z"/>
<path d="M8501 980 l1 -55 9 45 c5 28 5 48 -1 54 -7 7 -10 -9 -9 -44z"/>
<path d="M8582 1018 c-7 -7 -12 -24 -12 -38 0 -14 5 -31 12 -38 15 -15 45 -15
54 0 4 7 3 8 -5 4 -16 -10 -51 3 -51 20 0 9 11 14 35 14 38 0 40 2 25 31 -12
21 -40 25 -58 7z m48 -13 c11 -13 8 -15 -19 -15 -30 0 -39 9 -24 23 11 11 30
8 43 -8z"/>
<path d="M8679 1014 c-11 -14 -10 -18 5 -30 10 -7 23 -15 29 -17 19 -6 -5 -29
-26 -23 -14 3 -17 2 -9 -6 13 -13 52 -1 52 17 0 7 -11 20 -25 29 -28 19 -24
41 6 33 11 -3 19 -1 19 4 0 15 -37 10 -51 -7z"/>
<path d="M8767 1023 c-15 -14 -6 -40 19 -51 28 -13 23 -37 -7 -29 -11 3 -19 1
-19 -4 0 -15 37 -10 51 7 11 14 10 18 -6 30 -10 8 -22 14 -27 14 -17 0 -7 21
15 30 21 8 21 9 1 9 -11 1 -24 -2 -27 -6z"/>
<path d="M8996 1022 c-3 -5 4 -8 16 -8 34 1 32 -22 -2 -29 -25 -5 -31 -11 -28
-28 2 -17 10 -22 36 -22 33 -1 33 -1 30 45 -3 37 -7 46 -25 48 -11 2 -24 -1
-27 -6z m44 -56 c0 -18 -31 -29 -44 -16 -8 8 -7 14 4 20 22 14 40 12 40 -4z"/>
<path d="M9089 1014 c-11 -14 -10 -18 5 -30 10 -7 23 -15 29 -17 19 -6 -5 -29
-26 -23 -14 3 -17 2 -9 -6 13 -13 52 -1 52 17 0 7 -11 20 -25 29 -28 19 -24
41 6 33 11 -3 19 -1 19 4 0 15 -37 10 -51 -7z"/>
<path d="M9246 1014 c-9 -8 -16 -24 -16 -34 0 -36 58 -68 74 -41 3 4 -5 6 -18
4 -17 -4 -27 1 -35 16 -11 20 -9 21 28 21 34 0 39 3 34 18 -13 34 -42 41 -67
16z m52 -11 c2 -8 -6 -13 -22 -13 -25 0 -33 10 -19 24 10 10 36 3 41 -11z"/>
<path d="M9340 979 c0 -27 5 -49 10 -49 6 0 10 18 10 40 0 26 6 42 17 48 13 8
11 10 -10 10 -26 0 -27 -3 -27 -49z"/>
<path d="M9494 1019 c-4 -7 0 -9 14 -5 24 8 41 -12 21 -25 -10 -6 -11 -9 -1
-9 17 0 15 -30 -4 -37 -23 -9 -43 15 -24 28 13 9 13 10 0 6 -8 -2 -15 -12 -15
-23 0 -15 8 -19 38 -21 36 -1 37 0 37 36 0 20 -5 42 -12 49 -15 15 -45 16 -54
1z"/>
<path d="M9592 980 c0 -52 1 -53 8 -17 14 74 56 77 63 5 l4 -43 1 47 c2 39 -1
48 -18 53 -12 4 -27 2 -35 -5 -10 -8 -14 -8 -18 2 -3 7 -5 -12 -5 -42z"/>
<path d="M9902 980 c1 -39 2 -44 5 -18 4 38 25 64 43 53 5 -3 11 -25 12 -48
l1 -42 4 37 c8 70 53 76 53 7 0 -22 5 -39 11 -39 8 0 10 14 6 41 -7 52 -21 68
-46 52 -14 -9 -21 -9 -30 0 -9 9 -16 9 -31 0 -14 -10 -20 -10 -23 0 -3 7 -5
-13 -5 -43z"/>
<path d="M10082 1018 c-7 -7 -12 -24 -12 -38 0 -30 16 -50 41 -50 23 0 49 27
49 50 0 39 -52 64 -78 38z m56 -10 c28 -28 1 -75 -38 -63 -14 4 -20 15 -20 35
0 37 33 53 58 28z"/>
<path d="M10190 980 c0 -29 2 -51 4 -49 8 8 10 88 3 95 -4 4 -7 -17 -7 -46z"/>
<path d="M10265 1014 c-25 -25 -15 -67 18 -78 19 -7 31 -6 38 1 9 9 6 10 -10
6 -21 -5 -51 11 -51 28 0 5 16 9 35 9 36 0 46 15 23 38 -16 16 -34 15 -53 -4z
m53 -11 c2 -9 -7 -13 -28 -13 -28 0 -31 2 -20 15 15 18 41 16 48 -2z"/>
<path d="M10446 1014 c-9 -8 -16 -24 -16 -34 0 -36 58 -68 74 -41 3 4 -5 6
-18 4 -17 -4 -27 1 -35 16 -11 20 -9 21 28 21 34 0 39 3 34 18 -13 34 -42 41
-67 16z m52 -11 c2 -8 -6 -13 -22 -13 -25 0 -33 10 -19 24 10 10 36 3 41 -11z"/>
<path d="M10676 1014 c-9 -8 -16 -24 -16 -34 0 -36 58 -68 74 -41 3 4 -5 6
-18 4 -17 -4 -27 1 -35 16 -11 20 -9 21 28 21 34 0 39 3 34 18 -13 34 -42 41
-67 16z m52 -11 c2 -8 -6 -13 -22 -13 -25 0 -33 10 -19 24 10 10 36 3 41 -11z"/>
<path d="M10788 1019 c-21 -12 -24 -59 -6 -77 14 -14 44 -16 52 -4 3 5 -4 8
-16 8 -11 -1 -25 7 -32 17 -15 23 4 52 33 51 11 0 21 3 21 8 0 11 -31 10 -52
-3z"/>
<path d="M10873 980 c0 -30 2 -43 4 -27 2 15 2 39 0 55 -2 15 -4 2 -4 -28z"/>
<path d="M10922 1018 c-7 -7 -12 -24 -12 -38 0 -32 17 -50 45 -49 16 0 15 2
-7 11 -41 14 -36 38 7 38 22 0 35 5 35 13 0 18 -21 37 -40 37 -9 0 -21 -5 -28
-12z m48 -13 c11 -13 8 -15 -19 -15 -31 0 -42 14 -18 23 20 9 24 8 37 -8z"/>
<path d="M11022 980 c1 -39 2 -44 5 -18 8 73 58 73 66 0 l4 -37 1 41 c2 50
-19 75 -48 56 -14 -9 -20 -8 -23 1 -3 7 -5 -13 -5 -43z"/>
<path d="M11271 1021 c-2 -21 21 -91 30 -91 4 0 10 13 14 30 6 28 25 52 25 31
0 -5 5 -22 11 -38 8 -22 12 -24 19 -13 6 8 9 22 9 30 0 10 -3 8 -8 -5 -7 -17
-10 -14 -21 22 -14 47 -25 48 -35 3 -9 -40 -19 -38 -32 8 -6 20 -11 31 -12 23z"/>
<path d="M11383 1015 c-3 -9 -3 -18 -1 -21 3 -3 8 4 11 16 6 23 -1 27 -10 5z"/>
<path d="M11542 1018 c-7 -7 -12 -24 -12 -38 0 -32 17 -50 45 -49 16 0 15 2
-7 11 -41 14 -36 38 7 38 22 0 35 5 35 13 0 18 -21 37 -40 37 -9 0 -21 -5 -28
-12z m48 -13 c11 -13 8 -15 -19 -15 -31 0 -42 14 -18 23 20 9 24 8 37 -8z"/>
<path d="M11642 980 c1 -39 2 -44 5 -18 8 73 58 73 66 0 l4 -37 1 41 c2 50
-19 75 -48 56 -14 -9 -20 -8 -23 1 -3 7 -5 -13 -5 -43z"/>
<path d="M11836 1021 c-4 -5 2 -7 13 -4 23 6 39 -16 20 -28 -11 -7 -11 -9 -1
-9 8 0 12 -9 10 -22 -2 -11 3 -23 10 -25 15 -6 17 50 2 78 -11 20 -45 26 -54
10z"/>
<path d="M12000 956 c0 -44 4 -76 10 -76 6 0 10 13 10 29 0 24 3 28 20 24 27
-7 50 14 50 46 0 30 -16 51 -39 51 -11 0 -9 -5 7 -16 25 -18 29 -46 7 -64 -26
-22 -47 -4 -43 37 2 22 -2 38 -10 41 -9 3 -12 -16 -12 -72z"/>
<path d="M12132 1018 c-7 -7 -12 -24 -12 -38 0 -30 16 -50 41 -50 23 0 49 27
49 50 0 39 -52 64 -78 38z m56 -10 c28 -28 1 -75 -38 -63 -14 4 -20 15 -20 35
0 37 33 53 58 28z"/>
<path d="M12315 1014 c-25 -25 -15 -67 18 -78 19 -7 31 -6 38 1 9 9 6 10 -10
6 -21 -5 -51 11 -51 28 0 5 16 9 35 9 36 0 46 15 23 38 -16 16 -34 15 -53 -4z
m53 -11 c2 -9 -7 -13 -28 -13 -28 0 -31 2 -20 15 15 18 41 16 48 -2z"/>
<path d="M12412 980 c0 -52 1 -53 8 -17 14 74 56 77 63 5 l4 -43 1 47 c2 39
-1 48 -18 53 -12 4 -27 2 -35 -5 -10 -8 -14 -8 -18 2 -3 7 -5 -12 -5 -42z"/>
<path d="M12590 980 c0 -27 5 -50 10 -50 6 0 10 23 10 50 0 28 -4 50 -10 50
-5 0 -10 -22 -10 -50z"/>
<path d="M12650 1020 c-11 -7 -8 -9 14 -7 32 2 47 -19 19 -26 -17 -4 -17 -5 0
-6 20 -1 22 -12 5 -29 -20 -20 -41 -15 -35 8 6 23 -8 28 -16 6 -8 -20 13 -35
45 -33 25 2 28 6 28 38 0 51 -25 71 -60 49z"/>
<path d="M12872 980 c1 -39 2 -44 5 -18 4 38 25 64 43 53 5 -3 11 -25 12 -48
l1 -42 4 37 c8 70 53 76 53 7 0 -22 5 -39 11 -39 8 0 10 14 6 41 -7 52 -21 68
-46 52 -14 -9 -21 -9 -30 0 -9 9 -16 9 -31 0 -14 -10 -20 -10 -23 0 -3 7 -5
-13 -5 -43z"/>
<path d="M13043 980 c0 -30 2 -43 4 -27 2 15 2 39 0 55 -2 15 -4 2 -4 -28z"/>
<path d="M13193 980 c0 -30 2 -43 4 -27 2 15 2 39 0 55 -2 15 -4 2 -4 -28z"/>
<path d="M13248 1019 c-22 -13 -24 -62 -2 -79 25 -21 68 -1 72 33 6 48 -29 71
-70 46z m50 -11 c17 -17 15 -43 -4 -59 -31 -26 -70 25 -44 56 15 18 32 19 48
3z"/>
<path d="M13352 980 c0 -52 1 -53 8 -17 14 74 56 77 63 5 l4 -43 1 47 c2 39
-1 48 -18 53 -12 4 -27 2 -35 -5 -10 -8 -14 -8 -18 2 -3 7 -5 -12 -5 -42z"/>
<path d="M13666 1014 c-9 -8 -16 -24 -16 -34 0 -36 58 -68 74 -41 3 4 -5 6
-18 4 -17 -4 -27 1 -35 16 -11 20 -9 21 28 21 34 0 39 3 34 18 -13 34 -42 41
-67 16z m52 -11 c2 -8 -6 -13 -22 -13 -25 0 -33 10 -19 24 10 10 36 3 41 -11z"/>
<path d="M13753 1020 c3 -8 11 -32 18 -52 7 -21 15 -38 19 -38 4 0 17 23 28
50 12 28 17 50 13 50 -4 0 -14 -19 -21 -42 l-13 -43 -17 37 c-16 37 -38 67
-27 38z"/>
<path d="M13866 1014 c-9 -8 -16 -24 -16 -34 0 -36 58 -68 74 -41 3 4 -5 6
-18 4 -17 -4 -27 1 -35 16 -11 20 -9 21 28 21 34 0 39 3 34 18 -13 34 -42 41
-67 16z m52 -11 c2 -8 -6 -13 -22 -13 -25 0 -33 10 -19 24 10 10 36 3 41 -11z"/>
<path d="M14022 1018 c-7 -7 -12 -24 -12 -38 0 -30 16 -50 41 -50 23 0 49 27
49 50 0 39 -52 64 -78 38z m56 -10 c28 -28 1 -75 -38 -63 -14 4 -20 15 -20 35
0 37 33 53 58 28z"/>
<path d="M14132 955 c1 -44 3 -65 5 -47 4 28 7 31 28 26 29 -7 60 34 50 65 -7
25 -41 37 -60 21 -10 -8 -14 -8 -18 2 -3 7 -5 -23 -5 -67z m66 27 c2 -22 -2
-34 -12 -38 -34 -13 -61 37 -34 64 21 21 43 9 46 -26z"/>
<path d="M14255 1014 c-25 -25 -15 -67 18 -78 19 -7 31 -6 38 1 9 9 6 10 -10
6 -21 -5 -51 11 -51 28 0 5 16 9 35 9 36 0 46 15 23 38 -16 16 -34 15 -53 -4z
m53 -11 c2 -9 -7 -13 -28 -13 -28 0 -31 2 -20 15 15 18 41 16 48 -2z"/>
<path d="M14351 980 l1 -55 9 45 c5 28 5 48 -1 54 -7 7 -10 -9 -9 -44z"/>
<path d="M14427 1023 c-15 -14 -6 -40 19 -51 28 -13 23 -37 -7 -29 -11 3 -19
1 -19 -4 0 -15 37 -10 51 7 11 14 10 18 -6 30 -10 8 -22 14 -27 14 -17 0 -7
21 15 30 21 8 21 9 1 9 -11 1 -24 -2 -27 -6z"/>
<path d="M14640 979 c0 -27 5 -49 10 -49 6 0 10 18 10 40 0 26 6 42 17 48 13
8 11 10 -10 10 -26 0 -27 -3 -27 -49z"/>
<path d="M14728 1019 c-22 -13 -24 -62 -2 -79 25 -21 68 -1 72 33 6 48 -29 71
-70 46z m50 -11 c17 -17 15 -43 -4 -59 -31 -26 -70 25 -44 56 15 18 32 19 48
3z"/>
<path d="M14832 980 c0 -52 1 -53 8 -17 13 71 50 76 50 6 0 -21 5 -39 10 -39
6 0 10 18 10 40 0 27 5 43 15 47 22 8 28 -1 36 -50 l6 -42 2 41 c1 50 -20 74
-49 57 -13 -9 -20 -9 -29 0 -9 9 -16 9 -31 0 -14 -10 -20 -10 -23 0 -3 7 -5
-13 -5 -43z"/>
<path d="M15084 1019 c-4 -7 0 -9 14 -5 24 8 41 -12 21 -25 -10 -6 -11 -9 -1
-9 17 0 15 -30 -4 -37 -23 -9 -43 15 -24 28 13 9 13 10 0 6 -8 -2 -15 -12 -15
-23 0 -15 8 -19 38 -21 36 -1 37 0 37 36 0 20 -5 42 -12 49 -15 15 -45 16 -54
1z"/>
<path d="M15181 980 l1 -55 9 45 c5 28 5 48 -1 54 -7 7 -10 -9 -9 -44z"/>
<path d="M15262 1018 c-7 -7 -12 -24 -12 -38 0 -30 16 -50 41 -50 23 0 49 27
49 50 0 39 -52 64 -78 38z m56 -10 c28 -28 1 -75 -38 -63 -14 4 -20 15 -20 35
0 37 33 53 58 28z"/>
<path d="M15374 985 l1 -50 38 -2 37 -1 0 49 c0 60 -18 65 -22 7 -2 -35 -7
-43 -23 -43 -16 0 -21 9 -26 45 l-7 45 2 -50z"/>
<path d="M15482 980 c0 -52 1 -53 8 -17 14 74 56 77 63 5 l4 -43 1 47 c2 39
-1 48 -18 53 -12 4 -27 2 -35 -5 -10 -8 -14 -8 -18 2 -3 7 -5 -12 -5 -42z"/>
<path d="M15886 1021 c-3 -5 2 -8 12 -7 13 1 18 -8 20 -41 4 -49 22 -59 22
-12 0 52 -35 91 -54 60z"/>
<path d="M15976 1014 c-9 -8 -16 -24 -16 -34 0 -36 58 -68 74 -41 3 4 -5 6
-18 4 -17 -4 -27 1 -35 16 -11 20 -9 21 28 21 34 0 39 3 34 18 -13 34 -42 41
-67 16z m52 -11 c2 -8 -6 -13 -22 -13 -25 0 -33 10 -19 24 10 10 36 3 41 -11z"/>
<path d="M514 965 c-8 -19 3 -35 24 -35 13 0 13 2 -4 15 -16 13 -17 16 -4 25
11 7 11 10 2 10 -7 0 -15 -7 -18 -15z"/>
<path d="M11824 965 c-8 -19 3 -35 24 -35 13 0 13 2 -4 15 -16 13 -17 16 -4
25 11 7 11 10 2 10 -7 0 -15 -7 -18 -15z"/>
<path d="M5443 935 c-3 -9 -3 -18 -1 -21 3 -3 8 4 11 16 6 23 -1 27 -10 5z"/>
<path d="M713 675 c0 -44 2 -61 4 -37 2 23 2 59 0 80 -2 20 -4 1 -4 -43z"/>
<path d="M820 721 c0 -24 -3 -28 -23 -24 -13 3 -29 -2 -36 -11 -29 -35 11
-110 41 -77 8 8 8 11 1 7 -35 -19 -60 37 -28 64 26 21 45 4 45 -40 0 -22 5
-40 10 -40 6 0 10 32 10 75 0 43 -4 75 -10 75 -5 0 -10 -13 -10 -29z"/>
<path d="M1300 675 c0 -43 4 -75 10 -75 6 0 10 32 10 75 0 43 -4 75 -10 75 -6
0 -10 -32 -10 -75z"/>
<path d="M1420 719 c0 -26 -3 -29 -20 -24 -29 9 -50 -12 -50 -51 0 -24 5 -34
21 -39 12 -4 25 -3 30 2 6 6 1 9 -13 9 -19 -1 -24 5 -26 30 -2 21 2 33 12 37
29 11 45 -4 49 -46 2 -24 4 -9 5 36 1 42 0 77 -3 77 -3 0 -5 -14 -5 -31z"/>
<path d="M2042 680 l-2 -76 32 1 c39 0 63 36 47 67 -13 24 -37 34 -50 21 -6
-6 -2 -9 13 -9 19 1 24 -5 26 -30 2 -21 -2 -33 -12 -37 -34 -13 -45 3 -49 71
l-3 67 -2 -75z"/>
<path d="M4740 719 c0 -26 -3 -29 -20 -24 -29 9 -50 -12 -50 -51 0 -24 5 -34
21 -39 12 -4 25 -3 30 2 6 6 1 9 -13 9 -19 -1 -24 5 -26 30 -2 21 2 33 12 37
29 11 45 -4 49 -46 2 -24 4 -9 5 36 1 42 0 77 -3 77 -3 0 -5 -14 -5 -31z"/>
<path d="M5093 675 c0 -44 2 -63 4 -43 5 44 26 66 47 48 8 -6 17 -28 19 -48
l4 -37 1 41 c2 50 -19 75 -48 56 -17 -10 -19 -8 -23 26 -2 20 -4 1 -4 -43z"/>
<path d="M7002 738 c-13 -16 -15 -30 -13 -90 1 -60 21 -64 21 -4 0 26 5 46 13
49 10 4 10 6 0 6 -7 1 -13 10 -13 20 0 11 6 22 13 24 7 4 8 6 1 6 -6 1 -16 -5
-22 -11z"/>
<path d="M7180 720 c0 -27 -3 -30 -24 -24 -28 7 -56 -18 -56 -50 0 -31 20 -46
58 -43 l32 2 0 73 c0 39 -2 72 -5 72 -3 0 -5 -14 -5 -30z m-12 -42 c17 -17 15
-43 -4 -59 -31 -26 -70 25 -44 56 15 18 32 19 48 3z"/>
<path d="M7533 675 c0 -44 2 -61 4 -37 2 23 2 59 0 80 -2 20 -4 1 -4 -43z"/>
<path d="M8443 675 c0 -44 2 -61 4 -37 2 23 2 59 0 80 -2 20 -4 1 -4 -43z"/>
<path d="M11860 677 l0 -74 32 -1 c41 -1 58 13 58 47 0 30 -16 51 -39 51 -11
0 -9 -5 7 -16 25 -18 29 -46 7 -64 -24 -20 -47 -4 -45 32 4 63 0 98 -10 98 -6
0 -10 -31 -10 -73z"/>
<path d="M12640 740 c0 -5 5 -10 10 -10 6 0 10 5 10 10 0 6 -4 10 -10 10 -5 0
-10 -4 -10 -10z"/>
<path d="M12693 675 c0 -44 2 -61 4 -37 2 23 2 59 0 80 -2 20 -4 1 -4 -43z"/>
<path d="M12743 675 c0 -44 2 -61 4 -37 2 23 2 59 0 80 -2 20 -4 1 -4 -43z"/>
<path d="M13313 675 c0 -44 2 -61 4 -37 2 23 2 59 0 80 -2 20 -4 1 -4 -43z"/>
<path d="M13513 675 c0 -44 2 -63 4 -43 2 20 11 42 19 48 21 18 42 -4 47 -48
l4 -37 1 41 c2 50 -19 75 -48 56 -17 -10 -19 -8 -23 26 -2 20 -4 1 -4 -43z"/>
<path d="M13733 675 c0 -44 2 -61 4 -37 2 23 2 59 0 80 -2 20 -4 1 -4 -43z"/>
<path d="M14200 677 l0 -74 32 -1 c41 -1 58 13 58 47 0 30 -16 51 -39 51 -11
0 -9 -5 7 -16 25 -18 29 -46 7 -64 -24 -20 -47 -4 -45 32 4 63 0 98 -10 98 -6
0 -10 -31 -10 -73z"/>
<path d="M14480 675 c0 -43 4 -75 10 -75 6 0 10 32 10 75 0 43 -4 75 -10 75
-6 0 -10 -32 -10 -75z"/>
<path d="M14600 721 c0 -24 -3 -28 -23 -24 -13 3 -29 -2 -36 -11 -29 -35 11
-110 41 -77 8 8 8 11 1 7 -35 -19 -60 37 -28 64 26 21 45 4 45 -40 0 -22 5
-40 10 -40 6 0 10 32 10 75 0 43 -4 75 -10 75 -5 0 -10 -13 -10 -29z"/>
<path d="M15563 675 c0 -44 2 -61 4 -37 2 23 2 59 0 80 -2 20 -4 1 -4 -43z"/>
<path d="M15762 680 l-2 -75 30 -2 c55 -4 80 76 29 92 -11 4 -26 1 -34 -5 -11
-9 -14 -4 -18 27 -2 21 -4 4 -5 -37z m66 -28 c2 -22 -2 -34 -12 -38 -34 -13
-61 37 -34 64 21 21 43 9 46 -26z"/>
<path d="M15883 675 c0 -44 2 -61 4 -37 2 23 2 59 0 80 -2 20 -4 1 -4 -43z"/>
<path d="M3651 718 c0 -10 -7 -18 -13 -18 -10 0 -10 -2 -1 -8 6 -4 13 -25 15
-47 2 -31 8 -41 23 -43 18 -2 18 -2 3 8 -12 7 -18 23 -18 45 0 24 5 35 18 38
15 4 15 5 0 6 -9 0 -19 9 -21 19 -4 16 -5 16 -6 0z"/>
<path d="M5901 718 c0 -10 -7 -18 -13 -18 -10 0 -10 -2 -1 -8 6 -4 13 -25 15
-47 2 -31 8 -41 23 -43 18 -2 18 -2 3 8 -12 7 -18 23 -18 45 0 24 5 35 18 38
15 4 15 5 0 6 -9 0 -19 9 -21 19 -4 16 -5 16 -6 0z"/>
<path d="M9641 718 c0 -10 -7 -18 -13 -18 -10 0 -10 -2 -1 -8 6 -4 13 -25 15
-47 2 -31 8 -41 23 -43 18 -2 18 -2 3 8 -12 7 -18 23 -18 45 0 24 5 35 18 38
15 4 15 5 0 6 -9 0 -19 9 -21 19 -4 16 -5 16 -6 0z"/>
<path d="M12101 718 c0 -10 -7 -18 -13 -18 -10 0 -10 -2 -1 -8 6 -4 13 -25 15
-47 2 -31 8 -41 23 -43 18 -2 18 -2 3 8 -12 7 -18 23 -18 45 0 24 5 35 18 38
15 4 15 5 0 6 -9 0 -19 9 -21 19 -4 16 -5 16 -6 0z"/>
<path d="M1849 708 c-5 -61 8 -108 29 -107 11 0 12 3 5 6 -16 6 -17 83 -2 83
6 0 4 7 -5 15 -18 18 -26 19 -27 3z"/>
<path d="M2268 710 c-2 -7 -1 -33 2 -58 4 -37 9 -47 25 -50 18 -2 18 -2 3 8
-25 15 -25 80 0 81 13 0 14 2 2 6 -8 3 -18 10 -21 16 -4 5 -8 4 -11 -3z"/>
<path d="M2498 710 c-2 -7 -1 -33 2 -58 4 -37 9 -47 25 -50 18 -2 18 -2 3 8
-25 15 -25 80 0 81 13 0 14 2 2 6 -8 3 -18 10 -21 16 -4 5 -8 4 -11 -3z"/>
<path d="M4848 710 c-2 -7 -1 -33 2 -58 4 -37 9 -47 25 -50 18 -2 18 -2 3 8
-12 7 -18 23 -18 45 0 26 4 35 18 36 13 0 14 2 2 6 -8 3 -18 10 -21 16 -4 5
-8 4 -11 -3z"/>
<path d="M9398 710 c-2 -7 -1 -33 2 -58 4 -37 9 -47 25 -50 18 -2 18 -2 3 8
-12 7 -18 23 -18 45 0 26 4 35 18 36 13 0 14 2 2 6 -8 3 -18 10 -21 16 -4 5
-8 4 -11 -3z"/>
<path d="M11679 708 c-5 -61 8 -108 29 -107 11 0 12 3 5 6 -16 6 -17 83 -2 83
6 0 4 7 -5 15 -18 18 -26 19 -27 3z"/>
<path d="M13239 708 c-5 -61 8 -108 29 -107 11 0 12 3 5 6 -16 6 -17 83 -2 83
6 0 4 7 -5 15 -18 18 -26 19 -27 3z"/>
<path d="M360 698 c0 -2 7 -25 16 -51 17 -51 29 -53 39 -7 8 36 21 31 30 -10
4 -17 10 -30 15 -30 9 0 33 90 26 97 -3 3 -8 -11 -11 -31 -9 -46 -22 -46 -31
-1 -8 46 -18 44 -34 -7 l-13 -43 -11 37 c-10 31 -26 61 -26 46z"/>
<path d="M526 684 c-31 -30 -9 -84 34 -84 11 0 27 11 36 25 15 23 15 27 0 50
-19 29 -47 32 -70 9z m48 0 c35 -13 14 -74 -24 -74 -18 0 -31 39 -20 60 11 21
19 24 44 14z"/>
<path d="M640 650 c0 -29 2 -51 4 -49 8 8 10 88 3 95 -4 4 -7 -17 -7 -46z"/>
<path d="M925 680 c3 -14 8 -37 11 -52 4 -16 10 -28 15 -28 12 0 12 -3 -11 55
-12 28 -18 39 -15 25z"/>
<path d="M976 685 c-8 -23 -8 -27 3 -21 5 4 12 0 14 -6 4 -9 6 -8 6 2 0 8 -3
21 -8 28 -7 11 -10 10 -15 -3z"/>
<path d="M1029 661 c-8 -28 -15 -38 -21 -29 -6 10 -8 9 -8 -4 0 -36 19 -26 34
19 9 25 14 48 12 51 -3 2 -10 -15 -17 -37z"/>
<path d="M1088 689 c-22 -13 -24 -62 -2 -79 25 -21 68 -1 72 33 6 48 -29 71
-70 46z m50 -11 c17 -17 15 -43 -4 -59 -31 -26 -70 25 -44 56 15 18 32 19 48
3z"/>
<path d="M1192 664 c-2 -50 19 -75 48 -56 14 9 20 8 23 -1 3 -7 5 13 5 43 -1
39 -2 44 -5 18 -2 -20 -11 -42 -19 -48 -21 -18 -42 4 -47 48 l-4 37 -1 -41z"/>
<path d="M1536 684 c-32 -31 -8 -85 37 -83 21 1 21 1 -2 8 -13 3 -29 14 -35
24 -14 22 2 49 35 58 23 7 23 7 2 8 -12 1 -29 -6 -37 -15z"/>
<path d="M1626 684 c-31 -30 -9 -84 34 -84 11 0 27 11 36 25 15 23 15 27 0 50
-19 29 -47 32 -70 9z m48 0 c35 -13 14 -74 -24 -74 -18 0 -31 39 -20 60 11 21
19 24 44 14z"/>
<path d="M1743 650 c0 -30 2 -43 4 -27 2 15 2 39 0 55 -2 15 -4 2 -4 -28z"/>
<path d="M1766 691 c-3 -5 2 -8 12 -7 13 1 18 -8 20 -41 4 -49 22 -59 22 -12
0 52 -35 91 -54 60z"/>
<path d="M1920 650 c0 -29 2 -51 4 -49 8 8 10 88 3 95 -4 4 -7 -17 -7 -46z"/>
<path d="M1993 650 c0 -30 2 -43 4 -27 2 15 2 39 0 55 -2 15 -4 2 -4 -28z"/>
<path d="M2152 664 c-2 -50 19 -75 48 -56 14 9 20 8 23 -1 3 -7 5 13 5 43 -1
39 -2 44 -5 18 -2 -20 -11 -42 -19 -48 -21 -18 -42 4 -47 48 l-4 37 -1 -41z"/>
<path d="M2342 688 c-7 -7 -12 -24 -12 -38 0 -32 17 -50 45 -49 16 0 15 2 -7
11 -41 14 -36 38 7 38 22 0 35 5 35 13 0 18 -21 37 -40 37 -9 0 -21 -5 -28
-12z m48 -13 c11 -13 8 -15 -19 -15 -31 0 -42 14 -18 23 20 9 24 8 37 -8z"/>
<path d="M2578 689 c-22 -13 -24 -62 -2 -79 25 -21 68 -1 72 33 6 48 -29 71
-70 46z m50 -11 c17 -17 15 -43 -4 -59 -31 -26 -70 25 -44 56 15 18 32 19 48
3z"/>
<path d="M2746 684 c-30 -30 -9 -84 33 -84 25 0 41 20 41 50 0 47 -42 66 -74
34z m48 0 c24 -9 21 -61 -4 -69 -39 -12 -66 35 -38 63 14 14 20 14 42 6z"/>
<path d="M2852 664 c-2 -50 19 -75 48 -56 14 9 20 8 23 -1 3 -7 5 13 5 43 -1
39 -2 44 -5 18 -2 -20 -11 -42 -19 -48 -21 -18 -42 4 -47 48 l-4 37 -1 -41z"/>
<path d="M2970 650 c0 -29 2 -51 4 -49 8 8 10 88 3 95 -4 4 -7 -17 -7 -46z"/>
<path d="M3090 626 c0 -44 4 -76 10 -76 6 0 10 13 10 29 0 24 3 28 20 24 27
-7 50 14 50 46 0 30 -16 51 -39 51 -11 0 -9 -5 7 -16 25 -18 29 -46 7 -64 -26
-22 -47 -4 -43 37 2 22 -2 38 -10 41 -9 3 -12 -16 -12 -72z"/>
<path d="M3211 650 l1 -55 9 45 c5 28 5 48 -1 54 -7 7 -10 -9 -9 -44z"/>
<path d="M3292 688 c-7 -7 -12 -24 -12 -38 0 -30 16 -50 41 -50 23 0 49 27 49
50 0 39 -52 64 -78 38z m56 -10 c28 -28 1 -75 -38 -63 -14 4 -20 15 -20 35 0
37 33 53 58 28z"/>
<path d="M3402 645 c-2 -64 -8 -79 -32 -88 -13 -4 -12 -6 1 -6 30 -2 40 24 36
91 l-3 63 -2 -60z"/>
<path d="M3455 684 c-25 -25 -15 -67 18 -78 19 -7 31 -6 38 1 9 9 6 10 -10 6
-21 -5 -51 11 -51 28 0 5 16 9 35 9 36 0 46 15 23 38 -16 16 -34 15 -53 -4z
m53 -11 c2 -9 -7 -13 -28 -13 -28 0 -31 2 -20 15 15 18 41 16 48 -2z"/>
<path d="M3568 689 c-21 -12 -24 -59 -6 -77 7 -7 21 -12 33 -11 16 0 14 3 -8
11 -23 8 -28 15 -25 36 2 16 13 31 28 39 14 7 18 13 10 13 -8 -1 -23 -5 -32
-11z"/>
<path d="M3774 689 c-4 -7 0 -9 14 -5 24 8 41 -12 21 -25 -10 -6 -11 -9 -1 -9
17 0 15 -30 -4 -37 -23 -9 -43 15 -24 28 13 9 13 10 0 6 -8 -2 -15 -12 -15
-23 0 -15 8 -19 38 -21 36 -1 37 0 37 36 0 20 -5 42 -12 49 -15 15 -45 16 -54
1z"/>
<path d="M3877 693 c-15 -14 -6 -40 19 -51 28 -13 23 -37 -7 -29 -11 3 -19 1
-19 -4 0 -15 37 -10 51 7 11 14 10 18 -6 30 -10 8 -22 14 -27 14 -17 0 -7 21
15 30 21 8 21 9 1 9 -11 1 -24 -2 -27 -6z"/>
<path d="M4028 689 c-22 -13 -24 -62 -2 -79 25 -21 68 -1 72 33 6 48 -29 71
-70 46z m50 -11 c17 -17 15 -43 -4 -59 -31 -26 -70 25 -44 56 15 18 32 19 48
3z"/>
<path d="M4132 625 c1 -44 3 -65 5 -47 4 28 7 31 28 26 29 -7 60 34 50 65 -7
25 -41 37 -60 21 -10 -8 -14 -8 -18 2 -3 7 -5 -23 -5 -67z m66 27 c2 -22 -2
-34 -12 -38 -34 -13 -61 37 -34 64 21 21 43 9 46 -26z"/>
<path d="M4253 625 c0 -44 2 -66 4 -48 4 27 8 31 30 30 50 -4 63 72 17 90 -9
3 -20 1 -25 -4 -6 -6 -2 -9 13 -9 19 1 24 -5 26 -30 2 -21 -2 -33 -12 -37 -29
-11 -45 4 -49 46 -2 23 -4 6 -4 -38z"/>
<path d="M4378 689 c-22 -13 -24 -62 -2 -79 25 -21 68 -1 72 33 6 48 -29 71
-70 46z m50 -11 c17 -17 15 -43 -4 -59 -31 -26 -70 25 -44 56 15 18 32 19 48
3z"/>
<path d="M4487 693 c-15 -14 -6 -40 19 -51 28 -13 23 -37 -7 -29 -11 3 -19 1
-19 -4 0 -15 37 -10 51 7 11 14 10 18 -6 30 -10 8 -22 14 -27 14 -17 0 -7 21
15 30 21 8 21 9 1 9 -11 1 -24 -2 -27 -6z"/>
<path d="M4575 684 c-25 -25 -15 -67 18 -78 19 -7 31 -6 38 1 9 9 6 10 -10 6
-21 -5 -51 11 -51 28 0 5 16 9 35 9 36 0 46 15 23 38 -16 16 -34 15 -53 -4z
m53 -11 c2 -9 -7 -13 -28 -13 -28 0 -31 2 -20 15 15 18 41 16 48 -2z"/>
<path d="M4928 689 c-22 -13 -24 -62 -2 -79 25 -21 68 -1 72 33 6 48 -29 71
-70 46z m50 -11 c17 -17 15 -43 -4 -59 -31 -26 -70 25 -44 56 15 18 32 19 48
3z"/>
<path d="M5210 690 c-11 -7 -8 -9 14 -7 32 2 47 -19 19 -26 -17 -4 -17 -5 0
-6 20 -1 22 -12 5 -29 -20 -20 -41 -15 -35 8 6 23 -8 28 -16 6 -8 -20 13 -35
45 -33 25 2 28 6 28 38 0 51 -25 71 -60 49z"/>
<path d="M5293 690 c3 -8 11 -32 18 -52 7 -21 15 -38 19 -38 4 0 17 23 28 50
12 28 17 50 13 50 -4 0 -14 -19 -21 -42 l-13 -43 -17 37 c-16 37 -38 67 -27
38z"/>
<path d="M5403 650 c0 -30 2 -43 4 -27 2 15 2 39 0 55 -2 15 -4 2 -4 -28z"/>
<path d="M5452 650 c1 -39 2 -44 5 -18 8 73 58 73 66 0 l4 -37 1 41 c2 50 -19
75 -48 56 -14 -9 -20 -8 -23 1 -3 7 -5 -13 -5 -43z"/>
<path d="M5571 687 c-6 -6 -11 -26 -11 -43 0 -24 5 -34 21 -39 12 -4 25 -3 30
2 6 6 1 9 -13 9 -19 -1 -24 5 -26 30 -2 21 2 33 12 37 32 13 46 -3 46 -53 0
-53 -17 -76 -51 -67 -16 4 -19 3 -10 -6 7 -7 19 -8 38 -1 26 9 28 14 31 74 l3
65 -29 2 c-16 1 -34 -3 -41 -10z"/>
<path d="M5746 691 c-4 -5 2 -7 13 -4 23 6 39 -16 20 -28 -11 -7 -11 -9 -1 -9
8 0 12 -9 10 -22 -2 -11 3 -23 10 -25 15 -6 17 50 2 78 -11 20 -45 26 -54 10z"/>
<path d="M5963 650 c0 -30 2 -43 4 -27 2 15 2 39 0 55 -2 15 -4 2 -4 -28z"/>
<path d="M6012 650 c0 -52 1 -53 8 -17 14 74 56 77 63 5 l4 -43 1 47 c2 39 -1
48 -18 53 -12 4 -27 2 -35 -5 -10 -8 -14 -8 -18 2 -3 7 -5 -12 -5 -42z"/>
<path d="M6110 696 c0 -2 9 -25 20 -51 20 -47 16 -77 -12 -88 -10 -4 -10 -6
-1 -6 16 -1 36 31 62 97 25 62 18 71 -8 10 l-17 -42 -17 42 c-14 36 -27 53
-27 38z"/>
<path d="M6285 684 c-19 -20 -19 -48 1 -68 19 -19 36 -20 52 -4 9 9 12 9 12
-3 0 -28 -26 -52 -49 -46 -11 3 -21 1 -21 -4 0 -15 47 -10 64 7 11 10 16 34
16 72 0 56 -1 57 -30 59 -16 1 -36 -5 -45 -13z m59 -16 c13 -21 -2 -51 -27
-56 -23 -5 -40 33 -27 59 13 23 38 22 54 -3z"/>
<path d="M6400 650 c0 -29 2 -51 4 -49 8 8 10 88 3 95 -4 4 -7 -17 -7 -46z"/>
<path d="M6476 684 c-30 -30 -9 -84 33 -84 25 0 41 20 41 50 0 47 -42 66 -74
34z m48 0 c24 -9 21 -61 -4 -69 -39 -12 -66 35 -38 63 14 14 20 14 42 6z"/>
<path d="M6582 664 c-2 -50 19 -75 48 -56 14 9 20 8 23 -1 3 -7 5 13 5 43 -1
39 -2 44 -5 18 -2 -20 -11 -42 -19 -48 -21 -18 -42 4 -47 48 l-4 37 -1 -41z"/>
<path d="M6703 625 c0 -44 2 -66 4 -48 4 27 8 31 30 30 50 -4 63 72 17 90 -9
3 -20 1 -25 -4 -6 -6 -2 -9 13 -9 19 1 24 -5 26 -30 2 -21 -2 -33 -12 -37 -29
-11 -45 4 -49 46 -2 23 -4 6 -4 -38z"/>
<path d="M6882 688 c-7 -7 -12 -24 -12 -38 0 -30 16 -50 41 -50 23 0 49 27 49
50 0 39 -52 64 -78 38z m56 -10 c28 -28 1 -75 -38 -63 -14 4 -20 15 -20 35 0
37 33 53 58 28z"/>
<path d="M7232 688 c-7 -7 -12 -24 -12 -38 0 -32 17 -50 45 -49 16 0 15 2 -7
11 -41 14 -36 38 7 38 22 0 35 5 35 13 0 18 -21 37 -40 37 -9 0 -21 -5 -28
-12z m48 -13 c11 -13 8 -15 -19 -15 -31 0 -42 14 -18 23 20 9 24 8 37 -8z"/>
<path d="M7320 692 c0 -18 31 -92 39 -92 8 0 43 91 37 97 -2 2 -11 -15 -21
-39 l-17 -43 -14 39 c-15 42 -24 56 -24 38z"/>
<path d="M7435 684 c-25 -25 -15 -67 18 -78 19 -7 31 -6 38 1 9 9 6 10 -10 6
-21 -5 -51 11 -51 28 0 5 16 9 35 9 36 0 46 15 23 38 -16 16 -34 15 -53 -4z
m53 -11 c2 -9 -7 -13 -28 -13 -28 0 -31 2 -20 15 15 18 41 16 48 -2z"/>
<path d="M7586 684 c-31 -30 -9 -84 34 -84 11 0 27 11 36 25 15 23 15 27 0 50
-19 29 -47 32 -70 9z m48 0 c35 -13 14 -74 -24 -74 -18 0 -31 39 -20 60 11 21
19 24 44 14z"/>
<path d="M7703 625 c0 -44 2 -66 4 -48 4 27 8 31 30 30 50 -4 63 72 17 90 -9
3 -20 1 -25 -4 -6 -6 -2 -9 13 -9 19 1 24 -5 26 -30 2 -21 -2 -33 -12 -37 -29
-11 -45 4 -49 46 -2 23 -4 6 -4 -38z"/>
<path d="M7822 688 c-7 -7 -12 -24 -12 -38 0 -32 17 -50 45 -49 16 0 15 2 -7
11 -41 14 -36 38 7 38 22 0 35 5 35 13 0 18 -21 37 -40 37 -9 0 -21 -5 -28
-12z m48 -13 c11 -13 8 -15 -19 -15 -31 0 -42 14 -18 23 20 9 24 8 37 -8z"/>
<path d="M7920 650 c0 -29 2 -51 4 -49 8 8 10 88 3 95 -4 4 -7 -17 -7 -46z"/>
<path d="M7989 684 c-11 -14 -10 -18 5 -30 10 -7 23 -15 29 -17 19 -6 -5 -29
-26 -23 -14 3 -17 2 -9 -6 13 -13 52 -1 52 17 0 7 -11 20 -25 29 -28 19 -24
41 6 33 11 -3 19 -1 19 4 0 15 -37 10 -51 -7z"/>
<path d="M8125 680 c3 -14 8 -37 11 -52 4 -16 10 -28 15 -28 12 0 12 -3 -11
55 -12 28 -18 39 -15 25z"/>
<path d="M8176 685 c-8 -23 -8 -27 3 -21 5 4 12 0 14 -6 4 -9 6 -8 6 2 0 8 -3
21 -8 28 -7 11 -10 10 -15 -3z"/>
<path d="M8229 661 c-8 -28 -15 -38 -21 -29 -6 10 -8 9 -8 -4 0 -36 19 -26 34
19 9 25 14 48 12 51 -3 2 -10 -15 -17 -37z"/>
<path d="M8282 688 c-7 -7 -12 -24 -12 -38 0 -32 17 -50 45 -49 16 0 15 2 -7
11 -41 14 -36 38 7 38 22 0 35 5 35 13 0 18 -21 37 -40 37 -9 0 -21 -5 -28
-12z m48 -13 c11 -13 8 -15 -19 -15 -31 0 -42 14 -18 23 20 9 24 8 37 -8z"/>
<path d="M8466 691 c-3 -5 2 -8 12 -7 13 1 18 -8 20 -41 4 -49 22 -59 22 -12
0 52 -35 91 -54 60z"/>
<path d="M8554 689 c-4 -7 0 -9 14 -5 24 8 41 -12 21 -25 -10 -6 -11 -9 -1 -9
17 0 15 -30 -4 -37 -23 -9 -43 15 -24 28 13 9 13 10 0 6 -8 -2 -15 -12 -15
-23 0 -15 8 -19 38 -21 36 -1 37 0 37 36 0 20 -5 42 -12 49 -15 15 -45 16 -54
1z"/>
<path d="M8642 689 c3 -8 11 -31 19 -51 7 -21 16 -38 20 -38 7 0 39 80 38 95
0 6 -8 -10 -19 -35 l-18 -45 -11 28 c-6 16 -11 32 -11 37 0 5 -5 12 -12 16 -7
5 -9 2 -6 -7z"/>
<path d="M8755 684 c-25 -25 -15 -67 18 -78 19 -7 31 -6 38 1 9 9 6 10 -10 6
-21 -5 -51 11 -51 28 0 5 16 9 35 9 36 0 46 15 23 38 -16 16 -34 15 -53 -4z
m53 -11 c2 -9 -7 -13 -28 -13 -28 0 -31 2 -20 15 15 18 41 16 48 -2z"/>
<path d="M8914 689 c-4 -7 0 -9 14 -5 24 8 41 -12 21 -25 -10 -6 -11 -9 -1 -9
17 0 15 -30 -4 -37 -23 -9 -43 15 -24 28 13 9 13 10 0 6 -8 -2 -15 -12 -15
-23 0 -15 8 -19 38 -21 36 -1 37 0 37 36 0 20 -5 42 -12 49 -15 15 -45 16 -54
1z"/>
<path d="M9009 684 c-11 -14 -10 -18 6 -30 10 -8 22 -14 27 -14 4 0 8 -7 8
-16 0 -12 -7 -15 -26 -11 -16 3 -22 1 -16 -5 16 -16 47 -4 50 19 2 14 -3 23
-17 28 -28 9 -28 39 -1 32 11 -3 20 -1 20 4 0 15 -37 10 -51 -7z"/>
<path d="M9160 690 c-11 -7 -8 -9 14 -7 32 2 47 -19 19 -26 -17 -4 -17 -5 0
-6 20 -1 22 -12 5 -29 -20 -20 -41 -15 -35 8 6 23 -8 28 -16 6 -8 -20 13 -35
45 -33 25 2 28 6 28 38 0 51 -25 71 -60 49z"/>
<path d="M9317 693 c-15 -14 -6 -40 19 -51 28 -13 23 -37 -7 -29 -11 3 -19 1
-19 -4 0 -15 37 -10 51 7 11 14 10 18 -6 30 -10 8 -22 14 -27 14 -17 0 -7 21
15 30 21 8 21 9 1 9 -11 1 -24 -2 -27 -6z"/>
<path d="M9476 692 c-3 -5 4 -8 16 -8 34 1 32 -22 -2 -29 -25 -5 -31 -11 -28
-28 2 -17 10 -22 36 -22 33 -1 33 -1 30 45 -3 37 -7 46 -25 48 -11 2 -24 -1
-27 -6z m44 -56 c0 -18 -31 -29 -44 -16 -8 8 -7 14 4 20 22 14 40 12 40 -4z"/>
<path d="M9560 649 c0 -27 5 -49 10 -49 6 0 10 18 10 40 0 26 6 42 17 48 13 8
11 10 -10 10 -26 0 -27 -3 -27 -49z"/>
<path d="M9702 664 c-2 -50 19 -75 48 -56 14 9 20 8 23 -1 3 -7 5 13 5 43 -1
39 -2 44 -5 18 -5 -44 -26 -66 -47 -48 -8 6 -17 28 -19 48 l-4 37 -1 -41z"/>
<path d="M9823 625 c0 -44 2 -66 4 -48 4 27 8 31 30 30 50 -4 63 72 17 90 -9
3 -20 1 -25 -4 -6 -6 -2 -9 13 -9 19 1 24 -5 26 -30 2 -21 -2 -33 -12 -37 -29
-11 -45 4 -49 46 -2 23 -4 6 -4 -38z"/>
<path d="M9995 680 c-24 -26 -13 -68 21 -76 14 -4 28 -4 31 0 4 3 -3 6 -15 6
-24 0 -45 31 -36 54 3 8 18 19 32 25 23 8 24 10 6 10 -11 1 -29 -8 -39 -19z"/>
<path d="M10092 688 c-7 -7 -12 -24 -12 -38 0 -30 16 -50 41 -50 23 0 49 27
49 50 0 39 -52 64 -78 38z m56 -10 c28 -28 1 -75 -38 -63 -14 4 -20 15 -20 35
0 37 33 53 58 28z"/>
<path d="M10202 650 c1 -39 2 -44 5 -18 4 38 25 64 43 53 5 -3 11 -25 12 -48
l1 -42 4 37 c8 70 53 76 53 7 0 -22 5 -39 11 -39 8 0 10 14 6 41 -7 52 -21 68
-46 52 -14 -9 -21 -9 -30 0 -9 9 -16 9 -31 0 -14 -10 -20 -10 -23 0 -3 7 -5
-13 -5 -43z"/>
<path d="M10372 625 c1 -44 3 -65 5 -47 4 28 7 31 27 26 15 -3 29 1 40 11 30
30 15 85 -23 85 -11 0 -8 -5 7 -16 26 -18 26 -51 0 -68 -14 -8 -22 -7 -35 6
-14 14 -15 22 -5 43 7 15 8 24 3 21 -5 -4 -12 0 -14 6 -3 7 -5 -23 -5 -67z"/>
<path d="M10494 689 c-4 -7 0 -9 14 -5 24 8 41 -12 21 -25 -10 -6 -11 -9 -1
-9 17 0 15 -30 -4 -37 -23 -9 -43 15 -24 28 13 9 13 10 0 6 -8 -2 -15 -12 -15
-23 0 -15 8 -19 38 -21 36 -1 37 0 37 36 0 20 -5 42 -12 49 -15 15 -45 16 -54
1z"/>
<path d="M10592 650 c0 -52 1 -53 8 -17 14 74 56 77 63 5 l4 -43 1 47 c2 39
-1 48 -18 53 -12 4 -27 2 -35 -5 -10 -8 -14 -8 -18 2 -3 7 -5 -12 -5 -42z"/>
<path d="M10690 696 c0 -2 9 -25 20 -51 20 -47 16 -77 -12 -88 -10 -4 -10 -6
-1 -6 16 -1 36 31 62 97 25 62 18 71 -8 10 l-17 -42 -17 42 c-14 36 -27 53
-27 38z"/>
<path d="M10890 695 c0 -3 7 -22 15 -42 20 -47 19 -80 -2 -92 -10 -6 -13 -11
-7 -11 6 0 16 6 22 13 16 19 61 137 53 137 -4 0 -13 -18 -20 -40 -13 -45 -26
-45 -36 0 -6 25 -25 53 -25 35z"/>
<path d="M11006 684 c-31 -30 -9 -84 34 -84 11 0 27 11 36 25 15 23 15 27 0
50 -19 29 -47 32 -70 9z m48 0 c35 -13 14 -74 -24 -74 -18 0 -31 39 -20 60 11
21 19 24 44 14z"/>
<path d="M11124 655 c1 -42 4 -50 21 -53 18 -4 19 -3 3 10 -9 7 -19 31 -21 53
-3 32 -4 30 -3 -10z"/>
<path d="M11178 654 c-2 -25 0 -48 4 -50 5 -3 8 18 8 45 0 64 -7 66 -12 5z"/>
<path d="M11230 650 c0 -29 2 -51 4 -49 8 8 10 88 3 95 -4 4 -7 -17 -7 -46z"/>
<path d="M11366 684 c-32 -31 -8 -85 37 -83 21 1 21 1 -2 8 -33 9 -49 36 -35
58 6 10 22 21 35 24 23 7 23 7 2 8 -12 1 -29 -6 -37 -15z"/>
<path d="M11456 684 c-31 -30 -9 -84 34 -84 11 0 27 11 36 25 15 23 15 27 0
50 -19 29 -47 32 -70 9z m48 0 c35 -13 14 -74 -24 -74 -18 0 -31 39 -20 60 11
21 19 24 44 14z"/>
<path d="M11560 651 c0 -28 5 -51 10 -51 6 0 10 18 10 40 0 22 0 43 1 47 0 4
-4 9 -10 11 -7 2 -11 -15 -11 -47z"/>
<path d="M11612 688 c9 -7 19 -31 21 -53 3 -32 4 -30 3 10 -1 42 -4 50 -21 53
-18 4 -19 3 -3 -10z"/>
<path d="M11750 650 c0 -29 2 -51 4 -49 8 8 10 88 3 95 -4 4 -7 -17 -7 -46z"/>
<path d="M11823 650 c0 -30 2 -43 4 -27 2 15 2 39 0 55 -2 15 -4 2 -4 -28z"/>
<path d="M11982 664 c-2 -50 19 -75 48 -56 14 9 20 8 23 -1 3 -7 5 13 5 43 -1
39 -2 44 -5 18 -2 -20 -11 -42 -19 -48 -21 -18 -42 4 -47 48 l-4 37 -1 -41z"/>
<path d="M12163 650 c0 -30 2 -43 4 -27 2 15 2 39 0 55 -2 15 -4 2 -4 -28z"/>
<path d="M12222 688 c-7 -7 -12 -24 -12 -38 0 -30 16 -50 41 -50 23 0 49 27
49 50 0 39 -52 64 -78 38z m56 -10 c28 -28 1 -75 -38 -63 -14 4 -20 15 -20 35
0 37 33 53 58 28z"/>
<path d="M12332 650 c1 -39 2 -44 5 -18 8 73 58 73 66 0 l4 -37 1 41 c2 50
-19 75 -48 56 -14 -9 -20 -8 -23 1 -3 7 -5 -13 -5 -43z"/>
<path d="M12495 680 c3 -14 8 -37 11 -52 4 -16 10 -28 15 -28 12 0 12 -3 -11
55 -12 28 -18 39 -15 25z"/>
<path d="M12546 685 c-8 -23 -8 -27 3 -21 5 4 12 0 14 -6 4 -9 6 -8 6 2 0 8
-3 21 -8 28 -7 11 -10 10 -15 -3z"/>
<path d="M12599 661 c-8 -28 -15 -38 -21 -29 -6 10 -8 9 -8 -4 0 -36 19 -26
34 19 9 25 14 48 12 51 -3 2 -10 -15 -17 -37z"/>
<path d="M12640 650 c0 -27 5 -50 10 -50 6 0 10 23 10 50 0 28 -4 50 -10 50
-5 0 -10 -22 -10 -50z"/>
<path d="M12855 684 c-35 -36 -7 -92 40 -80 44 11 25 -30 -21 -44 l-29 -8 27
-1 c42 -1 58 23 58 87 0 56 -1 57 -30 59 -16 1 -36 -5 -45 -13z m53 -6 c17
-17 15 -43 -4 -59 -31 -26 -70 25 -44 56 15 18 32 19 48 3z"/>
<path d="M12960 649 c0 -27 5 -49 10 -49 6 0 10 18 10 40 0 26 6 42 17 48 13
8 11 10 -10 10 -26 0 -27 -3 -27 -49z"/>
<path d="M13042 688 c-7 -7 -12 -24 -12 -38 0 -14 5 -31 12 -38 15 -15 45 -15
54 0 4 7 3 8 -5 4 -16 -10 -51 3 -51 20 0 9 11 14 35 14 38 0 40 2 25 31 -12
21 -40 25 -58 7z m48 -13 c11 -13 8 -15 -19 -15 -30 0 -39 9 -24 23 11 11 30
8 43 -8z"/>
<path d="M13146 691 c-4 -5 2 -7 13 -4 23 6 39 -16 20 -28 -11 -7 -11 -9 -1
-9 8 0 12 -9 10 -22 -2 -11 3 -23 10 -25 15 -6 17 50 2 78 -11 20 -45 26 -54
10z"/>
<path d="M13360 654 c24 -56 25 -62 3 -87 -14 -16 -15 -19 -3 -15 14 4 75 137
66 145 -2 2 -11 -15 -21 -39 l-17 -43 -16 43 c-9 23 -20 42 -24 42 -4 0 2 -21
12 -46z"/>
<path d="M13632 688 c-7 -7 -12 -24 -12 -38 0 -14 5 -31 12 -38 15 -15 45 -15
54 0 4 7 3 8 -5 4 -16 -10 -51 3 -51 20 0 9 11 14 35 14 38 0 40 2 25 31 -12
21 -40 25 -58 7z m48 -13 c11 -13 8 -15 -19 -15 -30 0 -39 9 -24 23 11 11 30
8 43 -8z"/>
<path d="M13783 625 c0 -44 2 -66 4 -48 4 27 8 31 30 30 50 -4 63 72 17 90 -9
3 -20 1 -25 -4 -6 -6 -2 -9 13 -9 19 1 24 -5 26 -30 2 -21 -2 -33 -12 -37 -29
-11 -45 4 -49 46 -2 23 -4 6 -4 -38z"/>
<path d="M13954 655 l1 -50 38 -2 37 -1 0 49 c0 60 -18 65 -22 7 -2 -35 -7
-43 -23 -43 -16 0 -21 9 -26 45 l-7 45 2 -50z"/>
<path d="M14073 693 c-21 -8 -15 -29 12 -47 28 -19 24 -41 -6 -33 -11 3 -19 1
-19 -4 0 -10 21 -12 44 -3 24 9 19 33 -9 46 -31 14 -32 26 -2 38 12 5 15 9 7
9 -8 -1 -21 -3 -27 -6z"/>
<path d="M14322 664 c-2 -50 19 -75 48 -56 14 9 20 8 23 -1 3 -7 5 13 5 43 -1
39 -2 44 -5 18 -2 -20 -11 -42 -19 -48 -21 -18 -42 4 -47 48 l-4 37 -1 -41z"/>
<path d="M14443 650 c0 -30 2 -43 4 -27 2 15 2 39 0 55 -2 15 -4 2 -4 -28z"/>
<path d="M14716 691 c-4 -5 2 -7 13 -4 23 6 39 -16 20 -28 -11 -7 -11 -9 -1
-9 8 0 12 -9 10 -22 -2 -11 3 -23 10 -25 15 -6 17 50 2 78 -11 20 -45 26 -54
10z"/>
<path d="M14873 650 c0 -30 2 -43 4 -27 2 15 2 39 0 55 -2 15 -4 2 -4 -28z"/>
<path d="M14913 689 c11 -7 18 -24 19 -52 l1 -42 4 37 c4 39 28 67 43 52 5 -5
10 -27 13 -49 4 -39 4 -39 5 8 2 52 -15 70 -44 47 -11 -10 -18 -10 -26 -2 -7
7 -17 12 -22 12 -6 0 -3 -5 7 -11z"/>
<path d="M15046 684 c-31 -30 -9 -84 34 -84 11 0 27 11 36 25 15 23 15 27 0
50 -19 29 -47 32 -70 9z m48 0 c35 -13 14 -74 -24 -74 -18 0 -31 39 -20 60 11
21 19 24 44 14z"/>
<path d="M15160 650 c0 -29 2 -51 4 -49 8 8 10 88 3 95 -4 4 -7 -17 -7 -46z"/>
<path d="M15235 684 c-25 -25 -15 -67 18 -78 19 -7 31 -6 38 1 9 9 6 10 -10 6
-21 -5 -51 11 -51 28 0 5 16 9 35 9 36 0 46 15 23 38 -16 16 -34 15 -53 -4z
m53 -11 c2 -9 -7 -13 -28 -13 -28 0 -31 2 -20 15 15 18 41 16 48 -2z"/>
<path d="M15390 650 c0 -29 2 -51 4 -49 8 8 10 88 3 95 -4 4 -7 -17 -7 -46z"/>
<path d="M15465 684 c-25 -25 -15 -67 18 -78 19 -7 31 -6 38 1 9 9 6 10 -10 6
-21 -5 -51 11 -51 28 0 5 16 9 35 9 36 0 46 15 23 38 -16 16 -34 15 -53 -4z
m53 -11 c2 -9 -7 -13 -28 -13 -28 0 -31 2 -20 15 15 18 41 16 48 -2z"/>
<path d="M15613 650 c0 -30 2 -43 4 -27 2 15 2 39 0 55 -2 15 -4 2 -4 -28z"/>
<path d="M15664 689 c-4 -7 0 -9 14 -5 24 8 41 -12 21 -25 -10 -6 -11 -9 -1
-9 17 0 15 -30 -4 -37 -23 -9 -43 15 -24 28 13 9 13 10 0 6 -8 -2 -15 -12 -15
-23 0 -15 8 -19 38 -21 36 -1 37 0 37 36 0 20 -5 42 -12 49 -15 15 -45 16 -54
1z"/>
<path d="M15935 684 c-25 -25 -15 -67 18 -78 19 -7 31 -6 38 1 9 9 6 10 -10 6
-21 -5 -51 11 -51 28 0 5 16 9 35 9 36 0 46 15 23 38 -16 16 -34 15 -53 -4z
m53 -11 c2 -9 -7 -13 -28 -13 -28 0 -31 2 -20 15 15 18 41 16 48 -2z"/>
<path d="M5734 635 c-8 -19 3 -35 24 -35 13 0 13 2 -4 15 -16 13 -17 16 -4 25
11 7 11 10 2 10 -7 0 -15 -7 -18 -15z"/>
<path d="M13134 635 c-8 -19 3 -35 24 -35 13 0 13 2 -4 15 -16 13 -17 16 -4
25 11 7 11 10 2 10 -7 0 -15 -7 -18 -15z"/>
<path d="M14704 635 c-8 -19 3 -35 24 -35 13 0 13 2 -4 15 -16 13 -17 16 -4
25 11 7 11 10 2 10 -7 0 -15 -7 -18 -15z"/>
<path d="M1598 393 c-14 -31 -13 -123 3 -123 5 0 9 20 9 45 0 29 4 45 13 45 8
0 7 4 -3 10 -12 8 -13 13 -2 30 7 11 8 20 3 20 -5 0 -15 -12 -23 -27z"/>
<path d="M1667 413 c-4 -3 -7 -15 -7 -25 0 -10 -6 -18 -12 -18 -10 0 -10 -2
-1 -8 6 -4 13 -28 16 -52 l4 -45 1 47 c1 26 7 49 15 51 10 4 10 6 0 6 -19 1
-16 28 5 40 14 9 15 10 1 11 -9 0 -19 -3 -22 -7z"/>
<path d="M2630 390 c0 -27 -3 -30 -24 -24 -28 7 -56 -18 -56 -50 0 -31 20 -46
58 -43 l32 2 0 73 c0 39 -2 72 -5 72 -3 0 -5 -14 -5 -30z m-12 -42 c17 -17 15
-43 -4 -59 -31 -26 -70 25 -44 56 15 18 32 19 48 3z"/>
<path d="M2738 393 c-14 -31 -13 -123 3 -123 5 0 9 20 9 45 0 29 4 45 13 45 8
0 7 4 -3 10 -12 8 -13 13 -2 30 7 11 8 20 3 20 -5 0 -15 -12 -23 -27z"/>
<path d="M2793 345 c0 -44 2 -61 4 -37 2 23 2 59 0 80 -2 20 -4 1 -4 -43z"/>
<path d="M3092 350 l-2 -76 32 1 c39 0 63 36 47 67 -13 24 -37 34 -50 21 -6
-6 -2 -9 13 -9 19 1 24 -5 26 -30 2 -21 -2 -33 -12 -37 -34 -13 -45 3 -49 71
l-3 67 -2 -75z"/>
<path d="M3200 345 c0 -43 4 -75 10 -75 6 0 10 32 10 75 0 43 -4 75 -10 75 -6
0 -10 -32 -10 -75z"/>
<path d="M3413 345 c0 -44 2 -61 4 -37 2 23 2 59 0 80 -2 20 -4 1 -4 -43z"/>
<path d="M4303 345 c0 -44 2 -61 4 -37 2 23 2 59 0 80 -2 20 -4 1 -4 -43z"/>
<path d="M4528 393 c-14 -31 -13 -123 3 -123 5 0 9 20 9 45 0 29 4 45 13 45 8
0 7 4 -3 10 -12 8 -13 13 -2 30 7 11 8 20 3 20 -5 0 -15 -12 -23 -27z"/>
<path d="M4461 388 c0 -10 -7 -18 -13 -18 -10 0 -10 -2 -1 -8 6 -4 13 -25 15
-46 2 -24 9 -41 18 -44 12 -4 13 -2 3 9 -20 20 -16 77 5 82 15 4 15 5 0 6 -9
0 -19 9 -21 19 -4 16 -5 16 -6 0z"/>
<path d="M1338 380 c-2 -7 -1 -33 2 -58 4 -37 9 -47 25 -50 18 -2 18 -2 3 8
-12 7 -18 23 -18 45 0 26 4 35 18 36 13 0 14 2 2 6 -8 3 -18 10 -21 16 -4 5
-8 4 -11 -3z"/>
<path d="M2178 380 c-2 -7 -1 -33 2 -58 4 -37 9 -47 25 -50 18 -2 18 -2 3 8
-12 7 -18 23 -18 45 0 26 4 35 18 36 13 0 14 2 2 6 -8 3 -18 10 -21 16 -4 5
-8 4 -11 -3z"/>
<path d="M383 363 c-21 -8 -15 -29 12 -47 28 -19 24 -41 -6 -33 -11 3 -19 1
-19 -4 0 -10 21 -12 44 -3 24 9 19 33 -9 46 -31 14 -32 26 -2 38 12 5 15 9 7
9 -8 -1 -21 -3 -27 -6z"/>
<path d="M466 354 c-9 -8 -16 -24 -16 -34 0 -36 58 -68 74 -41 3 4 -5 6 -18 4
-17 -4 -27 1 -35 16 -11 20 -9 21 28 21 34 0 39 3 34 18 -13 34 -42 41 -67 16z
m52 -11 c2 -8 -6 -13 -22 -13 -25 0 -33 10 -19 24 10 10 36 3 41 -11z"/>
<path d="M578 359 c-21 -12 -24 -59 -6 -77 14 -14 44 -16 52 -4 3 5 -4 8 -16
8 -11 -1 -25 7 -32 17 -15 23 4 52 33 51 11 0 21 3 21 8 0 11 -31 10 -52 -3z"/>
<path d="M664 325 c1 -42 4 -50 21 -53 18 -4 19 -3 3 10 -9 7 -19 31 -21 53
-3 32 -4 30 -3 -10z"/>
<path d="M718 324 c-2 -25 0 -48 4 -50 5 -3 8 18 8 45 0 64 -7 66 -12 5z"/>
<path d="M770 320 c0 -29 2 -51 4 -49 8 8 10 88 3 95 -4 4 -7 -17 -7 -46z"/>
<path d="M846 354 c-9 -8 -16 -24 -16 -34 0 -36 58 -68 74 -41 3 4 -5 6 -18 4
-17 -4 -27 1 -35 16 -11 20 -9 21 28 21 34 0 39 3 34 18 -13 34 -42 41 -67 16z
m52 -11 c2 -8 -6 -13 -22 -13 -25 0 -33 10 -19 24 10 10 36 3 41 -11z"/>
<path d="M1058 359 c-21 -12 -24 -59 -6 -77 7 -7 21 -12 33 -11 16 0 14 3 -8
11 -23 8 -28 15 -25 36 2 16 13 31 28 39 14 7 18 13 10 13 -8 -1 -23 -5 -32
-11z"/>
<path d="M1148 359 c-22 -13 -24 -62 -2 -79 25 -21 68 -1 72 33 6 48 -29 71
-70 46z m50 -11 c17 -17 15 -43 -4 -59 -31 -26 -70 25 -44 56 15 18 32 19 48
3z"/>
<path d="M1257 363 c-15 -14 -6 -40 19 -51 28 -13 23 -37 -7 -29 -11 3 -19 1
-19 -4 0 -15 37 -10 51 7 11 14 10 18 -6 30 -10 8 -22 14 -27 14 -17 0 -7 21
15 30 21 8 21 9 1 9 -11 1 -24 -2 -27 -6z"/>
<path d="M1492 358 c-7 -7 -12 -24 -12 -38 0 -32 17 -50 45 -49 16 0 15 2 -7
11 -41 14 -36 38 7 38 22 0 35 5 35 13 0 18 -21 37 -40 37 -9 0 -21 -5 -28
-12z m48 -13 c11 -13 8 -15 -19 -15 -31 0 -42 14 -18 23 20 9 24 8 37 -8z"/>
<path d="M1722 358 c-7 -7 -12 -24 -12 -38 0 -32 17 -50 45 -49 16 0 15 2 -7
11 -41 14 -36 38 7 38 22 0 35 5 35 13 0 18 -21 37 -40 37 -9 0 -21 -5 -28
-12z m48 -13 c11 -13 8 -15 -19 -15 -31 0 -42 14 -18 23 20 9 24 8 37 -8z"/>
<path d="M1825 350 c-24 -26 -13 -68 21 -76 14 -4 28 -4 31 0 4 3 -3 6 -15 6
-24 0 -45 31 -36 54 3 8 18 19 32 25 23 8 24 10 6 10 -11 1 -29 -8 -39 -19z"/>
<path d="M1913 320 c0 -30 2 -43 4 -27 2 15 2 39 0 55 -2 15 -4 2 -4 -28z"/>
<path d="M1966 354 c-9 -8 -16 -24 -16 -34 0 -36 58 -68 74 -41 3 4 -5 6 -18
4 -17 -4 -27 1 -35 16 -11 20 -9 21 28 21 34 0 39 3 34 18 -13 34 -42 41 -67
16z m52 -11 c2 -8 -6 -13 -22 -13 -25 0 -33 10 -19 24 10 10 36 3 41 -11z"/>
<path d="M2060 321 c0 -28 5 -51 10 -51 6 0 10 18 10 40 0 22 0 43 1 47 0 4
-4 9 -10 11 -7 2 -11 -15 -11 -47z"/>
<path d="M2112 358 c9 -7 19 -31 21 -53 3 -32 4 -30 3 10 -1 42 -4 50 -21 53
-18 4 -19 3 -3 -10z"/>
<path d="M2350 360 c-11 -7 -8 -9 14 -7 32 2 47 -19 19 -26 -17 -4 -17 -5 0
-6 20 -1 22 -12 5 -29 -20 -20 -41 -15 -35 8 6 23 -8 28 -16 6 -8 -20 13 -35
45 -33 25 2 28 6 28 38 0 51 -25 71 -60 49z"/>
<path d="M2440 321 c0 -28 5 -51 10 -51 6 0 10 18 10 40 0 22 0 43 1 47 0 4
-4 9 -10 11 -7 2 -11 -15 -11 -47z"/>
<path d="M2492 358 c9 -7 19 -31 21 -53 3 -32 4 -30 3 10 -1 42 -4 50 -21 53
-18 4 -19 3 -3 -10z"/>
<path d="M2852 358 c-7 -7 -12 -24 -12 -38 0 -14 5 -31 12 -38 15 -15 45 -15
54 0 4 7 3 8 -5 4 -16 -10 -51 3 -51 20 0 9 11 14 35 14 38 0 40 2 25 31 -12
21 -40 25 -58 7z m48 -13 c11 -13 8 -15 -19 -15 -30 0 -39 9 -24 23 11 11 30
8 43 -8z"/>
<path d="M2940 367 c0 -4 6 -16 12 -27 10 -16 10 -24 0 -41 -7 -12 -11 -23 -9
-26 3 -3 11 5 17 18 l12 22 20 -24 20 -24 -15 26 c-14 24 -14 29 0 48 8 12 13
25 10 28 -3 2 -11 -5 -17 -18 l-12 -22 -19 24 c-10 13 -19 21 -19 16z"/>
<path d="M3043 320 c0 -30 2 -43 4 -27 2 15 2 39 0 55 -2 15 -4 2 -4 -28z"/>
<path d="M3262 358 c-7 -7 -12 -24 -12 -38 0 -14 5 -31 12 -38 15 -15 45 -15
54 0 4 7 3 8 -5 4 -16 -10 -51 3 -51 20 0 9 11 14 35 14 38 0 40 2 25 31 -12
21 -40 25 -58 7z m48 -13 c11 -13 8 -15 -19 -15 -30 0 -39 9 -24 23 11 11 30
8 43 -8z"/>
<path d="M3466 354 c-9 -8 -16 -24 -16 -34 0 -36 58 -68 74 -41 3 4 -5 6 -18
4 -17 -4 -27 1 -35 16 -11 20 -9 21 28 21 34 0 39 3 34 18 -13 34 -42 41 -67
16z m52 -11 c2 -8 -6 -13 -22 -13 -25 0 -33 10 -19 24 10 10 36 3 41 -11z"/>
<path d="M3576 362 c-3 -5 4 -8 16 -8 34 1 32 -22 -2 -29 -25 -5 -31 -11 -28
-28 2 -17 10 -22 36 -22 33 -1 33 -1 30 45 -3 37 -7 46 -25 48 -11 2 -24 -1
-27 -6z m44 -56 c0 -18 -31 -29 -44 -16 -8 8 -7 14 4 20 22 14 40 12 40 -4z"/>
<path d="M3670 320 c0 -29 2 -51 4 -49 8 8 10 88 3 95 -4 4 -7 -17 -7 -46z"/>
<path d="M3743 320 c0 -30 2 -43 4 -27 2 15 2 39 0 55 -2 15 -4 2 -4 -28z"/>
<path d="M3766 361 c-3 -5 2 -8 12 -7 13 1 18 -8 20 -41 4 -49 22 -59 22 -12
0 52 -35 91 -54 60z"/>
<path d="M3853 320 c0 -30 2 -43 4 -27 2 15 2 39 0 55 -2 15 -4 2 -4 -28z"/>
<path d="M3903 320 c0 -30 2 -43 4 -27 2 15 2 39 0 55 -2 15 -4 2 -4 -28z"/>
<path d="M3926 361 c-3 -5 2 -8 12 -7 13 1 18 -8 20 -41 4 -49 22 -59 22 -12
0 52 -35 91 -54 60z"/>
<path d="M4015 354 c-19 -20 -19 -48 1 -68 19 -19 36 -20 52 -4 9 9 12 9 12
-3 0 -28 -26 -52 -49 -46 -11 3 -21 1 -21 -4 0 -15 47 -10 64 7 11 10 16 34
16 72 0 56 -1 57 -30 59 -16 1 -36 -5 -45 -13z m59 -16 c13 -21 -2 -51 -27
-56 -23 -5 -40 33 -27 59 13 23 38 22 54 -3z"/>
<path d="M4180 296 c0 -44 4 -76 10 -76 6 0 10 13 10 29 0 24 3 28 20 24 27
-7 50 14 50 46 0 30 -16 51 -39 51 -11 0 -9 -5 7 -16 25 -18 29 -46 7 -64 -26
-22 -47 -4 -43 37 2 22 -2 38 -10 41 -9 3 -12 -16 -12 -72z"/>
<path d="M4354 359 c-4 -7 0 -9 14 -5 24 8 41 -12 21 -25 -10 -6 -11 -9 -1 -9
17 0 15 -30 -4 -37 -23 -9 -43 15 -24 28 13 9 13 10 0 6 -8 -2 -15 -12 -15
-23 0 -15 8 -19 38 -21 36 -1 37 0 37 36 0 20 -5 42 -12 49 -15 15 -45 16 -54
1z"/>
<path d="M4592 358 c-7 -7 -12 -24 -12 -38 0 -30 16 -50 41 -50 23 0 49 27 49
50 0 39 -52 64 -78 38z m56 -10 c28 -28 1 -75 -38 -63 -14 4 -20 15 -20 35 0
37 33 53 58 28z"/>
<path d="M4700 320 c0 -29 2 -51 4 -49 8 8 10 88 3 95 -4 4 -7 -17 -7 -46z"/>
<path d="M4773 320 c0 -30 2 -43 4 -27 2 15 2 39 0 55 -2 15 -4 2 -4 -28z"/>
<path d="M4813 359 c11 -7 18 -24 19 -52 l1 -42 4 37 c4 39 28 67 43 52 5 -5
10 -27 13 -49 4 -39 4 -39 5 8 2 52 -15 70 -44 47 -11 -10 -18 -10 -26 -2 -7
7 -17 12 -22 12 -6 0 -3 -5 7 -11z"/>
<path d="M1413 323 c9 -2 23 -2 30 0 6 3 -1 5 -18 5 -16 0 -22 -2 -12 -5z"/>
<path d="M941 274 c0 -11 3 -14 6 -6 3 7 2 16 -1 19 -3 4 -6 -2 -5 -13z"/>
<path d="M2241 274 c0 -11 3 -14 6 -6 3 7 2 16 -1 19 -3 4 -6 -2 -5 -13z"/>
</g>
</svg>
