<svg width="26" height="21" viewBox="0 0 26 21" fill="none" xmlns="http://www.w3.org/2000/svg">
<path d="M23.3263 5.80953C23.3429 6.0288 23.3429 6.24682 23.3429 6.46484C23.3429 13.1369 18.1869 20.8252 8.7642 20.8252C5.86119 20.8252 3.16426 19.997 0.894775 18.5586C1.30695 18.6049 1.70385 18.6212 2.13256 18.6212C4.43893 18.6267 6.68 17.8671 8.49451 16.4648C7.42518 16.4458 6.38859 16.0983 5.52947 15.4709C4.67035 14.8435 4.03159 13.9675 3.70238 12.9653C4.01914 13.0116 4.33717 13.043 4.67047 13.043C5.12971 13.043 5.5915 12.9803 6.02021 12.8713C4.85972 12.6405 3.8162 12.021 3.0671 11.118C2.31799 10.215 1.90955 9.08437 1.91121 7.91829V7.85564C2.59435 8.23028 3.38689 8.46459 4.2265 8.49591C3.52312 8.03555 2.94637 7.41087 2.54771 6.67758C2.14905 5.9443 1.94087 5.12523 1.94174 4.29343C1.94174 3.35621 2.1949 2.49667 2.63887 1.74739C3.92645 3.30737 5.53235 4.58357 7.35256 5.49336C9.17277 6.40314 11.1667 6.9262 13.2052 7.02868C13.1264 6.65279 13.078 6.26311 13.078 5.87218C13.0777 5.20931 13.21 4.55287 13.4674 3.94039C13.7248 3.32792 14.1022 2.77141 14.5781 2.30269C15.054 1.83397 15.619 1.46222 16.2408 1.2087C16.8627 0.955186 17.5292 0.824867 18.2022 0.825196C19.6779 0.825196 21.0098 1.43414 21.9461 2.41898C23.0932 2.20048 24.1933 1.78801 25.1976 1.19984C24.8153 2.36613 24.0143 3.35508 22.9447 3.98144C23.9621 3.86714 24.9565 3.60361 25.8948 3.19958C25.194 4.20585 24.3256 5.08825 23.3263 5.80953Z" fill="#616161"/>
</svg>
