<svg width="25" height="25" viewBox="0 0 25 25" fill="none" xmlns="http://www.w3.org/2000/svg">
<path d="M2.22978 0.825195H23.5748C24.3098 0.825195 24.8948 1.4102 24.8948 2.1452V23.5052C24.8948 24.2252 24.3098 24.8252 23.5748 24.8252H17.4548V15.5252H20.5748L21.0398 11.9102H17.4548V9.60019C17.4548 8.5502 17.7548 7.8302 19.2548 7.8302H21.1748V4.5902C20.8448 4.5452 19.7048 4.4552 18.3848 4.4552C15.6098 4.4552 13.7198 6.1352 13.7198 9.2402V11.9102H10.5848V15.5252H13.7198V24.8252H2.22978C1.8783 24.8252 1.54099 24.6866 1.29105 24.4395C1.04112 24.1924 0.898725 23.8567 0.894775 23.5052V2.1452C0.894775 1.4102 1.49478 0.825195 2.22978 0.825195Z" fill="#616161"/>
</svg>
