<svg width="34" height="23" viewBox="0 0 34 23" fill="none" xmlns="http://www.w3.org/2000/svg">
<path d="M17.4133 0.520508H17.5952C19.2749 0.526468 27.7856 0.586067 30.0803 1.18603C30.774 1.36913 31.4061 1.72604 31.9135 2.22108C32.4209 2.71612 32.7858 3.33195 32.9717 4.00704C33.1781 4.76196 33.3232 5.76123 33.4212 6.79229L33.4417 6.9989L33.4866 7.51542L33.503 7.72203C33.6358 9.53781 33.6521 11.2384 33.6542 11.6099V11.7589C33.6521 12.1443 33.6337 13.96 33.4866 15.8513L33.4703 16.0599L33.4519 16.2665C33.3497 17.4029 33.1985 18.5313 32.9717 19.3617C32.7864 20.037 32.4217 20.6532 31.9142 21.1483C31.4067 21.6434 30.7743 22.0001 30.0803 22.1827C27.71 22.8025 18.7007 22.8462 17.4522 22.8482H17.162C16.5306 22.8482 13.9191 22.8363 11.181 22.7449L10.8336 22.733L10.6558 22.725L10.3064 22.7111L9.957 22.6972C7.68884 22.5999 5.52898 22.4429 4.53385 22.1807C3.8401 21.9983 3.20782 21.6419 2.70037 21.1472C2.19291 20.6524 1.82809 20.0367 1.64245 19.3617C1.41564 18.5333 1.26443 17.4029 1.16226 16.2665L1.14591 16.0579L1.12956 15.8513C1.02872 14.5052 0.972835 13.1562 0.962006 11.8065L0.962006 11.5642C0.966092 11.137 0.98244 9.66098 1.09278 8.03195L1.10709 7.82732L1.11322 7.72402L1.12956 7.51741L1.17452 7.00089L1.19495 6.79428C1.29303 5.76322 1.43812 4.76196 1.6445 4.00903C1.82982 3.33367 2.1945 2.71754 2.70198 2.22242C3.20946 1.72729 3.8419 1.37057 4.53589 1.18801C5.53102 0.929753 7.69088 0.770823 9.95905 0.671492L10.3064 0.657585L10.6579 0.645666L10.8336 0.639706L11.183 0.625799C13.1277 0.564296 15.0732 0.529857 17.019 0.522495H17.4133V0.520508ZM14.0397 6.89758V16.4692L22.5341 11.6854L14.0397 6.89758Z" fill="#616161"/>
</svg>
