<svg width="111" height="105" viewBox="0 0 111 105" fill="none" xmlns="http://www.w3.org/2000/svg">
<path d="M34.7859 20.5198L18.1483 20.5454C18.0569 20.5454 17.9691 20.5818 17.9045 20.6464C17.8398 20.7111 17.8035 20.7988 17.8035 20.8903V55.2403C17.8402 55.7503 18.2217 56.2749 18.9408 56.6895L23.9485 59.5841C25.3353 60.3839 27.4338 60.4683 28.6335 59.7749L34.3163 56.4951C34.5578 56.3875 34.7621 56.2111 34.9037 55.9879C35.0454 55.7647 35.1179 55.5046 35.1124 55.2403V20.8646C35.1125 20.7762 35.0787 20.6912 35.018 20.627C34.9572 20.5629 34.8741 20.5245 34.7859 20.5198Z" fill="url(#paint0_linear)"/>
<path d="M26.6044 60.7577C25.5903 60.7648 24.5912 60.5122 23.7024 60.0239L18.702 57.1366C18.1244 56.8401 17.6689 56.3508 17.4143 55.7535H17.3079V55.2399V20.8899C17.3088 20.6631 17.3991 20.4459 17.5591 20.2852C17.7191 20.1245 17.9359 20.0333 18.1627 20.0314L34.8039 20.0057C35.0316 20.0057 35.2499 20.0962 35.4109 20.2572C35.5719 20.4181 35.6624 20.6365 35.6624 20.8642V55.7535H35.578C35.4132 56.2648 35.0551 56.6914 34.5801 56.9422L28.901 60.2184C28.1947 60.5929 27.4036 60.7787 26.6044 60.7577ZM18.3351 55.1629V55.2032C18.3608 55.5701 18.68 55.937 19.2156 56.2451L24.205 59.1361C25.4267 59.8441 27.3381 59.9322 28.3763 59.3305L34.0592 56.0507C34.2147 55.9865 34.3491 55.8799 34.447 55.743C34.545 55.6062 34.6025 55.4446 34.6131 55.2766L34.5728 54.7263H34.6168V21.0329L18.3351 21.0586V55.1629Z" fill="#EA5757"/>
<path d="M34.786 20.5376L27.1404 20.5486V60.2293C27.6702 60.1902 28.1862 60.0416 28.6556 59.7927L34.3384 56.5129C34.5798 56.4043 34.784 56.2272 34.9256 56.0034C35.0671 55.7797 35.1398 55.5193 35.1345 55.2546V20.8788C35.135 20.8332 35.1263 20.788 35.1089 20.7459C35.0914 20.7038 35.0657 20.6657 35.0331 20.6338C35.0005 20.6019 34.9618 20.5769 34.9194 20.5604C34.8769 20.5439 34.8315 20.5361 34.786 20.5376Z" fill="#EA5757"/>
<path d="M34.3278 21.8037L28.6449 25.0835C27.4453 25.7769 25.3431 25.6888 23.96 24.8891L18.9522 21.9945C17.5655 21.1947 17.415 19.984 18.6147 19.2906L24.2975 16.0218C25.4972 15.3284 27.5994 15.4165 28.9825 16.2163L33.9902 19.1072C35.377 19.896 35.5274 21.1103 34.3278 21.8037Z" fill="white"/>
<path d="M26.6051 26.0631C25.591 26.0703 24.592 25.8177 23.7032 25.3294L18.7027 22.4421C17.8112 21.9248 17.2976 21.2057 17.2976 20.4683C17.3126 20.1268 17.4197 19.7958 17.6077 19.5103C17.7957 19.2248 18.0574 18.9955 18.3652 18.8468L24.048 15.5669C25.4091 14.7782 27.6947 14.8662 29.2466 15.7614L34.2543 18.6523C35.1458 19.1659 35.6558 19.8887 35.6558 20.6261C35.6424 20.9699 35.5356 21.3035 35.3469 21.5912C35.1582 21.8788 34.8946 22.1096 34.5845 22.2587L28.9017 25.5275C28.1944 25.8991 27.4038 26.0835 26.6051 26.0631ZM26.3263 16.0585C25.7172 16.0406 25.1137 16.1783 24.5726 16.4584L18.8715 19.7346C18.7242 19.7994 18.596 19.9009 18.499 20.0294C18.402 20.1578 18.3396 20.3089 18.3175 20.4683C18.3175 20.8352 18.6514 21.2314 19.209 21.5689L24.2058 24.4599C25.4275 25.1643 27.3352 25.2523 28.3771 24.6506L34.0599 21.3708C34.2074 21.3063 34.3358 21.2049 34.4328 21.0764C34.5298 20.9479 34.5922 20.7966 34.6139 20.6371C34.6139 20.2702 34.28 19.874 33.7224 19.5365L28.7256 16.6492C27.9881 16.2541 27.163 16.051 26.3263 16.0585Z" fill="#EA5757"/>
<path d="M25.0097 25.1535H23.9824V59.8228H25.0097V25.1535Z" fill="#EA5757"/>
<path d="M33.5756 23.7736H32.7869V55.6657H33.5756V23.7736Z" fill="url(#paint1_linear)"/>
<path d="M23.1494 50.1404L6.50818 50.1624C6.41736 50.1634 6.33058 50.2001 6.2667 50.2647C6.20282 50.3293 6.16699 50.4164 6.16699 50.5073V67.486C6.20368 67.9923 6.58156 68.5206 7.30062 68.9351L12.3121 71.8261C13.6952 72.6295 15.7937 72.7139 16.9933 72.0205L22.6762 68.7407C22.9147 68.6324 23.1169 68.4573 23.2581 68.2366C23.3994 68.0159 23.4738 67.759 23.4723 67.497V50.5073C23.4763 50.4617 23.471 50.4159 23.4568 50.3725C23.4425 50.329 23.4196 50.289 23.3894 50.2547C23.3592 50.2204 23.3224 50.1925 23.2811 50.1729C23.2399 50.1533 23.1951 50.1422 23.1494 50.1404Z" fill="url(#paint2_linear)"/>
<path d="M14.9679 73.0151C13.9525 73.0235 12.9519 72.7708 12.0623 72.2813L7.0545 69.3904C6.47741 69.095 6.02186 68.607 5.76679 68.0109H5.66406V67.4973V50.5076C5.66406 50.2809 5.75412 50.0634 5.91443 49.9031C6.07474 49.7428 6.29216 49.6528 6.51887 49.6528L23.1564 49.6271C23.2701 49.6285 23.3824 49.6525 23.4867 49.6976C23.5911 49.7428 23.6854 49.8082 23.7642 49.8902C23.8431 49.9721 23.9049 50.0688 23.946 50.1748C23.9871 50.2808 24.0068 50.3939 24.0039 50.5076V68.0256H23.9452C23.7798 68.5367 23.4201 68.9623 22.9436 69.2106L17.2645 72.4904C16.5567 72.8595 15.7658 73.0401 14.9679 73.0151ZM6.68396 67.4203V67.4606C6.70964 67.8275 7.03249 68.1944 7.56445 68.5026L12.5722 71.3935C13.7976 72.0979 15.7053 72.1896 16.7472 71.5879L22.4264 68.3081C22.5809 68.2437 22.7139 68.1368 22.81 67.9997C22.9061 67.8627 22.9614 67.7012 22.9693 67.534L22.929 66.9837H22.973V50.6653L6.67662 50.6873L6.68396 67.4203Z" fill="#EA5757"/>
<path d="M23.1495 50.1662H15.4893V72.4756C16.0197 72.4371 16.536 72.2871 17.0044 72.0353L22.6873 68.7555C22.9241 68.6459 23.1241 68.4702 23.2634 68.2496C23.4027 68.0289 23.4753 67.7727 23.4724 67.5118V50.5074C23.4725 50.42 23.4391 50.3359 23.379 50.2724C23.3189 50.2089 23.2368 50.1709 23.1495 50.1662Z" fill="#EA5757"/>
<path d="M22.6872 51.4316L17.0044 54.7115C15.8047 55.4048 13.7026 55.3168 12.3231 54.517L7.33004 51.6261C5.94327 50.8263 5.79285 49.612 6.99619 48.9186L12.6753 45.6388C13.8787 44.9454 15.9772 45.0334 17.3603 45.8332L22.3681 48.7241C23.7365 49.5276 23.8869 50.7383 22.6872 51.4316Z" fill="white"/>
<path d="M14.9672 55.6948C13.952 55.7014 12.9519 55.4489 12.0616 54.961L7.05379 52.0701C6.16229 51.5565 5.65234 50.8337 5.65234 50.0963C5.66692 49.7547 5.77392 49.4235 5.96193 49.1379C6.14994 48.8524 6.41192 48.6232 6.71994 48.4748L12.3991 45.1949C13.7638 44.4062 16.0458 44.4942 17.5976 45.3894L22.6054 48.2803C23.5006 48.7976 24.0105 49.5167 24.0105 50.2578C23.9953 50.5987 23.888 50.9292 23.7 51.2141C23.512 51.4989 23.2504 51.7275 22.9429 51.8757L17.2638 55.1555C16.5567 55.5279 15.7661 55.7135 14.9672 55.6948ZM14.6847 45.6866C14.0681 45.6729 13.4582 45.8169 12.9127 46.1048L7.23355 49.3809C7.08627 49.4458 6.95804 49.5473 6.86107 49.6757C6.76411 49.8041 6.70162 49.9553 6.67958 50.1147C6.67958 50.4815 7.00976 50.8778 7.56741 51.2153L12.5752 54.1062C13.8005 54.8106 15.7083 54.8987 16.7502 54.3007L22.4293 51.0208C22.5766 50.956 22.7048 50.8545 22.8018 50.7261C22.8988 50.5976 22.9612 50.4465 22.9833 50.2871C22.9833 49.9202 22.6494 49.5203 22.0918 49.1865L17.084 46.2956C16.3484 45.8933 15.523 45.6838 14.6847 45.6866Z" fill="#EA5757"/>
<path d="M13.3717 54.7815H12.3445V72.0758H13.3717V54.7815Z" fill="#EA5757"/>
<path d="M21.9377 53.4024H21.1489V67.9231H21.9377V53.4024Z" fill="url(#paint3_linear)"/>
<path d="M32.1549 0.414952C32.1109 0.33424 31.9861 0.348915 31.8944 0.514006L24.3516 14.0405L23.7242 14.1029L21.6844 12.8775L21.2405 12.3529L18.3936 10.8854C18.2579 10.8047 18.0267 11.1276 18.1331 11.2523L23.9407 19.727L26.5895 21.1578C26.5957 21.1607 26.6025 21.1622 26.6093 21.162C26.6162 21.1619 26.6229 21.1601 26.629 21.1569C26.635 21.1537 26.6402 21.1491 26.6442 21.1436C26.6482 21.138 26.6508 21.1315 26.6519 21.1248L27.1655 16.9901L34.037 3.78649L34.9761 1.91545C34.983 1.9015 34.987 1.88632 34.9879 1.87081C34.9889 1.85529 34.9867 1.83975 34.9816 1.82507C34.9765 1.8104 34.9685 1.79689 34.9581 1.78532C34.9477 1.77375 34.9351 1.76436 34.9211 1.7577L32.1549 0.414952Z" fill="url(#paint4_linear)"/>
<path d="M31.5762 0.334332C31.621 0.239974 31.6902 0.159287 31.7767 0.1006C31.8631 0.041912 31.9636 0.00734965 32.0678 0.000479747C32.1248 -0.00221388 32.1816 0.00645543 32.2352 0.0259818C32.2887 0.0455081 32.3378 0.0755005 32.3797 0.114209L35.0835 1.43127C35.1412 1.45875 35.1927 1.49762 35.2349 1.54554C35.2772 1.59346 35.3093 1.64944 35.3293 1.71009C35.3693 1.831 35.3601 1.96281 35.3036 2.07697L34.3644 3.948L27.5076 17.1223L26.9903 21.3853L26.6235 21.5945L26.407 21.4991L23.6812 20.0316L17.8113 11.4835C17.7456 11.3545 17.7255 11.2072 17.7542 11.0653C17.7828 10.9235 17.8585 10.7955 17.969 10.7021C18.0431 10.6108 18.147 10.5486 18.2624 10.5265C18.3779 10.5043 18.4974 10.5236 18.6 10.581L21.535 12.1109L21.9422 12.5951L23.8243 13.7288L24.1398 13.6957L31.5762 0.334332ZM24.2058 19.4666L26.363 20.6333L26.8546 16.8435L34.5589 1.97791L32.1449 0.814932L24.5727 14.3855L23.6372 14.4808L21.4029 13.1124L21.003 12.6355L18.7027 11.4615L24.2058 19.4666Z" fill="url(#paint5_linear)"/>
<path d="M20.9771 12.7196L26.7736 21.198C26.7736 21.2237 26.836 21.198 26.858 21.1503L34.9989 2.04739C35.1089 1.79058 34.8778 1.71354 34.7421 1.96301L27.0378 15.7573C27.0378 15.7903 26.9864 15.8087 26.9644 15.7977L21.2412 12.3528C21.1055 12.2611 20.8817 12.5839 20.9771 12.7196Z" fill="#229653"/>
<path d="M26.6306 21.5944L26.4839 21.4036L20.6763 12.9289C20.6065 12.8054 20.5801 12.662 20.6014 12.5216C20.6227 12.3813 20.6904 12.2522 20.7937 12.1548C20.8674 12.0621 20.9718 11.9986 21.0881 11.9757C21.2044 11.9528 21.325 11.9721 21.4284 12.0301L26.8764 15.3319L34.4229 1.78343C34.4796 1.65116 34.5859 1.54637 34.7189 1.4915C34.852 1.43664 35.0012 1.43608 35.1347 1.48993C35.254 1.55642 35.3422 1.66741 35.38 1.79869C35.4178 1.92997 35.4021 2.07088 35.3364 2.19065L27.2103 21.2936C27.1798 21.3687 27.1297 21.4343 27.0651 21.4834C27.0005 21.5324 26.924 21.5632 26.8434 21.5724L26.6306 21.5944ZM21.6045 12.9913L26.7407 20.5011L32.9628 5.90338L27.2946 16.0694L27.0965 16.1537C27.0459 16.1694 26.9924 16.1739 26.9399 16.167C26.8873 16.16 26.8369 16.1417 26.792 16.1134L21.6045 12.9913Z" fill="#229653"/>
<path d="M110.828 35.9058L110.787 35.8324L110.072 34.2035L109.012 34.6658L108.722 34.6181L54.1207 28.5391C51.7287 28.2713 48.4526 29.8708 46.8053 32.1087L1.63257 93.4934C1.36354 93.8564 1.13934 94.2506 0.964869 94.6674L0.135742 95.0343L0.898832 96.7732C1.21434 97.452 1.9224 97.9179 2.98265 98.0353L57.5913 104.107C59.9833 104.371 63.2594 102.772 64.9067 100.534L110.079 39.1343C110.949 37.9493 111.18 36.8303 110.868 35.9902L110.828 35.9058Z" fill="#215DA5"/>
<path d="M56.8863 102.493L2.27769 96.4209C-0.1143 96.1531 -0.719636 94.1243 0.927612 91.8827L46.0967 30.498C47.7439 28.2601 51.0201 26.6605 53.4121 26.9246L108.024 33C110.416 33.2678 111.022 35.2966 109.371 37.5382L64.1944 98.9339C62.5545 101.161 59.2783 102.76 56.8863 102.493Z" fill="url(#paint6_linear)"/>
<path d="M61.652 98.7286L8.05957 92.7669L51.9886 33.0698L105.581 39.0315L61.652 98.7286Z" fill="#4F4F4F"/>
<path d="M61.1385 97.3605L7.54614 91.3989L51.4715 31.7017L105.064 37.6634L61.1385 97.3605Z" fill="#828282"/>
<path d="M60.244 95.5042L6.64795 89.5426L50.577 29.8491L104.169 35.8108L60.244 95.5042Z" fill="url(#paint7_linear)"/>
<path d="M47.685 47.3636L47.0356 43.3647C46.9696 42.9538 47.4502 42.4365 48.1142 42.2127C48.7782 41.9889 49.3726 42.1393 49.4386 42.5502L49.8055 44.9019C49.8422 45.122 50.198 45.1697 50.5392 45.0009L59.4798 40.4921C60.1109 40.1729 60.8006 40.1986 61.0244 40.5435C61.2445 40.8883 60.918 41.4239 60.2906 41.7394L48.8296 47.5177C48.3086 47.7855 47.74 47.7121 47.685 47.3636Z" fill="url(#paint8_linear)"/>
<path d="M87.3373 49.0586L64.3199 46.4905C63.7475 46.4245 63.5604 45.9989 63.9016 45.533C64.1005 45.2884 64.3544 45.0945 64.6426 44.9669C64.9308 44.8394 65.2452 44.7819 65.5599 44.7993L88.5737 47.3673C89.146 47.4334 89.3331 47.859 88.9919 48.3249C88.7934 48.5689 88.5401 48.7626 88.2525 48.8901C87.965 49.0176 87.6514 49.0754 87.3373 49.0586Z" fill="url(#paint9_linear)"/>
<path d="M39.0531 59.0922L38.4037 55.0933C38.3377 54.6824 38.822 54.1651 39.5043 53.9413C40.1684 53.7175 40.759 53.868 40.8251 54.2789L41.1919 56.6305C41.2286 56.8506 41.5882 56.8983 41.9257 56.7296L50.87 52.2207C51.4973 51.9015 52.187 51.9272 52.4108 52.2721C52.6346 52.6169 52.3044 53.1526 51.6771 53.4717L40.2161 59.2463C39.6768 59.5178 39.1081 59.4407 39.0531 59.0922Z" fill="url(#paint10_linear)"/>
<path d="M78.7033 60.7798L55.6895 58.2117C55.1172 58.1493 54.9301 57.7201 55.2713 57.2541C55.4695 57.0099 55.7228 56.8161 56.0104 56.6885C56.298 56.561 56.6117 56.5034 56.9258 56.5204L79.9396 59.0885C80.5119 59.1509 80.7027 59.5801 80.3578 60.0424C80.1598 60.2871 79.9066 60.4814 79.619 60.6096C79.3315 60.7378 79.0177 60.7961 78.7033 60.7798Z" fill="url(#paint11_linear)"/>
<path d="M30.4427 70.8208L29.7933 66.822C29.7236 66.4111 30.2079 65.8975 30.8719 65.67C31.5359 65.4462 32.1266 65.5966 32.1963 66.0075L32.5632 68.3592C32.5999 68.5793 32.9557 68.627 33.2969 68.4582L42.2412 63.9494C42.8685 63.6339 43.5619 63.6559 43.7821 64.0007C44.0058 64.3456 43.6793 64.8812 43.0483 65.2004L31.58 70.9786C31.048 71.2464 30.4793 71.1694 30.4427 70.8208Z" fill="url(#paint12_linear)"/>
<path d="M70.0648 72.5195L47.0474 69.9514C46.4751 69.889 46.288 69.4598 46.6292 68.9938C46.8274 68.7496 47.0807 68.5557 47.3683 68.4282C47.6559 68.3007 47.9696 68.2431 48.2838 68.2601L71.3012 70.8282C71.8735 70.8906 72.0606 71.3198 71.7194 71.7821C71.5213 72.0268 71.2682 72.2211 70.9806 72.3493C70.6931 72.4775 70.3792 72.5358 70.0648 72.5195Z" fill="url(#paint13_linear)"/>
<path d="M21.7704 82.579L21.121 78.5801C21.055 78.1692 21.5392 77.6556 22.2033 77.4281C22.8673 77.2043 23.458 77.3547 23.524 77.7656L23.8909 80.1173C23.9276 80.3374 24.2871 80.3851 24.6246 80.2163L33.5689 75.7075C34.1963 75.392 34.886 75.414 35.1098 75.7589C35.3336 76.1037 35.0034 76.6394 34.376 76.9585L22.926 82.7367C22.3941 83.0045 21.8291 82.9275 21.7704 82.579Z" fill="url(#paint14_linear)"/>
<path d="M61.4205 84.2592L38.4068 81.6911C37.8345 81.6287 37.6474 81.1995 37.9885 80.7335C38.1868 80.4893 38.4401 80.2954 38.7277 80.1679C39.0153 80.0404 39.329 79.9828 39.6431 79.9998L62.6569 82.5679C63.2329 82.6303 63.42 83.0595 63.0751 83.5217C62.877 83.7665 62.6239 83.9608 62.3363 84.089C62.0488 84.2171 61.735 84.2755 61.4205 84.2592Z" fill="url(#paint15_linear)"/>
<path d="M91.4926 25.2261L91.5476 25.4022L86.0886 24.7932C86.0394 24.8852 85.9855 24.9746 85.9272 25.061C85.3929 25.7164 84.7113 26.2361 83.9379 26.5778C83.1645 26.9196 82.3213 27.0736 81.477 27.0274C79.9398 26.855 79.4336 25.7067 80.3544 24.4594C80.4204 24.3676 80.5012 24.2869 80.5782 24.1989L79.9325 22.7314L78.487 22.9478L78.6301 23.9861L72.5988 23.3147C71.5385 23.1973 70.1958 24.0668 70.2141 24.8592L70.2545 26.6202L69.6711 26.811L70.3388 28.3408C70.3388 28.3408 70.3389 28.3665 70.3572 28.3775C70.4349 28.4898 70.5384 28.5818 70.6591 28.6456C70.7798 28.7095 70.9141 28.7433 71.0506 28.7444L87.6368 30.5787C88.1689 30.6172 88.6997 30.489 89.1556 30.2119L93.7268 27.4677C94.4606 27.0274 94.7357 26.4294 94.5229 26.0369L93.8772 24.5694L91.4926 25.2261Z" fill="#215DA5"/>
<path d="M93.1762 24.1807L85.4425 23.3223C85.3955 23.4143 85.3415 23.5026 85.2811 23.5864C84.7455 24.2381 84.0637 24.7542 83.2911 25.0927C82.5184 25.4312 81.6768 25.5826 80.8346 25.5345C79.2938 25.3657 78.7912 24.2138 79.7083 22.9664C79.7744 22.8784 79.8551 22.794 79.9321 22.7096L71.9527 21.8218C70.8925 21.7007 69.5497 22.5555 69.5681 23.3626L69.6414 26.6278C69.6414 26.9946 69.9423 27.2221 70.4119 27.2771L86.9981 29.1115C87.5301 29.1487 88.0606 29.0206 88.5169 28.7446L93.0918 26.0004C94.1997 25.329 94.2768 24.3018 93.1762 24.1807Z" fill="url(#paint16_linear)"/>
<path d="M102.811 30.3952L101.893 30.7951L59.4245 26.0698C58.3936 25.9561 56.9811 26.6458 56.2694 27.6107L54.7285 29.7092L53.8958 30.0761L54.2883 31.0629C54.2883 31.085 54.3067 31.0996 54.314 31.1216L54.3727 31.2537C54.4687 31.3949 54.5962 31.5119 54.7452 31.5953C54.8942 31.6787 55.0606 31.7263 55.2312 31.7343L98.1733 36.5036C99.2042 36.6174 100.617 35.9276 101.328 34.9628L102.913 32.8092C103.302 32.2773 103.39 31.7783 103.225 31.4115L102.811 30.3952Z" fill="#6C6577"/>
<path d="M97.7627 35.5206L54.8389 30.7513C53.8043 30.6376 53.5438 29.7607 54.2556 28.7959L55.8405 26.6423C56.5485 25.6775 57.961 24.9878 58.9955 25.1015L101.919 29.8708C102.954 29.9845 103.214 30.8613 102.503 31.8262L100.918 33.9981C100.21 34.9446 98.7973 35.6343 97.7627 35.5206Z" fill="url(#paint17_linear)"/>
<path d="M87.9348 33.9984C87.9234 33.9385 87.8982 33.882 87.8614 33.8333L87.4945 33.0299H81.8741L65.9886 31.2469C65.684 31.2425 65.3826 31.3095 65.1087 31.4427C64.8347 31.5759 64.5957 31.7714 64.4111 32.0137L63.7177 32.9565H63.094L63.4609 33.7746C63.5018 33.8611 63.5661 33.9343 63.6465 33.9862C63.7269 34.038 63.8202 34.0664 63.9158 34.0681L85.3887 36.4565C85.6928 36.4609 85.9936 36.3938 86.267 36.2606C86.5404 36.1274 86.7786 35.9319 86.9626 35.6897L87.755 34.6111C87.8272 34.5284 87.8812 34.4315 87.9134 34.3265C87.9457 34.2216 87.9555 34.1111 87.9421 34.0021L87.9348 33.9984Z" fill="#57545E"/>
<path d="M85.0291 35.6605L63.5598 33.2649C63.0425 33.2098 62.9141 32.7696 63.27 32.289L64.0624 31.2104C64.2471 30.9679 64.486 30.772 64.7599 30.6382C65.0338 30.5044 65.3352 30.4366 65.64 30.44L87.1092 32.8283C87.6265 32.887 87.7549 33.3236 87.399 33.8078L86.6066 34.8828C86.4237 35.1277 86.1854 35.3258 85.9112 35.461C85.637 35.5962 85.3347 35.6646 85.0291 35.6605Z" fill="url(#paint18_linear)"/>
<defs>
<linearGradient id="paint0_linear" x1="20.1808" y1="16.3741" x2="29.3599" y2="48.035" gradientUnits="userSpaceOnUse">
<stop stop-color="#F1994A"/>
<stop offset="0.23" stop-color="#F0944B"/>
<stop offset="0.49" stop-color="#EF864E"/>
<stop offset="0.78" stop-color="#EC6E52"/>
<stop offset="1" stop-color="#EA5757"/>
</linearGradient>
<linearGradient id="paint1_linear" x1="104.873" y1="3614.5" x2="106.569" y2="3614.5" gradientUnits="userSpaceOnUse">
<stop stop-color="#F1994A"/>
<stop offset="0.23" stop-color="#F0944B"/>
<stop offset="0.49" stop-color="#EF864E"/>
<stop offset="0.78" stop-color="#EC6E52"/>
<stop offset="1" stop-color="#EA5757"/>
</linearGradient>
<linearGradient id="paint2_linear" x1="711.41" y1="3328.08" x2="810.137" y2="4158.83" gradientUnits="userSpaceOnUse">
<stop stop-color="#F1994A"/>
<stop offset="0.23" stop-color="#F0944B"/>
<stop offset="0.49" stop-color="#EF864E"/>
<stop offset="0.78" stop-color="#EC6E52"/>
<stop offset="1" stop-color="#EA5757"/>
</linearGradient>
<linearGradient id="paint3_linear" x1="68.2149" y1="2517.28" x2="69.9108" y2="2517.28" gradientUnits="userSpaceOnUse">
<stop stop-color="#F1994A"/>
<stop offset="0.23" stop-color="#F0944B"/>
<stop offset="0.49" stop-color="#EF864E"/>
<stop offset="0.78" stop-color="#EC6E52"/>
<stop offset="1" stop-color="#EA5757"/>
</linearGradient>
<linearGradient id="paint4_linear" x1="30.3242" y1="19.7453" x2="27.7011" y2="10.5663" gradientUnits="userSpaceOnUse">
<stop stop-color="#1D7541"/>
<stop offset="0.17" stop-color="#227A46"/>
<stop offset="0.38" stop-color="#2F8853"/>
<stop offset="0.59" stop-color="#45A06A"/>
<stop offset="0.82" stop-color="#63C189"/>
<stop offset="0.91" stop-color="#70CF97"/>
</linearGradient>
<linearGradient id="paint5_linear" x1="1509.16" y1="1255.72" x2="1326.78" y2="735.204" gradientUnits="userSpaceOnUse">
<stop stop-color="#1D7541"/>
<stop offset="0.17" stop-color="#227A46"/>
<stop offset="0.38" stop-color="#2F8853"/>
<stop offset="0.59" stop-color="#45A06A"/>
<stop offset="0.82" stop-color="#63C189"/>
<stop offset="0.91" stop-color="#70CF97"/>
</linearGradient>
<linearGradient id="paint6_linear" x1="-2.26049" y1="106.847" x2="94.74" y2="35.6525" gradientUnits="userSpaceOnUse">
<stop stop-color="#3080ED"/>
<stop offset="0.24" stop-color="#388FEE"/>
<stop offset="0.7" stop-color="#4CB7F1"/>
<stop offset="0.91" stop-color="#56CCF2"/>
</linearGradient>
<linearGradient id="paint7_linear" x1="46.7328" y1="156.807" x2="12.5259" y2="44.8566" gradientUnits="userSpaceOnUse">
<stop stop-color="#A59BBC"/>
<stop offset="1" stop-color="#F0F5FF"/>
</linearGradient>
<linearGradient id="paint8_linear" x1="65.4851" y1="87.207" x2="51.7172" y2="33.6088" gradientUnits="userSpaceOnUse">
<stop stop-color="#1C31C5"/>
<stop offset="1" stop-color="#8FFFFF"/>
</linearGradient>
<linearGradient id="paint9_linear" x1="-3497.64" y1="-363.597" x2="-3479.87" y2="-1014.96" gradientUnits="userSpaceOnUse">
<stop stop-color="#1C31C5"/>
<stop offset="1" stop-color="#8FFFFF"/>
</linearGradient>
<linearGradient id="paint10_linear" x1="-3143.14" y1="-761.381" x2="-3046.83" y2="-1886.1" gradientUnits="userSpaceOnUse">
<stop stop-color="#1C31C5"/>
<stop offset="1" stop-color="#8FFFFF"/>
</linearGradient>
<linearGradient id="paint11_linear" x1="-4277.5" y1="-372.922" x2="-4259.73" y2="-1024.25" gradientUnits="userSpaceOnUse">
<stop stop-color="#1C31C5"/>
<stop offset="1" stop-color="#8FFFFF"/>
</linearGradient>
<linearGradient id="paint12_linear" x1="-3574.6" y1="-786.194" x2="-3478.2" y2="-1910.79" gradientUnits="userSpaceOnUse">
<stop stop-color="#1C31C5"/>
<stop offset="1" stop-color="#8FFFFF"/>
</linearGradient>
<linearGradient id="paint13_linear" x1="-5058.33" y1="-382.251" x2="-5040.56" y2="-1033.54" gradientUnits="userSpaceOnUse">
<stop stop-color="#1C31C5"/>
<stop offset="1" stop-color="#8FFFFF"/>
</linearGradient>
<linearGradient id="paint14_linear" x1="-4010.86" y1="-811.128" x2="-3914.45" y2="-1935.65" gradientUnits="userSpaceOnUse">
<stop stop-color="#1C31C5"/>
<stop offset="1" stop-color="#8FFFFF"/>
</linearGradient>
<linearGradient id="paint15_linear" x1="-5840.3" y1="-391.58" x2="-5822.53" y2="-1042.92" gradientUnits="userSpaceOnUse">
<stop stop-color="#1C31C5"/>
<stop offset="1" stop-color="#8FFFFF"/>
</linearGradient>
<linearGradient id="paint16_linear" x1="76.1644" y1="31.7089" x2="85.8314" y2="18.5676" gradientUnits="userSpaceOnUse">
<stop stop-color="#3080ED"/>
<stop offset="1" stop-color="#56CCF2"/>
</linearGradient>
<linearGradient id="paint17_linear" x1="-5504.33" y1="41.4456" x2="-5568.72" y2="-175.944" gradientUnits="userSpaceOnUse">
<stop stop-color="#A59BBC"/>
<stop offset="1" stop-color="#F0F5FF"/>
</linearGradient>
<linearGradient id="paint18_linear" x1="-86152.4" y1="-14246.5" x2="-86147.3" y2="-14291.5" gradientUnits="userSpaceOnUse">
<stop stop-color="#A59BBC"/>
<stop offset="1" stop-color="#F0F5FF"/>
</linearGradient>
</defs>
</svg>
